<svg width="25" height="25" viewBox="0 0 25 25" fill="none" xmlns="http://www.w3.org/2000/svg">
<path d="M24.0133 11.9482L24.0477 12.0737C24.0514 12.0871 24.0545 12.0995 24.0569 12.1088L24.0626 12.1312C24.064 12.1365 24.0648 12.1394 24.0651 12.1406C24.3229 12.8672 23.8443 13.6092 23.072 13.6678L24.0133 11.9482ZM24.0133 11.9482L23.922 11.8554M24.0133 11.9482L23.922 11.8554M23.922 11.8554L23.5655 12.206M23.922 11.8554L23.5655 12.206M23.5655 12.206C23.4917 12.1309 23.4178 12.0558 23.3442 11.9804M23.5655 12.206L22.7287 11.9019C22.8686 11.9033 23.0085 11.9266 23.1483 11.95C23.2136 11.9609 23.2789 11.9718 23.3442 11.9804M23.3442 11.9804L23.702 11.6312L23.5813 11.5075L23.4099 11.4848L23.3442 11.9804ZM11.3255 11.3051C11.3488 8.25893 11.3728 5.21185 11.4026 2.16524L11.3255 11.3051ZM11.3255 11.3051C8.27938 11.2777 5.23258 11.2513 2.18537 11.2304C2.00393 11.2291 1.78965 11.2611 1.63762 11.2837C1.58585 11.2914 1.5413 11.298 1.50772 11.3019L1.33705 11.3217L1.21456 11.4421L1.21412 11.4426L1.21368 11.443L1.21324 11.4434L1.2128 11.4439L1.21236 11.4443L1.21192 11.4447L1.21148 11.4452L1.21104 11.4456L1.2106 11.446L1.21016 11.4465L1.20972 11.4469L1.20928 11.4473L1.20884 11.4478L1.2084 11.4482L1.20796 11.4486L1.20752 11.4491L1.20708 11.4495L1.20664 11.4499L1.2062 11.4504L1.20576 11.4508L1.20532 11.4512L1.20488 11.4517L1.20444 11.4521L1.204 11.4525L1.20356 11.453L1.20312 11.4534L1.20268 11.4538L1.20224 11.4543L1.2018 11.4547L1.20136 11.4551L1.20092 11.4555L1.20048 11.456L1.20004 11.4564L1.1996 11.4568L1.19916 11.4573L1.19872 11.4577L1.19828 11.4581L1.19784 11.4586L1.1974 11.459L1.19696 11.4594L1.19652 11.4599L1.19608 11.4603L1.19564 11.4607L1.1952 11.4612L1.19476 11.4616L1.19432 11.462L1.19388 11.4625L1.19344 11.4629L1.193 11.4633L1.19256 11.4638L1.19212 11.4642L1.19168 11.4646L1.19124 11.4651L1.1908 11.4655L1.19036 11.4659L1.18992 11.4664L1.18948 11.4668L1.18904 11.4672L1.1886 11.4677L1.18816 11.4681L1.18772 11.4685L1.18728 11.469L1.18684 11.4694L1.1864 11.4698L1.18596 11.4703L1.18552 11.4707L1.18508 11.4711L1.18464 11.4716L1.1842 11.472L1.18376 11.4724L1.18332 11.4729L1.18288 11.4733L1.18244 11.4737L1.182 11.4742L1.18156 11.4746L1.18112 11.475L1.18068 11.4755L1.18024 11.4759L1.1798 11.4763L1.17936 11.4768L1.17892 11.4772L1.17848 11.4776L1.17804 11.4781L1.17759 11.4785L1.17715 11.4789L1.17671 11.4794L1.17627 11.4798L1.17583 11.4802L1.17539 11.4807L1.17495 11.4811L1.17451 11.4815L1.17407 11.482L1.17363 11.4824L1.17319 11.4828L1.17275 11.4833L1.17231 11.4837L1.17187 11.4841L1.17143 11.4845L1.17099 11.485L1.17055 11.4854L1.17011 11.4858L1.16967 11.4863L1.16923 11.4867L1.16879 11.4871L1.16835 11.4876L1.16791 11.488L1.16747 11.4884L1.16703 11.4889L1.16659 11.4893L1.16615 11.4897L1.16571 11.4902L1.16527 11.4906L1.16483 11.491L1.16439 11.4915L1.16395 11.4919L1.16351 11.4923L1.16307 11.4928L1.16263 11.4932L1.16219 11.4936L1.16175 11.4941L1.16131 11.4945L1.16087 11.4949L1.16043 11.4954L1.15999 11.4958L1.15955 11.4962L1.15911 11.4967L1.15867 11.4971L1.15823 11.4975L1.15779 11.498L1.15735 11.4984L1.15691 11.4988L1.15647 11.4993L1.15603 11.4997L1.15559 11.5001L1.15515 11.5006L1.15471 11.501L1.15427 11.5014L1.15383 11.5019L1.15339 11.5023L1.15295 11.5027L1.15251 11.5032L1.15207 11.5036L1.15163 11.504L1.15119 11.5045L1.15075 11.5049L1.15031 11.5053L1.14987 11.5058L1.14943 11.5062L1.14899 11.5066L1.14855 11.5071L1.14811 11.5075L1.14767 11.5079L1.14723 11.5084L1.14679 11.5088L1.14635 11.5092L1.14591 11.5097L1.14547 11.5101L1.14503 11.5105L1.14459 11.511L1.14415 11.5114L1.14371 11.5118L1.14327 11.5122L1.14283 11.5127L1.14239 11.5131L1.14195 11.5135L1.14151 11.514L1.14107 11.5144L1.14063 11.5148L1.14019 11.5153L1.13975 11.5157L1.13931 11.5161L1.13887 11.5166L1.13843 11.517L1.13799 11.5174L1.13755 11.5179L1.13711 11.5183L1.13667 11.5187L1.13623 11.5192L1.13579 11.5196L1.13535 11.52L1.13491 11.5205L1.13447 11.5209L1.13403 11.5213L1.13359 11.5218L1.13315 11.5222L1.13271 11.5226L1.13227 11.5231L1.13183 11.5235L1.13139 11.5239L1.13095 11.5244L1.13051 11.5248L1.13007 11.5252L1.12963 11.5257L1.12919 11.5261L1.12875 11.5265L1.12831 11.527L1.12787 11.5274L1.12743 11.5278L1.12699 11.5283L1.12655 11.5287L1.12611 11.5291L1.12567 11.5296L1.12523 11.53L1.12479 11.5304L1.12435 11.5309L1.12391 11.5313L1.12347 11.5317L1.12303 11.5322L1.12259 11.5326L1.12214 11.533L1.1217 11.5335L1.12126 11.5339L1.12082 11.5343L1.12038 11.5348L1.11994 11.5352L1.1195 11.5356L1.11906 11.5361L1.11862 11.5365L1.11818 11.5369L1.11774 11.5374L1.1173 11.5378L1.11686 11.5382L1.11642 11.5387L1.11598 11.5391L1.11554 11.5395L1.1151 11.5399L1.11466 11.5404L1.11422 11.5408L1.11378 11.5412L1.11334 11.5417L1.1129 11.5421L1.11246 11.5425L1.11202 11.543L1.11158 11.5434L1.11114 11.5438L1.1107 11.5443L1.11026 11.5447L1.10982 11.5451L1.10938 11.5456L1.10894 11.546L1.1085 11.5464L1.10806 11.5469L1.10762 11.5473L1.10718 11.5477L1.10674 11.5482L1.1063 11.5486L1.10586 11.549L1.10542 11.5495L1.10498 11.5499L1.10454 11.5503L1.1041 11.5508L1.10366 11.5512L1.10322 11.5516L1.10278 11.5521L1.10234 11.5525L1.1019 11.5529L1.10146 11.5534L1.10102 11.5538L1.10058 11.5542L1.10014 11.5547L1.0997 11.5551L1.09926 11.5555L1.09882 11.556L1.09838 11.5564L1.09794 11.5568L1.0975 11.5573L1.09706 11.5577L1.09662 11.5581L1.09618 11.5586L1.09574 11.559L1.0953 11.5594L1.09486 11.5599L1.09442 11.5603L1.09398 11.5607L1.09354 11.5612L1.0931 11.5616L1.09266 11.562L1.09222 11.5625L1.09178 11.5629L1.09134 11.5633L1.0909 11.5638L1.09046 11.5642L1.09002 11.5646L1.08958 11.5651L1.08914 11.5655L1.0887 11.5659L1.08826 11.5664L1.08782 11.5668L1.08738 11.5672L1.08694 11.5677L1.0865 11.5681L1.08606 11.5685L1.08562 11.5689L1.08518 11.5694L1.08474 11.5698L1.0843 11.5702L1.08386 11.5707L1.08342 11.5711L1.08298 11.5715L1.08254 11.572L1.0821 11.5724L1.08166 11.5728L1.08122 11.5733L1.08078 11.5737L1.08034 11.5741L1.0799 11.5746L1.07946 11.575L1.07902 11.5754L1.07858 11.5759L1.07814 11.5763L1.0777 11.5767L1.07726 11.5772L1.07682 11.5776L1.07638 11.578L1.07594 11.5785L1.0755 11.5789L1.07506 11.5793L1.07462 11.5798L1.07418 11.5802L1.07374 11.5806L1.0733 11.5811L1.07286 11.5815L1.07242 11.5819L1.07198 11.5824L1.07154 11.5828L1.0711 11.5832L1.07066 11.5837L1.07022 11.5841L1.06978 11.5845L1.06934 11.585L1.0689 11.5854L1.06845 11.5858L1.06802 11.5863L1.06758 11.5867L1.06714 11.5871L1.0667 11.5876L1.06625 11.588L1.06581 11.5884L1.06537 11.5889L1.06493 11.5893L1.06449 11.5897L1.06405 11.5902L1.06361 11.5906L1.06317 11.591L1.06273 11.5915L1.06229 11.5919L1.06185 11.5923L1.06141 11.5928L1.06097 11.5932L1.06053 11.5936L1.06009 11.5941L1.05965 11.5945L1.05921 11.5949L1.05877 11.5954L1.05833 11.5958L1.05789 11.5962L1.05745 11.5966L1.05701 11.5971L1.05657 11.5975L1.05613 11.5979L1.05569 11.5984L1.05525 11.5988L1.05481 11.5992L1.05437 11.5997L1.05393 11.6001L1.05349 11.6005L1.05305 11.601L1.05261 11.6014L1.05217 11.6018L1.05173 11.6023L1.05129 11.6027L1.05085 11.6031L1.05041 11.6036L1.04997 11.604L1.04953 11.6044L1.04909 11.6049L1.04865 11.6053L1.04821 11.6057L1.04777 11.6062L1.04733 11.6066L1.04689 11.607L1.04645 11.6075L1.04601 11.6079L1.04557 11.6083L1.04513 11.6088L1.04469 11.6092L1.04425 11.6096L1.04381 11.6101L1.04337 11.6105L1.04293 11.6109L1.04249 11.6114L1.04205 11.6118L1.04161 11.6122L1.04117 11.6127L1.04073 11.6131L1.04029 11.6135L1.03985 11.614L1.03941 11.6144L1.03897 11.6148L1.03853 11.6153L1.03809 11.6157L1.03765 11.6161L1.03721 11.6166L1.03677 11.617L1.03633 11.6174L1.03589 11.6179L1.03545 11.6183L1.03501 11.6187L1.03457 11.6192L1.03413 11.6196L1.03369 11.62L1.03325 11.6205L1.03281 11.6209L1.03237 11.6213L1.03193 11.6218L1.03149 11.6222L1.03105 11.6226L1.03061 11.6231L1.03017 11.6235L1.02973 11.6239L1.02929 11.6243L1.02885 11.6248L1.02841 11.6252L1.02797 11.6256L1.02753 11.6261L1.02709 11.6265L1.02665 11.6269L1.02621 11.6274L1.02577 11.6278L1.02533 11.6282L1.02489 11.6287L1.02445 11.6291L1.02401 11.6295L1.02357 11.63L1.02313 11.6304L1.02269 11.6308L1.02225 11.6313L1.02181 11.6317L1.02137 11.6321L1.02093 11.6326L1.02049 11.633L1.02005 11.6334L1.01961 11.6339L1.01917 11.6343L1.01873 11.6347L1.01829 11.6352L1.01785 11.6356L1.01741 11.636L1.01697 11.6365L1.01653 11.6369L1.01609 11.6373L1.01565 11.6378L1.01521 11.6382L1.01477 11.6386L1.01433 11.6391L1.01389 11.6395L1.01345 11.6399L1.013 11.6404L1.01256 11.6408L1.01213 11.6412L1.01169 11.6417L1.01125 11.6421L1.0108 11.6425L1.01036 11.643L1.00992 11.6434L1.00948 11.6438L1.00904 11.6443L1.0086 11.6447L1.00816 11.6451L1.00772 11.6456L1.00728 11.646L1.00684 11.6464L1.0064 11.6469L1.00596 11.6473L1.00552 11.6477L1.00508 11.6482L1.00464 11.6486L1.0042 11.649L1.00376 11.6495L1.00332 11.6499L1.00288 11.6503L1.00244 11.6508L1.002 11.6512L1.00156 11.6516L1.00112 11.652L1.00068 11.6525L1.00024 11.6529L0.999803 11.6533L0.999363 11.6538L0.998923 11.6542L0.998483 11.6546L0.998042 11.6551L0.997602 11.6555L0.997162 11.6559L0.996723 11.6564L0.996282 11.6568L0.995842 11.6572L0.995402 11.6577L0.994962 11.6581L0.994522 11.6585L0.994082 11.659L0.993642 11.6594L0.993202 11.6598L0.992761 11.6603L0.992321 11.6607L0.991881 11.6611L0.991441 11.6616L0.991002 11.662L0.990561 11.6624L0.990121 11.6629L0.989681 11.6633L0.989241 11.6637L0.902154 11.7494L0.864368 11.8655C0.862745 11.8705 0.861066 11.8757 0.859339 11.881C0.801721 12.0573 0.691238 12.3954 0.83785 12.7671L0.838026 12.7676C0.926834 12.9921 1.07529 13.1878 1.29677 13.3206C1.51056 13.4488 1.75268 13.4947 1.9933 13.4967C3.06268 13.5056 4.13201 13.5146 5.20133 13.5235C7.236 13.5405 9.27063 13.5574 11.3055 13.5746C11.2794 16.6668 11.2539 19.759 11.2286 22.8514L11.7286 22.8555M11.3255 11.3051L11.8068 13.422C11.7803 16.5664 11.7543 19.7108 11.7286 22.8555M11.7286 22.8555C11.7286 22.8602 11.7285 22.8649 11.7284 22.8696C11.7275 22.9437 11.7266 23.0189 11.7373 23.0919L11.2425 23.1639M11.7286 22.8555L11.2286 22.8496C11.2286 22.8551 11.2285 22.861 11.2284 22.8673C11.2274 22.9363 11.2258 23.0495 11.2425 23.1639M11.2425 23.1639C11.3563 23.9471 12.1969 24.3693 12.8934 23.9998M11.2425 23.1639L12.8934 23.9998M11.3182 13.0747C9.2831 13.0575 7.24817 13.0405 5.21324 13.0236C4.14133 13.0146 3.06942 13.0057 1.99748 12.9967C1.63231 12.9936 1.41134 12.8576 1.30298 12.5837C1.22562 12.3875 1.27978 12.2048 1.33984 12.0202L11.3182 13.0747ZM11.3182 13.0747C11.3176 13.0853 11.3169 13.0966 11.3161 13.1084C11.3126 13.1638 11.3084 13.2301 11.3079 13.2886L11.3182 13.0747ZM12.8934 23.9998C12.8933 23.9999 12.8931 23.9999 12.893 24L12.6591 23.5581L12.8934 23.9998ZM12.8934 23.9998C13.1207 23.8794 13.2837 23.7044 13.3823 23.4908C13.4755 23.289 13.4988 23.0798 13.5003 22.9016L13.5003 22.9013C13.5238 19.7985 13.5496 16.6954 13.5755 13.5922M12.8934 23.9998L13.0757 13.5645C13.078 13.565 13.0804 13.5656 13.0829 13.5661C13.1244 13.5749 13.1948 13.5888 13.2771 13.5895C13.3766 13.5904 13.476 13.5913 13.5755 13.5922M13.5755 13.5922C16.3093 13.6166 19.043 13.6395 21.7764 13.6623C22.1311 13.6653 22.4857 13.6683 22.8403 13.6712C22.8476 13.6713 22.8562 13.6714 22.8658 13.6716C22.9161 13.6723 22.9959 13.6736 23.0719 13.6678L13.5755 13.5922ZM13.099 1.56393L13.5956 1.50584L13.5757 1.33556L13.4555 1.21333L13.455 1.21289L13.4546 1.21245L13.4542 1.21201L13.4537 1.21157L13.4533 1.21113L13.4529 1.21069L13.4524 1.21024L13.452 1.2098L13.4516 1.20936L13.4511 1.20892L13.4507 1.20848L13.4503 1.20804L13.4498 1.2076L13.4494 1.20716L13.449 1.20672L13.4485 1.20628L13.4481 1.20584L13.4477 1.2054L13.4472 1.20496L13.4468 1.20452L13.4464 1.20408L13.4459 1.20364L13.4455 1.2032L13.4451 1.20276L13.4446 1.20232L13.4442 1.20188L13.4438 1.20144L13.4434 1.201L13.4429 1.20056L13.4425 1.20012L13.4421 1.19968L13.4416 1.19924L13.4412 1.1988L13.4408 1.19836L13.4403 1.19792L13.4399 1.19748L13.4395 1.19704L13.439 1.1966L13.4386 1.19616L13.4382 1.19572L13.4377 1.19528L13.4373 1.19484L13.4369 1.1944L13.4364 1.19396L13.436 1.19352L13.4356 1.19308L13.4351 1.19264L13.4347 1.1922L13.4343 1.19176L13.4338 1.19132L13.4334 1.19088L13.433 1.19044L13.4325 1.19L13.4321 1.18956L13.4317 1.18912L13.4312 1.18868L13.4308 1.18824L13.4304 1.1878L13.4299 1.18736L13.4295 1.18692L13.4291 1.18648L13.4286 1.18604L13.4282 1.1856L13.4278 1.18516L13.4273 1.18472L13.4269 1.18428L13.4265 1.18384L13.426 1.1834L13.4256 1.18296L13.4252 1.18252L13.4247 1.18208L13.4243 1.18164L13.4239 1.1812L13.4234 1.18076L13.423 1.18032L13.4226 1.17988L13.4221 1.17944L13.4217 1.179L13.4213 1.17856L13.4208 1.17812L13.4204 1.17768L13.42 1.17724L13.4195 1.1768L13.4191 1.17635L13.4187 1.17591L13.4182 1.17547L13.4178 1.17503L13.4174 1.17459L13.4169 1.17415L13.4165 1.17371L13.4161 1.17327L13.4156 1.17283L13.4152 1.17239L13.4148 1.17195L13.4143 1.17151L13.4139 1.17107L13.4135 1.17063L13.413 1.17019L13.4126 1.16975L13.4122 1.16931L13.4118 1.16887L13.4113 1.16843L13.4109 1.16799L13.4105 1.16755L13.41 1.16711L13.4096 1.16667L13.4092 1.16623L13.4087 1.16579L13.4083 1.16535L13.4079 1.16491L13.4074 1.16447L13.407 1.16403L13.4066 1.16359L13.4061 1.16315L13.4057 1.16271L13.4053 1.16227L13.4048 1.16183L13.4044 1.16139L13.404 1.16095L13.4035 1.16051L13.4031 1.16007L13.4027 1.15963L13.4022 1.15919L13.4018 1.15875L13.4014 1.15831L13.4009 1.15787L13.4005 1.15743L13.4001 1.15699L13.3996 1.15655L13.3992 1.15611L13.3988 1.15567L13.3983 1.15523L13.3979 1.15479L13.3975 1.15435L13.397 1.15391L13.3966 1.15347L13.3962 1.15303L13.3957 1.15259L13.3953 1.15215L13.3949 1.15171L13.3944 1.15127L13.394 1.15083L13.3936 1.15039L13.3931 1.14995L13.3927 1.14951L13.3923 1.14907L13.3918 1.14863L13.3914 1.14819L13.391 1.14775L13.3905 1.14731L13.3901 1.14687L13.3897 1.14643L13.3892 1.14599L13.3888 1.14555L13.3884 1.14511L13.3879 1.14467L13.3875 1.14423L13.3871 1.14379L13.3866 1.14335L13.3862 1.14291L13.3858 1.14246L13.3853 1.14202L13.3849 1.14158L13.3845 1.14114L13.384 1.1407L13.3836 1.14026L13.3832 1.13982L13.3827 1.13938L13.3823 1.13894L13.3819 1.1385L13.3815 1.13806L13.381 1.13762L13.3806 1.13718L13.3802 1.13674L13.3797 1.1363L13.3793 1.13586L13.3789 1.13542L13.3784 1.13498L13.378 1.13454L13.3776 1.1341L13.3771 1.13366L13.3767 1.13322L13.3763 1.13278L13.3758 1.13234L13.3754 1.1319L13.375 1.13146L13.3745 1.13102L13.3741 1.13058L13.3737 1.13014L13.3732 1.1297L13.3728 1.12926L13.3724 1.12882L13.3719 1.12838L13.3715 1.12794L13.3711 1.1275L13.3706 1.12706L13.3702 1.12662L13.3698 1.12618L13.3693 1.12574L13.3689 1.1253L13.3685 1.12486L13.368 1.12442L13.3676 1.12398L13.3672 1.12354L13.3667 1.1231L13.3663 1.12266L13.3659 1.12222L13.3654 1.12178L13.365 1.12134L13.3646 1.1209L13.3641 1.12046L13.3637 1.12002L13.3633 1.11958L13.3628 1.11914L13.3624 1.1187L13.362 1.11826L13.3615 1.11782L13.3611 1.11738L13.3607 1.11694L13.3602 1.1165L13.3598 1.11606L13.3594 1.11562L13.3589 1.11518L13.3585 1.11474L13.3581 1.1143L13.3576 1.11386L13.3572 1.11342L13.3568 1.11298L13.3563 1.11254L13.3559 1.1121L13.3555 1.11166L13.355 1.11122L13.3546 1.11078L13.3542 1.11034L13.3537 1.1099L13.3533 1.10946L13.3529 1.10902L13.3524 1.10857L13.352 1.10813L13.3516 1.10769L13.3511 1.10725L13.3507 1.10681L13.3503 1.10637L13.3499 1.10593L13.3494 1.10549L13.349 1.10505L13.3486 1.10461L13.3481 1.10417L13.3477 1.10373L13.099 1.56393ZM12.8774 1.33858L13.2338 0.987979L13.1641 0.917087L13.0726 0.878264C12.7275 0.73192 12.3664 0.728889 12.0189 0.869447L11.9267 0.906742L11.8558 0.97648L11.8553 0.976912L11.8549 0.977345L11.8545 0.977778L11.854 0.978211L11.8536 0.978644L11.8531 0.979077L11.8527 0.979509L11.8523 0.979942L11.8518 0.980375L11.8514 0.980808L11.8509 0.981241L11.8505 0.981673L11.8501 0.982106L11.8496 0.982539L11.8492 0.982972L11.8487 0.983405L11.8483 0.983838L11.8479 0.98427L11.8474 0.984703L11.847 0.985136L11.8465 0.985569L11.8461 0.986002L11.8457 0.986434L11.8452 0.986867L11.8448 0.9873L11.8443 0.987733L11.8439 0.988166L11.8435 0.988599L11.843 0.989031L11.8426 0.989464L11.8421 0.989897L11.8417 0.99033L11.8413 0.990763L11.8408 0.991196L11.8404 0.991628L11.8399 0.992061L11.8395 0.992494L11.8391 0.992927L11.8386 0.99336L11.8382 0.993792L11.8377 0.994225L11.8373 0.994658L11.8369 0.995091L11.8364 0.995524L11.836 0.995957L11.8355 0.996389L11.8351 0.996822L11.8347 0.997255L11.8342 0.997688L11.8338 0.998121L11.8333 0.998553L11.8329 0.998986L11.8325 0.999419L11.832 0.999852L11.8316 1.00028L11.8311 1.00072L11.8307 1.00115L11.8302 1.00158L11.8298 1.00202L11.8294 1.00245L11.8289 1.00288L11.8285 1.00331L11.828 1.00375L11.8276 1.00418L11.8272 1.00461L11.8267 1.00505L11.8263 1.00548L11.8258 1.00591L11.8254 1.00634L11.825 1.00678L11.8245 1.00721L11.8241 1.00764L11.8236 1.00808L11.8232 1.00851L11.8228 1.00894L11.8223 1.00937L11.8219 1.00981L11.8214 1.01024L11.821 1.01067L11.8206 1.01111L11.8201 1.01154L11.8197 1.01197L11.8192 1.0124L11.8188 1.01284L11.8184 1.01327L11.8179 1.0137L11.8175 1.01413L11.817 1.01457L11.8166 1.015L11.8162 1.01543L11.8157 1.01587L11.8153 1.0163L11.8148 1.01673L11.8144 1.01716L11.814 1.0176L11.8135 1.01803L11.8131 1.01846L11.8126 1.0189L11.8122 1.01933L11.8118 1.01976L11.8113 1.02019L11.8109 1.02063L11.8104 1.02106L11.81 1.02149L11.8096 1.02193L11.8091 1.02236L11.8087 1.02279L11.8082 1.02322L11.8078 1.02366L11.8074 1.02409L11.8069 1.02452L11.8065 1.02496L11.806 1.02539L11.8056 1.02582L11.8052 1.02625L11.8047 1.02669L11.8043 1.02712L11.8038 1.02755L11.8034 1.02799L11.803 1.02842L11.8025 1.02885L11.8021 1.02928L11.8016 1.02972L11.8012 1.03015L11.8008 1.03058L11.8003 1.03101L11.7999 1.03145L11.7994 1.03188L11.799 1.03231L11.7986 1.03275L11.7981 1.03318L11.7977 1.03361L11.7972 1.03404L11.7968 1.03448L11.7964 1.03491L11.7959 1.03534L11.7955 1.03578L11.795 1.03621L11.7946 1.03664L11.7942 1.03707L11.7937 1.03751L11.7933 1.03794L11.7928 1.03837L11.7924 1.03881L11.792 1.03924L11.7915 1.03967L11.7911 1.0401L11.7906 1.04054L11.7902 1.04097L11.7898 1.0414L11.7893 1.04184L11.7889 1.04227L11.7884 1.0427L11.788 1.04313L11.7876 1.04357L11.7871 1.044L11.7867 1.04443L11.7862 1.04487L11.7858 1.0453L11.7854 1.04573L11.7849 1.04616L11.7845 1.0466L11.784 1.04703L11.7836 1.04746L11.7832 1.04789L11.7827 1.04833L11.7823 1.04876L11.7818 1.04919L11.7814 1.04963L11.781 1.05006L11.7805 1.05049L11.7801 1.05092L11.7796 1.05136L11.7792 1.05179L11.7788 1.05222L11.7783 1.05266L11.7779 1.05309L11.7774 1.05352L11.777 1.05395L11.7766 1.05439L11.7761 1.05482L11.7757 1.05525L11.7752 1.05569L11.7748 1.05612L11.7744 1.05655L11.7739 1.05698L11.7735 1.05742L11.773 1.05785L11.7726 1.05828L11.7722 1.05872L11.7717 1.05915L11.7713 1.05958L11.7708 1.06001L11.7704 1.06045L11.77 1.06088L11.7695 1.06131L11.7691 1.06175L11.7686 1.06218L11.7682 1.06261L11.7678 1.06304L11.7673 1.06348L11.7669 1.06391L11.7664 1.06434L11.766 1.06477L11.7656 1.06521L11.7651 1.06564L11.7647 1.06607L11.7642 1.06651L11.7638 1.06694L11.7634 1.06737L11.7629 1.0678L11.7625 1.06824L11.762 1.06867L11.7616 1.0691L11.7612 1.06954L11.7607 1.06997L11.7603 1.0704L11.7598 1.07083L11.7594 1.07127L11.759 1.0717L11.7585 1.07213L11.7581 1.07257L11.7576 1.073L11.7572 1.07343L11.7568 1.07386L11.7563 1.0743L11.7559 1.07473L11.7554 1.07516L11.755 1.0756L11.7546 1.07603L11.7541 1.07646L11.7537 1.07689L11.7532 1.07733L11.7528 1.07776L11.7524 1.07819L11.7519 1.07863L11.7515 1.07906L11.751 1.07949L11.7506 1.07992L11.7502 1.08036L11.7497 1.08079L11.7493 1.08122L11.7488 1.08165L11.7484 1.08209L11.748 1.08252L11.7475 1.08295L11.7471 1.08339L11.7466 1.08382L11.7462 1.08425L11.7458 1.08468L11.7453 1.08512L11.7449 1.08555L11.7444 1.08598L11.744 1.08642L11.7436 1.08685L11.7431 1.08728L11.7427 1.08771L11.7422 1.08815L11.7418 1.08858L11.7414 1.08901L11.7409 1.08945L11.7405 1.08988L11.74 1.09031L11.7396 1.09074L11.7392 1.09118L11.7387 1.09161L11.7383 1.09204L11.7378 1.09248L11.7374 1.09291L11.737 1.09334L11.7365 1.09377L11.7361 1.09421L11.7356 1.09464L11.7352 1.09507L11.7348 1.09551L11.7343 1.09594L11.7339 1.09637L11.7334 1.0968L11.733 1.09724L11.7326 1.09767L11.7321 1.0981L11.7317 1.09853L11.7312 1.09897L11.7308 1.0994L11.7304 1.09983L11.7299 1.10027L11.7295 1.1007L11.729 1.10113L11.7286 1.10156L11.7282 1.102L11.7277 1.10243L11.7273 1.10286L11.7268 1.1033L11.7264 1.10373L11.726 1.10416L11.7255 1.10459L11.7251 1.10503L11.7246 1.10546L11.7242 1.10589L11.7238 1.10633L11.7233 1.10676L11.7229 1.10719L11.7224 1.10762L11.722 1.10806L11.7215 1.10849L11.7211 1.10892L11.7207 1.10936L11.7202 1.10979L11.7198 1.11022L11.7193 1.11065L11.7189 1.11109L11.7185 1.11152L11.718 1.11195L11.7176 1.11239L11.7171 1.11282L11.7167 1.11325L11.7163 1.11368L11.7158 1.11412L11.7154 1.11455L11.7149 1.11498L11.7145 1.11541L11.7141 1.11585L11.7136 1.11628L11.7132 1.11671L11.7127 1.11715L11.7123 1.11758L11.7119 1.11801L11.7114 1.11844L11.711 1.11888L11.7105 1.11931L11.7101 1.11974L11.7097 1.12018L11.7092 1.12061L11.7088 1.12104L11.7083 1.12147L11.7079 1.12191L11.7075 1.12234L11.707 1.12277L11.7066 1.12321L11.7061 1.12364L11.7057 1.12407L11.7053 1.1245L11.7048 1.12494L11.7044 1.12537L11.7039 1.1258L11.7035 1.12624L11.7031 1.12667L11.7026 1.1271L11.7022 1.12753L11.7017 1.12797L11.7013 1.1284L11.7009 1.12883L11.7004 1.12927L11.7 1.1297L11.6995 1.13013L11.6991 1.13056L11.6987 1.131L11.6982 1.13143L11.6978 1.13186L11.6973 1.13229L11.6969 1.13273L11.6965 1.13316L11.696 1.13359L11.6956 1.13403L11.6951 1.13446L11.6947 1.13489L11.6943 1.13532L11.6938 1.13576L11.6934 1.13619L11.6929 1.13662L11.6925 1.13706L11.6921 1.13749L11.6916 1.13792L11.6912 1.13835L11.6907 1.13879L11.6903 1.13922L11.6899 1.13965L11.6894 1.14009L11.689 1.14052L11.6885 1.14095L11.6881 1.14138L11.6877 1.14182L11.6872 1.14225L11.6868 1.14268L11.6863 1.14312L11.6859 1.14355L11.6855 1.14398L11.685 1.14441L11.6846 1.14485L11.6841 1.14528L11.6837 1.14571L11.6833 1.14615L11.6828 1.14658L11.6824 1.14701L11.6819 1.14744L11.6815 1.14788L11.6811 1.14831L11.6806 1.14874L11.6802 1.14917L11.6797 1.14961L11.6793 1.15004L11.6789 1.15047L11.6784 1.15091L11.678 1.15134L11.6775 1.15177L11.6771 1.1522L11.6767 1.15264L11.6762 1.15307L11.6758 1.1535L11.6753 1.15394L11.6749 1.15437L11.6745 1.1548L11.674 1.15523L11.6736 1.15567L11.6731 1.1561L11.6727 1.15653L11.6723 1.15697L11.6718 1.1574L11.6714 1.15783L11.6709 1.15826L11.6705 1.1587L11.6701 1.15913L11.6696 1.15956L11.6692 1.16L11.6687 1.16043L11.6683 1.16086L11.6679 1.16129L11.6674 1.16173L11.667 1.16216L11.6665 1.16259L11.6661 1.16303L11.6657 1.16346L11.6652 1.16389L11.6648 1.16432L11.6643 1.16476L11.6639 1.16519L11.6635 1.16562L11.663 1.16605L11.6626 1.16649L11.6621 1.16692L11.6617 1.16735L11.6613 1.16779L11.6608 1.16822L11.6604 1.16865L11.6599 1.16908L11.6595 1.16952L11.6591 1.16995L11.6586 1.17038L11.6582 1.17082L11.6577 1.17125L11.6573 1.17168L11.6569 1.17211L11.6564 1.17255L11.656 1.17298L11.6555 1.17341L11.6551 1.17385L11.6547 1.17428L11.6542 1.17471L11.6538 1.17514L11.6533 1.17558L11.6529 1.17601L11.6525 1.17644L11.652 1.17688L11.6516 1.17731L11.6511 1.17774L11.6507 1.17817L11.6503 1.17861L11.6498 1.17904L11.6494 1.17947L11.6489 1.17991L11.6485 1.18034L11.6481 1.18077L11.6476 1.1812L11.6472 1.18164L11.6467 1.18207L11.6463 1.1825L11.6459 1.18293L11.6454 1.18337L11.645 1.1838L11.6445 1.18423L11.6441 1.18467L11.6437 1.1851L11.6432 1.18553L11.6428 1.18596L11.6423 1.1864L11.6419 1.18683L11.6415 1.18726L11.641 1.1877L11.6406 1.18813L11.6401 1.18856L11.6397 1.18899L11.6393 1.18943L11.6388 1.18986L11.6384 1.19029L11.6379 1.19073L11.6375 1.19116L11.6371 1.19159L11.6366 1.19202L11.6362 1.19246L11.6357 1.19289L11.6353 1.19332L11.6349 1.19376L11.6344 1.19419L11.634 1.19462L11.6335 1.19505L11.6331 1.19549L11.6327 1.19592L11.6322 1.19635L11.6318 1.19679L11.6313 1.19722L11.6309 1.19765L11.6305 1.19808L11.5082 1.31832L11.4855 1.48828C11.4809 1.52213 11.4736 1.56647 11.465 1.61777C11.4398 1.76972 11.4044 1.98276 11.4026 2.16516L12.8774 1.33858Z" fill="#F12724"/>
<path d="M24.0133 11.9482L24.0477 12.0737C24.0514 12.0871 24.0545 12.0995 24.0569 12.1088L24.0626 12.1312C24.064 12.1365 24.0648 12.1394 24.0651 12.1406C24.3229 12.8672 23.8443 13.6092 23.072 13.6678L24.0133 11.9482ZM24.0133 11.9482L23.922 11.8554M24.0133 11.9482L23.922 11.8554M23.922 11.8554L23.5655 12.206M23.922 11.8554L23.5655 12.206M23.5655 12.206C23.4917 12.1309 23.4178 12.0558 23.3442 11.9804M23.5655 12.206L22.7287 11.9019C22.8686 11.9033 23.0085 11.9266 23.1483 11.95C23.2136 11.9609 23.2789 11.9718 23.3442 11.9804M23.3442 11.9804L23.702 11.6312L23.5813 11.5075L23.4099 11.4848L23.3442 11.9804ZM11.3255 11.3051C11.3488 8.25893 11.3728 5.21185 11.4026 2.16524L11.3255 11.3051ZM11.3255 11.3051C8.27938 11.2777 5.23258 11.2513 2.18537 11.2304C2.00393 11.2291 1.78965 11.2611 1.63762 11.2837C1.58585 11.2914 1.5413 11.298 1.50772 11.3019L1.33705 11.3217L1.21456 11.4421L1.21412 11.4426L1.21368 11.443L1.21324 11.4434L1.2128 11.4439L1.21236 11.4443L1.21192 11.4447L1.21148 11.4452L1.21104 11.4456L1.2106 11.446L1.21016 11.4465L1.20972 11.4469L1.20928 11.4473L1.20884 11.4478L1.2084 11.4482L1.20796 11.4486L1.20752 11.4491L1.20708 11.4495L1.20664 11.4499L1.2062 11.4504L1.20576 11.4508L1.20532 11.4512L1.20488 11.4517L1.20444 11.4521L1.204 11.4525L1.20356 11.453L1.20312 11.4534L1.20268 11.4538L1.20224 11.4543L1.2018 11.4547L1.20136 11.4551L1.20092 11.4555L1.20048 11.456L1.20004 11.4564L1.1996 11.4568L1.19916 11.4573L1.19872 11.4577L1.19828 11.4581L1.19784 11.4586L1.1974 11.459L1.19696 11.4594L1.19652 11.4599L1.19608 11.4603L1.19564 11.4607L1.1952 11.4612L1.19476 11.4616L1.19432 11.462L1.19388 11.4625L1.19344 11.4629L1.193 11.4633L1.19256 11.4638L1.19212 11.4642L1.19168 11.4646L1.19124 11.4651L1.1908 11.4655L1.19036 11.4659L1.18992 11.4664L1.18948 11.4668L1.18904 11.4672L1.1886 11.4677L1.18816 11.4681L1.18772 11.4685L1.18728 11.469L1.18684 11.4694L1.1864 11.4698L1.18596 11.4703L1.18552 11.4707L1.18508 11.4711L1.18464 11.4716L1.1842 11.472L1.18376 11.4724L1.18332 11.4729L1.18288 11.4733L1.18244 11.4737L1.182 11.4742L1.18156 11.4746L1.18112 11.475L1.18068 11.4755L1.18024 11.4759L1.1798 11.4763L1.17936 11.4768L1.17892 11.4772L1.17848 11.4776L1.17804 11.4781L1.17759 11.4785L1.17715 11.4789L1.17671 11.4794L1.17627 11.4798L1.17583 11.4802L1.17539 11.4807L1.17495 11.4811L1.17451 11.4815L1.17407 11.482L1.17363 11.4824L1.17319 11.4828L1.17275 11.4833L1.17231 11.4837L1.17187 11.4841L1.17143 11.4845L1.17099 11.485L1.17055 11.4854L1.17011 11.4858L1.16967 11.4863L1.16923 11.4867L1.16879 11.4871L1.16835 11.4876L1.16791 11.488L1.16747 11.4884L1.16703 11.4889L1.16659 11.4893L1.16615 11.4897L1.16571 11.4902L1.16527 11.4906L1.16483 11.491L1.16439 11.4915L1.16395 11.4919L1.16351 11.4923L1.16307 11.4928L1.16263 11.4932L1.16219 11.4936L1.16175 11.4941L1.16131 11.4945L1.16087 11.4949L1.16043 11.4954L1.15999 11.4958L1.15955 11.4962L1.15911 11.4967L1.15867 11.4971L1.15823 11.4975L1.15779 11.498L1.15735 11.4984L1.15691 11.4988L1.15647 11.4993L1.15603 11.4997L1.15559 11.5001L1.15515 11.5006L1.15471 11.501L1.15427 11.5014L1.15383 11.5019L1.15339 11.5023L1.15295 11.5027L1.15251 11.5032L1.15207 11.5036L1.15163 11.504L1.15119 11.5045L1.15075 11.5049L1.15031 11.5053L1.14987 11.5058L1.14943 11.5062L1.14899 11.5066L1.14855 11.5071L1.14811 11.5075L1.14767 11.5079L1.14723 11.5084L1.14679 11.5088L1.14635 11.5092L1.14591 11.5097L1.14547 11.5101L1.14503 11.5105L1.14459 11.511L1.14415 11.5114L1.14371 11.5118L1.14327 11.5122L1.14283 11.5127L1.14239 11.5131L1.14195 11.5135L1.14151 11.514L1.14107 11.5144L1.14063 11.5148L1.14019 11.5153L1.13975 11.5157L1.13931 11.5161L1.13887 11.5166L1.13843 11.517L1.13799 11.5174L1.13755 11.5179L1.13711 11.5183L1.13667 11.5187L1.13623 11.5192L1.13579 11.5196L1.13535 11.52L1.13491 11.5205L1.13447 11.5209L1.13403 11.5213L1.13359 11.5218L1.13315 11.5222L1.13271 11.5226L1.13227 11.5231L1.13183 11.5235L1.13139 11.5239L1.13095 11.5244L1.13051 11.5248L1.13007 11.5252L1.12963 11.5257L1.12919 11.5261L1.12875 11.5265L1.12831 11.527L1.12787 11.5274L1.12743 11.5278L1.12699 11.5283L1.12655 11.5287L1.12611 11.5291L1.12567 11.5296L1.12523 11.53L1.12479 11.5304L1.12435 11.5309L1.12391 11.5313L1.12347 11.5317L1.12303 11.5322L1.12259 11.5326L1.12214 11.533L1.1217 11.5335L1.12126 11.5339L1.12082 11.5343L1.12038 11.5348L1.11994 11.5352L1.1195 11.5356L1.11906 11.5361L1.11862 11.5365L1.11818 11.5369L1.11774 11.5374L1.1173 11.5378L1.11686 11.5382L1.11642 11.5387L1.11598 11.5391L1.11554 11.5395L1.1151 11.5399L1.11466 11.5404L1.11422 11.5408L1.11378 11.5412L1.11334 11.5417L1.1129 11.5421L1.11246 11.5425L1.11202 11.543L1.11158 11.5434L1.11114 11.5438L1.1107 11.5443L1.11026 11.5447L1.10982 11.5451L1.10938 11.5456L1.10894 11.546L1.1085 11.5464L1.10806 11.5469L1.10762 11.5473L1.10718 11.5477L1.10674 11.5482L1.1063 11.5486L1.10586 11.549L1.10542 11.5495L1.10498 11.5499L1.10454 11.5503L1.1041 11.5508L1.10366 11.5512L1.10322 11.5516L1.10278 11.5521L1.10234 11.5525L1.1019 11.5529L1.10146 11.5534L1.10102 11.5538L1.10058 11.5542L1.10014 11.5547L1.0997 11.5551L1.09926 11.5555L1.09882 11.556L1.09838 11.5564L1.09794 11.5568L1.0975 11.5573L1.09706 11.5577L1.09662 11.5581L1.09618 11.5586L1.09574 11.559L1.0953 11.5594L1.09486 11.5599L1.09442 11.5603L1.09398 11.5607L1.09354 11.5612L1.0931 11.5616L1.09266 11.562L1.09222 11.5625L1.09178 11.5629L1.09134 11.5633L1.0909 11.5638L1.09046 11.5642L1.09002 11.5646L1.08958 11.5651L1.08914 11.5655L1.0887 11.5659L1.08826 11.5664L1.08782 11.5668L1.08738 11.5672L1.08694 11.5677L1.0865 11.5681L1.08606 11.5685L1.08562 11.5689L1.08518 11.5694L1.08474 11.5698L1.0843 11.5702L1.08386 11.5707L1.08342 11.5711L1.08298 11.5715L1.08254 11.572L1.0821 11.5724L1.08166 11.5728L1.08122 11.5733L1.08078 11.5737L1.08034 11.5741L1.0799 11.5746L1.07946 11.575L1.07902 11.5754L1.07858 11.5759L1.07814 11.5763L1.0777 11.5767L1.07726 11.5772L1.07682 11.5776L1.07638 11.578L1.07594 11.5785L1.0755 11.5789L1.07506 11.5793L1.07462 11.5798L1.07418 11.5802L1.07374 11.5806L1.0733 11.5811L1.07286 11.5815L1.07242 11.5819L1.07198 11.5824L1.07154 11.5828L1.0711 11.5832L1.07066 11.5837L1.07022 11.5841L1.06978 11.5845L1.06934 11.585L1.0689 11.5854L1.06845 11.5858L1.06802 11.5863L1.06758 11.5867L1.06714 11.5871L1.0667 11.5876L1.06625 11.588L1.06581 11.5884L1.06537 11.5889L1.06493 11.5893L1.06449 11.5897L1.06405 11.5902L1.06361 11.5906L1.06317 11.591L1.06273 11.5915L1.06229 11.5919L1.06185 11.5923L1.06141 11.5928L1.06097 11.5932L1.06053 11.5936L1.06009 11.5941L1.05965 11.5945L1.05921 11.5949L1.05877 11.5954L1.05833 11.5958L1.05789 11.5962L1.05745 11.5966L1.05701 11.5971L1.05657 11.5975L1.05613 11.5979L1.05569 11.5984L1.05525 11.5988L1.05481 11.5992L1.05437 11.5997L1.05393 11.6001L1.05349 11.6005L1.05305 11.601L1.05261 11.6014L1.05217 11.6018L1.05173 11.6023L1.05129 11.6027L1.05085 11.6031L1.05041 11.6036L1.04997 11.604L1.04953 11.6044L1.04909 11.6049L1.04865 11.6053L1.04821 11.6057L1.04777 11.6062L1.04733 11.6066L1.04689 11.607L1.04645 11.6075L1.04601 11.6079L1.04557 11.6083L1.04513 11.6088L1.04469 11.6092L1.04425 11.6096L1.04381 11.6101L1.04337 11.6105L1.04293 11.6109L1.04249 11.6114L1.04205 11.6118L1.04161 11.6122L1.04117 11.6127L1.04073 11.6131L1.04029 11.6135L1.03985 11.614L1.03941 11.6144L1.03897 11.6148L1.03853 11.6153L1.03809 11.6157L1.03765 11.6161L1.03721 11.6166L1.03677 11.617L1.03633 11.6174L1.03589 11.6179L1.03545 11.6183L1.03501 11.6187L1.03457 11.6192L1.03413 11.6196L1.03369 11.62L1.03325 11.6205L1.03281 11.6209L1.03237 11.6213L1.03193 11.6218L1.03149 11.6222L1.03105 11.6226L1.03061 11.6231L1.03017 11.6235L1.02973 11.6239L1.02929 11.6243L1.02885 11.6248L1.02841 11.6252L1.02797 11.6256L1.02753 11.6261L1.02709 11.6265L1.02665 11.6269L1.02621 11.6274L1.02577 11.6278L1.02533 11.6282L1.02489 11.6287L1.02445 11.6291L1.02401 11.6295L1.02357 11.63L1.02313 11.6304L1.02269 11.6308L1.02225 11.6313L1.02181 11.6317L1.02137 11.6321L1.02093 11.6326L1.02049 11.633L1.02005 11.6334L1.01961 11.6339L1.01917 11.6343L1.01873 11.6347L1.01829 11.6352L1.01785 11.6356L1.01741 11.636L1.01697 11.6365L1.01653 11.6369L1.01609 11.6373L1.01565 11.6378L1.01521 11.6382L1.01477 11.6386L1.01433 11.6391L1.01389 11.6395L1.01345 11.6399L1.013 11.6404L1.01256 11.6408L1.01213 11.6412L1.01169 11.6417L1.01125 11.6421L1.0108 11.6425L1.01036 11.643L1.00992 11.6434L1.00948 11.6438L1.00904 11.6443L1.0086 11.6447L1.00816 11.6451L1.00772 11.6456L1.00728 11.646L1.00684 11.6464L1.0064 11.6469L1.00596 11.6473L1.00552 11.6477L1.00508 11.6482L1.00464 11.6486L1.0042 11.649L1.00376 11.6495L1.00332 11.6499L1.00288 11.6503L1.00244 11.6508L1.002 11.6512L1.00156 11.6516L1.00112 11.652L1.00068 11.6525L1.00024 11.6529L0.999803 11.6533L0.999363 11.6538L0.998923 11.6542L0.998483 11.6546L0.998042 11.6551L0.997602 11.6555L0.997162 11.6559L0.996723 11.6564L0.996282 11.6568L0.995842 11.6572L0.995402 11.6577L0.994962 11.6581L0.994522 11.6585L0.994082 11.659L0.993642 11.6594L0.993202 11.6598L0.992761 11.6603L0.992321 11.6607L0.991881 11.6611L0.991441 11.6616L0.991002 11.662L0.990561 11.6624L0.990121 11.6629L0.989681 11.6633L0.989241 11.6637L0.902154 11.7494L0.864368 11.8655C0.862745 11.8705 0.861066 11.8757 0.859339 11.881C0.801721 12.0573 0.691238 12.3954 0.83785 12.7671L0.838026 12.7676C0.926834 12.9921 1.07529 13.1878 1.29677 13.3206C1.51056 13.4488 1.75268 13.4947 1.9933 13.4967C3.06268 13.5056 4.13201 13.5146 5.20133 13.5235C7.236 13.5405 9.27063 13.5574 11.3055 13.5746C11.2794 16.6668 11.2539 19.759 11.2286 22.8514L11.7286 22.8555M11.3255 11.3051L11.8068 13.422C11.7803 16.5664 11.7543 19.7108 11.7286 22.8555M11.7286 22.8555C11.7286 22.8602 11.7285 22.8649 11.7284 22.8696C11.7275 22.9437 11.7266 23.0189 11.7373 23.0919L11.2425 23.1639M11.7286 22.8555L11.2286 22.8496C11.2286 22.8551 11.2285 22.861 11.2284 22.8673C11.2274 22.9363 11.2258 23.0495 11.2425 23.1639M11.2425 23.1639C11.3563 23.9471 12.1969 24.3693 12.8934 23.9998M11.2425 23.1639L12.8934 23.9998M11.3182 13.0747C9.2831 13.0575 7.24817 13.0405 5.21324 13.0236C4.14133 13.0146 3.06942 13.0057 1.99748 12.9967C1.63231 12.9936 1.41134 12.8576 1.30298 12.5837C1.22562 12.3875 1.27978 12.2048 1.33984 12.0202L11.3182 13.0747ZM11.3182 13.0747C11.3176 13.0853 11.3169 13.0966 11.3161 13.1084C11.3126 13.1638 11.3084 13.2301 11.3079 13.2886L11.3182 13.0747ZM12.8934 23.9998C12.8933 23.9999 12.8931 23.9999 12.893 24L12.6591 23.5581L12.8934 23.9998ZM12.8934 23.9998C13.1207 23.8794 13.2837 23.7044 13.3823 23.4908C13.4755 23.289 13.4988 23.0798 13.5003 22.9016L13.5003 22.9013C13.5238 19.7985 13.5496 16.6954 13.5755 13.5922M12.8934 23.9998L13.0757 13.5645C13.078 13.565 13.0804 13.5656 13.0829 13.5661C13.1244 13.5749 13.1948 13.5888 13.2771 13.5895C13.3766 13.5904 13.476 13.5913 13.5755 13.5922M13.5755 13.5922C16.3093 13.6166 19.043 13.6395 21.7764 13.6623C22.1311 13.6653 22.4857 13.6683 22.8403 13.6712C22.8476 13.6713 22.8562 13.6714 22.8658 13.6716C22.9161 13.6723 22.9959 13.6736 23.0719 13.6678L13.5755 13.5922ZM13.099 1.56393L13.5956 1.50584L13.5757 1.33556L13.4555 1.21333L13.455 1.21289L13.4546 1.21245L13.4542 1.21201L13.4537 1.21157L13.4533 1.21113L13.4529 1.21069L13.4524 1.21024L13.452 1.2098L13.4516 1.20936L13.4511 1.20892L13.4507 1.20848L13.4503 1.20804L13.4498 1.2076L13.4494 1.20716L13.449 1.20672L13.4485 1.20628L13.4481 1.20584L13.4477 1.2054L13.4472 1.20496L13.4468 1.20452L13.4464 1.20408L13.4459 1.20364L13.4455 1.2032L13.4451 1.20276L13.4446 1.20232L13.4442 1.20188L13.4438 1.20144L13.4434 1.201L13.4429 1.20056L13.4425 1.20012L13.4421 1.19968L13.4416 1.19924L13.4412 1.1988L13.4408 1.19836L13.4403 1.19792L13.4399 1.19748L13.4395 1.19704L13.439 1.1966L13.4386 1.19616L13.4382 1.19572L13.4377 1.19528L13.4373 1.19484L13.4369 1.1944L13.4364 1.19396L13.436 1.19352L13.4356 1.19308L13.4351 1.19264L13.4347 1.1922L13.4343 1.19176L13.4338 1.19132L13.4334 1.19088L13.433 1.19044L13.4325 1.19L13.4321 1.18956L13.4317 1.18912L13.4312 1.18868L13.4308 1.18824L13.4304 1.1878L13.4299 1.18736L13.4295 1.18692L13.4291 1.18648L13.4286 1.18604L13.4282 1.1856L13.4278 1.18516L13.4273 1.18472L13.4269 1.18428L13.4265 1.18384L13.426 1.1834L13.4256 1.18296L13.4252 1.18252L13.4247 1.18208L13.4243 1.18164L13.4239 1.1812L13.4234 1.18076L13.423 1.18032L13.4226 1.17988L13.4221 1.17944L13.4217 1.179L13.4213 1.17856L13.4208 1.17812L13.4204 1.17768L13.42 1.17724L13.4195 1.1768L13.4191 1.17635L13.4187 1.17591L13.4182 1.17547L13.4178 1.17503L13.4174 1.17459L13.4169 1.17415L13.4165 1.17371L13.4161 1.17327L13.4156 1.17283L13.4152 1.17239L13.4148 1.17195L13.4143 1.17151L13.4139 1.17107L13.4135 1.17063L13.413 1.17019L13.4126 1.16975L13.4122 1.16931L13.4118 1.16887L13.4113 1.16843L13.4109 1.16799L13.4105 1.16755L13.41 1.16711L13.4096 1.16667L13.4092 1.16623L13.4087 1.16579L13.4083 1.16535L13.4079 1.16491L13.4074 1.16447L13.407 1.16403L13.4066 1.16359L13.4061 1.16315L13.4057 1.16271L13.4053 1.16227L13.4048 1.16183L13.4044 1.16139L13.404 1.16095L13.4035 1.16051L13.4031 1.16007L13.4027 1.15963L13.4022 1.15919L13.4018 1.15875L13.4014 1.15831L13.4009 1.15787L13.4005 1.15743L13.4001 1.15699L13.3996 1.15655L13.3992 1.15611L13.3988 1.15567L13.3983 1.15523L13.3979 1.15479L13.3975 1.15435L13.397 1.15391L13.3966 1.15347L13.3962 1.15303L13.3957 1.15259L13.3953 1.15215L13.3949 1.15171L13.3944 1.15127L13.394 1.15083L13.3936 1.15039L13.3931 1.14995L13.3927 1.14951L13.3923 1.14907L13.3918 1.14863L13.3914 1.14819L13.391 1.14775L13.3905 1.14731L13.3901 1.14687L13.3897 1.14643L13.3892 1.14599L13.3888 1.14555L13.3884 1.14511L13.3879 1.14467L13.3875 1.14423L13.3871 1.14379L13.3866 1.14335L13.3862 1.14291L13.3858 1.14246L13.3853 1.14202L13.3849 1.14158L13.3845 1.14114L13.384 1.1407L13.3836 1.14026L13.3832 1.13982L13.3827 1.13938L13.3823 1.13894L13.3819 1.1385L13.3815 1.13806L13.381 1.13762L13.3806 1.13718L13.3802 1.13674L13.3797 1.1363L13.3793 1.13586L13.3789 1.13542L13.3784 1.13498L13.378 1.13454L13.3776 1.1341L13.3771 1.13366L13.3767 1.13322L13.3763 1.13278L13.3758 1.13234L13.3754 1.1319L13.375 1.13146L13.3745 1.13102L13.3741 1.13058L13.3737 1.13014L13.3732 1.1297L13.3728 1.12926L13.3724 1.12882L13.3719 1.12838L13.3715 1.12794L13.3711 1.1275L13.3706 1.12706L13.3702 1.12662L13.3698 1.12618L13.3693 1.12574L13.3689 1.1253L13.3685 1.12486L13.368 1.12442L13.3676 1.12398L13.3672 1.12354L13.3667 1.1231L13.3663 1.12266L13.3659 1.12222L13.3654 1.12178L13.365 1.12134L13.3646 1.1209L13.3641 1.12046L13.3637 1.12002L13.3633 1.11958L13.3628 1.11914L13.3624 1.1187L13.362 1.11826L13.3615 1.11782L13.3611 1.11738L13.3607 1.11694L13.3602 1.1165L13.3598 1.11606L13.3594 1.11562L13.3589 1.11518L13.3585 1.11474L13.3581 1.1143L13.3576 1.11386L13.3572 1.11342L13.3568 1.11298L13.3563 1.11254L13.3559 1.1121L13.3555 1.11166L13.355 1.11122L13.3546 1.11078L13.3542 1.11034L13.3537 1.1099L13.3533 1.10946L13.3529 1.10902L13.3524 1.10857L13.352 1.10813L13.3516 1.10769L13.3511 1.10725L13.3507 1.10681L13.3503 1.10637L13.3499 1.10593L13.3494 1.10549L13.349 1.10505L13.3486 1.10461L13.3481 1.10417L13.3477 1.10373L13.099 1.56393ZM12.8774 1.33858L13.2338 0.987979L13.1641 0.917087L13.0726 0.878264C12.7275 0.73192 12.3664 0.728889 12.0189 0.869447L11.9267 0.906742L11.8558 0.97648L11.8553 0.976912L11.8549 0.977345L11.8545 0.977778L11.854 0.978211L11.8536 0.978644L11.8531 0.979077L11.8527 0.979509L11.8523 0.979942L11.8518 0.980375L11.8514 0.980808L11.8509 0.981241L11.8505 0.981673L11.8501 0.982106L11.8496 0.982539L11.8492 0.982972L11.8487 0.983405L11.8483 0.983838L11.8479 0.98427L11.8474 0.984703L11.847 0.985136L11.8465 0.985569L11.8461 0.986002L11.8457 0.986434L11.8452 0.986867L11.8448 0.9873L11.8443 0.987733L11.8439 0.988166L11.8435 0.988599L11.843 0.989031L11.8426 0.989464L11.8421 0.989897L11.8417 0.99033L11.8413 0.990763L11.8408 0.991196L11.8404 0.991628L11.8399 0.992061L11.8395 0.992494L11.8391 0.992927L11.8386 0.99336L11.8382 0.993792L11.8377 0.994225L11.8373 0.994658L11.8369 0.995091L11.8364 0.995524L11.836 0.995957L11.8355 0.996389L11.8351 0.996822L11.8347 0.997255L11.8342 0.997688L11.8338 0.998121L11.8333 0.998553L11.8329 0.998986L11.8325 0.999419L11.832 0.999852L11.8316 1.00028L11.8311 1.00072L11.8307 1.00115L11.8302 1.00158L11.8298 1.00202L11.8294 1.00245L11.8289 1.00288L11.8285 1.00331L11.828 1.00375L11.8276 1.00418L11.8272 1.00461L11.8267 1.00505L11.8263 1.00548L11.8258 1.00591L11.8254 1.00634L11.825 1.00678L11.8245 1.00721L11.8241 1.00764L11.8236 1.00808L11.8232 1.00851L11.8228 1.00894L11.8223 1.00937L11.8219 1.00981L11.8214 1.01024L11.821 1.01067L11.8206 1.01111L11.8201 1.01154L11.8197 1.01197L11.8192 1.0124L11.8188 1.01284L11.8184 1.01327L11.8179 1.0137L11.8175 1.01413L11.817 1.01457L11.8166 1.015L11.8162 1.01543L11.8157 1.01587L11.8153 1.0163L11.8148 1.01673L11.8144 1.01716L11.814 1.0176L11.8135 1.01803L11.8131 1.01846L11.8126 1.0189L11.8122 1.01933L11.8118 1.01976L11.8113 1.02019L11.8109 1.02063L11.8104 1.02106L11.81 1.02149L11.8096 1.02193L11.8091 1.02236L11.8087 1.02279L11.8082 1.02322L11.8078 1.02366L11.8074 1.02409L11.8069 1.02452L11.8065 1.02496L11.806 1.02539L11.8056 1.02582L11.8052 1.02625L11.8047 1.02669L11.8043 1.02712L11.8038 1.02755L11.8034 1.02799L11.803 1.02842L11.8025 1.02885L11.8021 1.02928L11.8016 1.02972L11.8012 1.03015L11.8008 1.03058L11.8003 1.03101L11.7999 1.03145L11.7994 1.03188L11.799 1.03231L11.7986 1.03275L11.7981 1.03318L11.7977 1.03361L11.7972 1.03404L11.7968 1.03448L11.7964 1.03491L11.7959 1.03534L11.7955 1.03578L11.795 1.03621L11.7946 1.03664L11.7942 1.03707L11.7937 1.03751L11.7933 1.03794L11.7928 1.03837L11.7924 1.03881L11.792 1.03924L11.7915 1.03967L11.7911 1.0401L11.7906 1.04054L11.7902 1.04097L11.7898 1.0414L11.7893 1.04184L11.7889 1.04227L11.7884 1.0427L11.788 1.04313L11.7876 1.04357L11.7871 1.044L11.7867 1.04443L11.7862 1.04487L11.7858 1.0453L11.7854 1.04573L11.7849 1.04616L11.7845 1.0466L11.784 1.04703L11.7836 1.04746L11.7832 1.04789L11.7827 1.04833L11.7823 1.04876L11.7818 1.04919L11.7814 1.04963L11.781 1.05006L11.7805 1.05049L11.7801 1.05092L11.7796 1.05136L11.7792 1.05179L11.7788 1.05222L11.7783 1.05266L11.7779 1.05309L11.7774 1.05352L11.777 1.05395L11.7766 1.05439L11.7761 1.05482L11.7757 1.05525L11.7752 1.05569L11.7748 1.05612L11.7744 1.05655L11.7739 1.05698L11.7735 1.05742L11.773 1.05785L11.7726 1.05828L11.7722 1.05872L11.7717 1.05915L11.7713 1.05958L11.7708 1.06001L11.7704 1.06045L11.77 1.06088L11.7695 1.06131L11.7691 1.06175L11.7686 1.06218L11.7682 1.06261L11.7678 1.06304L11.7673 1.06348L11.7669 1.06391L11.7664 1.06434L11.766 1.06477L11.7656 1.06521L11.7651 1.06564L11.7647 1.06607L11.7642 1.06651L11.7638 1.06694L11.7634 1.06737L11.7629 1.0678L11.7625 1.06824L11.762 1.06867L11.7616 1.0691L11.7612 1.06954L11.7607 1.06997L11.7603 1.0704L11.7598 1.07083L11.7594 1.07127L11.759 1.0717L11.7585 1.07213L11.7581 1.07257L11.7576 1.073L11.7572 1.07343L11.7568 1.07386L11.7563 1.0743L11.7559 1.07473L11.7554 1.07516L11.755 1.0756L11.7546 1.07603L11.7541 1.07646L11.7537 1.07689L11.7532 1.07733L11.7528 1.07776L11.7524 1.07819L11.7519 1.07863L11.7515 1.07906L11.751 1.07949L11.7506 1.07992L11.7502 1.08036L11.7497 1.08079L11.7493 1.08122L11.7488 1.08165L11.7484 1.08209L11.748 1.08252L11.7475 1.08295L11.7471 1.08339L11.7466 1.08382L11.7462 1.08425L11.7458 1.08468L11.7453 1.08512L11.7449 1.08555L11.7444 1.08598L11.744 1.08642L11.7436 1.08685L11.7431 1.08728L11.7427 1.08771L11.7422 1.08815L11.7418 1.08858L11.7414 1.08901L11.7409 1.08945L11.7405 1.08988L11.74 1.09031L11.7396 1.09074L11.7392 1.09118L11.7387 1.09161L11.7383 1.09204L11.7378 1.09248L11.7374 1.09291L11.737 1.09334L11.7365 1.09377L11.7361 1.09421L11.7356 1.09464L11.7352 1.09507L11.7348 1.09551L11.7343 1.09594L11.7339 1.09637L11.7334 1.0968L11.733 1.09724L11.7326 1.09767L11.7321 1.0981L11.7317 1.09853L11.7312 1.09897L11.7308 1.0994L11.7304 1.09983L11.7299 1.10027L11.7295 1.1007L11.729 1.10113L11.7286 1.10156L11.7282 1.102L11.7277 1.10243L11.7273 1.10286L11.7268 1.1033L11.7264 1.10373L11.726 1.10416L11.7255 1.10459L11.7251 1.10503L11.7246 1.10546L11.7242 1.10589L11.7238 1.10633L11.7233 1.10676L11.7229 1.10719L11.7224 1.10762L11.722 1.10806L11.7215 1.10849L11.7211 1.10892L11.7207 1.10936L11.7202 1.10979L11.7198 1.11022L11.7193 1.11065L11.7189 1.11109L11.7185 1.11152L11.718 1.11195L11.7176 1.11239L11.7171 1.11282L11.7167 1.11325L11.7163 1.11368L11.7158 1.11412L11.7154 1.11455L11.7149 1.11498L11.7145 1.11541L11.7141 1.11585L11.7136 1.11628L11.7132 1.11671L11.7127 1.11715L11.7123 1.11758L11.7119 1.11801L11.7114 1.11844L11.711 1.11888L11.7105 1.11931L11.7101 1.11974L11.7097 1.12018L11.7092 1.12061L11.7088 1.12104L11.7083 1.12147L11.7079 1.12191L11.7075 1.12234L11.707 1.12277L11.7066 1.12321L11.7061 1.12364L11.7057 1.12407L11.7053 1.1245L11.7048 1.12494L11.7044 1.12537L11.7039 1.1258L11.7035 1.12624L11.7031 1.12667L11.7026 1.1271L11.7022 1.12753L11.7017 1.12797L11.7013 1.1284L11.7009 1.12883L11.7004 1.12927L11.7 1.1297L11.6995 1.13013L11.6991 1.13056L11.6987 1.131L11.6982 1.13143L11.6978 1.13186L11.6973 1.13229L11.6969 1.13273L11.6965 1.13316L11.696 1.13359L11.6956 1.13403L11.6951 1.13446L11.6947 1.13489L11.6943 1.13532L11.6938 1.13576L11.6934 1.13619L11.6929 1.13662L11.6925 1.13706L11.6921 1.13749L11.6916 1.13792L11.6912 1.13835L11.6907 1.13879L11.6903 1.13922L11.6899 1.13965L11.6894 1.14009L11.689 1.14052L11.6885 1.14095L11.6881 1.14138L11.6877 1.14182L11.6872 1.14225L11.6868 1.14268L11.6863 1.14312L11.6859 1.14355L11.6855 1.14398L11.685 1.14441L11.6846 1.14485L11.6841 1.14528L11.6837 1.14571L11.6833 1.14615L11.6828 1.14658L11.6824 1.14701L11.6819 1.14744L11.6815 1.14788L11.6811 1.14831L11.6806 1.14874L11.6802 1.14917L11.6797 1.14961L11.6793 1.15004L11.6789 1.15047L11.6784 1.15091L11.678 1.15134L11.6775 1.15177L11.6771 1.1522L11.6767 1.15264L11.6762 1.15307L11.6758 1.1535L11.6753 1.15394L11.6749 1.15437L11.6745 1.1548L11.674 1.15523L11.6736 1.15567L11.6731 1.1561L11.6727 1.15653L11.6723 1.15697L11.6718 1.1574L11.6714 1.15783L11.6709 1.15826L11.6705 1.1587L11.6701 1.15913L11.6696 1.15956L11.6692 1.16L11.6687 1.16043L11.6683 1.16086L11.6679 1.16129L11.6674 1.16173L11.667 1.16216L11.6665 1.16259L11.6661 1.16303L11.6657 1.16346L11.6652 1.16389L11.6648 1.16432L11.6643 1.16476L11.6639 1.16519L11.6635 1.16562L11.663 1.16605L11.6626 1.16649L11.6621 1.16692L11.6617 1.16735L11.6613 1.16779L11.6608 1.16822L11.6604 1.16865L11.6599 1.16908L11.6595 1.16952L11.6591 1.16995L11.6586 1.17038L11.6582 1.17082L11.6577 1.17125L11.6573 1.17168L11.6569 1.17211L11.6564 1.17255L11.656 1.17298L11.6555 1.17341L11.6551 1.17385L11.6547 1.17428L11.6542 1.17471L11.6538 1.17514L11.6533 1.17558L11.6529 1.17601L11.6525 1.17644L11.652 1.17688L11.6516 1.17731L11.6511 1.17774L11.6507 1.17817L11.6503 1.17861L11.6498 1.17904L11.6494 1.17947L11.6489 1.17991L11.6485 1.18034L11.6481 1.18077L11.6476 1.1812L11.6472 1.18164L11.6467 1.18207L11.6463 1.1825L11.6459 1.18293L11.6454 1.18337L11.645 1.1838L11.6445 1.18423L11.6441 1.18467L11.6437 1.1851L11.6432 1.18553L11.6428 1.18596L11.6423 1.1864L11.6419 1.18683L11.6415 1.18726L11.641 1.1877L11.6406 1.18813L11.6401 1.18856L11.6397 1.18899L11.6393 1.18943L11.6388 1.18986L11.6384 1.19029L11.6379 1.19073L11.6375 1.19116L11.6371 1.19159L11.6366 1.19202L11.6362 1.19246L11.6357 1.19289L11.6353 1.19332L11.6349 1.19376L11.6344 1.19419L11.634 1.19462L11.6335 1.19505L11.6331 1.19549L11.6327 1.19592L11.6322 1.19635L11.6318 1.19679L11.6313 1.19722L11.6309 1.19765L11.6305 1.19808L11.5082 1.31832L11.4855 1.48828C11.4809 1.52213 11.4736 1.56647 11.465 1.61777C11.4398 1.76972 11.4044 1.98276 11.4026 2.16516L12.8774 1.33858Z" fill="black" fill-opacity="0.2"/>
<path d="M24.0133 11.9482L24.0477 12.0737C24.0514 12.0871 24.0545 12.0995 24.0569 12.1088L24.0626 12.1312C24.064 12.1365 24.0648 12.1394 24.0651 12.1406C24.3229 12.8672 23.8443 13.6092 23.072 13.6678L24.0133 11.9482ZM24.0133 11.9482L23.922 11.8554M24.0133 11.9482L23.922 11.8554M23.922 11.8554L23.5655 12.206M23.922 11.8554L23.5655 12.206M23.5655 12.206C23.4917 12.1309 23.4178 12.0558 23.3442 11.9804M23.5655 12.206L22.7287 11.9019C22.8686 11.9033 23.0085 11.9266 23.1483 11.95C23.2136 11.9609 23.2789 11.9718 23.3442 11.9804M23.3442 11.9804L23.702 11.6312L23.5813 11.5075L23.4099 11.4848L23.3442 11.9804ZM11.3255 11.3051C11.3488 8.25893 11.3728 5.21185 11.4026 2.16524L11.3255 11.3051ZM11.3255 11.3051C8.27938 11.2777 5.23258 11.2513 2.18537 11.2304C2.00393 11.2291 1.78965 11.2611 1.63762 11.2837C1.58585 11.2914 1.5413 11.298 1.50772 11.3019L1.33705 11.3217L1.21456 11.4421L1.21412 11.4426L1.21368 11.443L1.21324 11.4434L1.2128 11.4439L1.21236 11.4443L1.21192 11.4447L1.21148 11.4452L1.21104 11.4456L1.2106 11.446L1.21016 11.4465L1.20972 11.4469L1.20928 11.4473L1.20884 11.4478L1.2084 11.4482L1.20796 11.4486L1.20752 11.4491L1.20708 11.4495L1.20664 11.4499L1.2062 11.4504L1.20576 11.4508L1.20532 11.4512L1.20488 11.4517L1.20444 11.4521L1.204 11.4525L1.20356 11.453L1.20312 11.4534L1.20268 11.4538L1.20224 11.4543L1.2018 11.4547L1.20136 11.4551L1.20092 11.4555L1.20048 11.456L1.20004 11.4564L1.1996 11.4568L1.19916 11.4573L1.19872 11.4577L1.19828 11.4581L1.19784 11.4586L1.1974 11.459L1.19696 11.4594L1.19652 11.4599L1.19608 11.4603L1.19564 11.4607L1.1952 11.4612L1.19476 11.4616L1.19432 11.462L1.19388 11.4625L1.19344 11.4629L1.193 11.4633L1.19256 11.4638L1.19212 11.4642L1.19168 11.4646L1.19124 11.4651L1.1908 11.4655L1.19036 11.4659L1.18992 11.4664L1.18948 11.4668L1.18904 11.4672L1.1886 11.4677L1.18816 11.4681L1.18772 11.4685L1.18728 11.469L1.18684 11.4694L1.1864 11.4698L1.18596 11.4703L1.18552 11.4707L1.18508 11.4711L1.18464 11.4716L1.1842 11.472L1.18376 11.4724L1.18332 11.4729L1.18288 11.4733L1.18244 11.4737L1.182 11.4742L1.18156 11.4746L1.18112 11.475L1.18068 11.4755L1.18024 11.4759L1.1798 11.4763L1.17936 11.4768L1.17892 11.4772L1.17848 11.4776L1.17804 11.4781L1.17759 11.4785L1.17715 11.4789L1.17671 11.4794L1.17627 11.4798L1.17583 11.4802L1.17539 11.4807L1.17495 11.4811L1.17451 11.4815L1.17407 11.482L1.17363 11.4824L1.17319 11.4828L1.17275 11.4833L1.17231 11.4837L1.17187 11.4841L1.17143 11.4845L1.17099 11.485L1.17055 11.4854L1.17011 11.4858L1.16967 11.4863L1.16923 11.4867L1.16879 11.4871L1.16835 11.4876L1.16791 11.488L1.16747 11.4884L1.16703 11.4889L1.16659 11.4893L1.16615 11.4897L1.16571 11.4902L1.16527 11.4906L1.16483 11.491L1.16439 11.4915L1.16395 11.4919L1.16351 11.4923L1.16307 11.4928L1.16263 11.4932L1.16219 11.4936L1.16175 11.4941L1.16131 11.4945L1.16087 11.4949L1.16043 11.4954L1.15999 11.4958L1.15955 11.4962L1.15911 11.4967L1.15867 11.4971L1.15823 11.4975L1.15779 11.498L1.15735 11.4984L1.15691 11.4988L1.15647 11.4993L1.15603 11.4997L1.15559 11.5001L1.15515 11.5006L1.15471 11.501L1.15427 11.5014L1.15383 11.5019L1.15339 11.5023L1.15295 11.5027L1.15251 11.5032L1.15207 11.5036L1.15163 11.504L1.15119 11.5045L1.15075 11.5049L1.15031 11.5053L1.14987 11.5058L1.14943 11.5062L1.14899 11.5066L1.14855 11.5071L1.14811 11.5075L1.14767 11.5079L1.14723 11.5084L1.14679 11.5088L1.14635 11.5092L1.14591 11.5097L1.14547 11.5101L1.14503 11.5105L1.14459 11.511L1.14415 11.5114L1.14371 11.5118L1.14327 11.5122L1.14283 11.5127L1.14239 11.5131L1.14195 11.5135L1.14151 11.514L1.14107 11.5144L1.14063 11.5148L1.14019 11.5153L1.13975 11.5157L1.13931 11.5161L1.13887 11.5166L1.13843 11.517L1.13799 11.5174L1.13755 11.5179L1.13711 11.5183L1.13667 11.5187L1.13623 11.5192L1.13579 11.5196L1.13535 11.52L1.13491 11.5205L1.13447 11.5209L1.13403 11.5213L1.13359 11.5218L1.13315 11.5222L1.13271 11.5226L1.13227 11.5231L1.13183 11.5235L1.13139 11.5239L1.13095 11.5244L1.13051 11.5248L1.13007 11.5252L1.12963 11.5257L1.12919 11.5261L1.12875 11.5265L1.12831 11.527L1.12787 11.5274L1.12743 11.5278L1.12699 11.5283L1.12655 11.5287L1.12611 11.5291L1.12567 11.5296L1.12523 11.53L1.12479 11.5304L1.12435 11.5309L1.12391 11.5313L1.12347 11.5317L1.12303 11.5322L1.12259 11.5326L1.12214 11.533L1.1217 11.5335L1.12126 11.5339L1.12082 11.5343L1.12038 11.5348L1.11994 11.5352L1.1195 11.5356L1.11906 11.5361L1.11862 11.5365L1.11818 11.5369L1.11774 11.5374L1.1173 11.5378L1.11686 11.5382L1.11642 11.5387L1.11598 11.5391L1.11554 11.5395L1.1151 11.5399L1.11466 11.5404L1.11422 11.5408L1.11378 11.5412L1.11334 11.5417L1.1129 11.5421L1.11246 11.5425L1.11202 11.543L1.11158 11.5434L1.11114 11.5438L1.1107 11.5443L1.11026 11.5447L1.10982 11.5451L1.10938 11.5456L1.10894 11.546L1.1085 11.5464L1.10806 11.5469L1.10762 11.5473L1.10718 11.5477L1.10674 11.5482L1.1063 11.5486L1.10586 11.549L1.10542 11.5495L1.10498 11.5499L1.10454 11.5503L1.1041 11.5508L1.10366 11.5512L1.10322 11.5516L1.10278 11.5521L1.10234 11.5525L1.1019 11.5529L1.10146 11.5534L1.10102 11.5538L1.10058 11.5542L1.10014 11.5547L1.0997 11.5551L1.09926 11.5555L1.09882 11.556L1.09838 11.5564L1.09794 11.5568L1.0975 11.5573L1.09706 11.5577L1.09662 11.5581L1.09618 11.5586L1.09574 11.559L1.0953 11.5594L1.09486 11.5599L1.09442 11.5603L1.09398 11.5607L1.09354 11.5612L1.0931 11.5616L1.09266 11.562L1.09222 11.5625L1.09178 11.5629L1.09134 11.5633L1.0909 11.5638L1.09046 11.5642L1.09002 11.5646L1.08958 11.5651L1.08914 11.5655L1.0887 11.5659L1.08826 11.5664L1.08782 11.5668L1.08738 11.5672L1.08694 11.5677L1.0865 11.5681L1.08606 11.5685L1.08562 11.5689L1.08518 11.5694L1.08474 11.5698L1.0843 11.5702L1.08386 11.5707L1.08342 11.5711L1.08298 11.5715L1.08254 11.572L1.0821 11.5724L1.08166 11.5728L1.08122 11.5733L1.08078 11.5737L1.08034 11.5741L1.0799 11.5746L1.07946 11.575L1.07902 11.5754L1.07858 11.5759L1.07814 11.5763L1.0777 11.5767L1.07726 11.5772L1.07682 11.5776L1.07638 11.578L1.07594 11.5785L1.0755 11.5789L1.07506 11.5793L1.07462 11.5798L1.07418 11.5802L1.07374 11.5806L1.0733 11.5811L1.07286 11.5815L1.07242 11.5819L1.07198 11.5824L1.07154 11.5828L1.0711 11.5832L1.07066 11.5837L1.07022 11.5841L1.06978 11.5845L1.06934 11.585L1.0689 11.5854L1.06845 11.5858L1.06802 11.5863L1.06758 11.5867L1.06714 11.5871L1.0667 11.5876L1.06625 11.588L1.06581 11.5884L1.06537 11.5889L1.06493 11.5893L1.06449 11.5897L1.06405 11.5902L1.06361 11.5906L1.06317 11.591L1.06273 11.5915L1.06229 11.5919L1.06185 11.5923L1.06141 11.5928L1.06097 11.5932L1.06053 11.5936L1.06009 11.5941L1.05965 11.5945L1.05921 11.5949L1.05877 11.5954L1.05833 11.5958L1.05789 11.5962L1.05745 11.5966L1.05701 11.5971L1.05657 11.5975L1.05613 11.5979L1.05569 11.5984L1.05525 11.5988L1.05481 11.5992L1.05437 11.5997L1.05393 11.6001L1.05349 11.6005L1.05305 11.601L1.05261 11.6014L1.05217 11.6018L1.05173 11.6023L1.05129 11.6027L1.05085 11.6031L1.05041 11.6036L1.04997 11.604L1.04953 11.6044L1.04909 11.6049L1.04865 11.6053L1.04821 11.6057L1.04777 11.6062L1.04733 11.6066L1.04689 11.607L1.04645 11.6075L1.04601 11.6079L1.04557 11.6083L1.04513 11.6088L1.04469 11.6092L1.04425 11.6096L1.04381 11.6101L1.04337 11.6105L1.04293 11.6109L1.04249 11.6114L1.04205 11.6118L1.04161 11.6122L1.04117 11.6127L1.04073 11.6131L1.04029 11.6135L1.03985 11.614L1.03941 11.6144L1.03897 11.6148L1.03853 11.6153L1.03809 11.6157L1.03765 11.6161L1.03721 11.6166L1.03677 11.617L1.03633 11.6174L1.03589 11.6179L1.03545 11.6183L1.03501 11.6187L1.03457 11.6192L1.03413 11.6196L1.03369 11.62L1.03325 11.6205L1.03281 11.6209L1.03237 11.6213L1.03193 11.6218L1.03149 11.6222L1.03105 11.6226L1.03061 11.6231L1.03017 11.6235L1.02973 11.6239L1.02929 11.6243L1.02885 11.6248L1.02841 11.6252L1.02797 11.6256L1.02753 11.6261L1.02709 11.6265L1.02665 11.6269L1.02621 11.6274L1.02577 11.6278L1.02533 11.6282L1.02489 11.6287L1.02445 11.6291L1.02401 11.6295L1.02357 11.63L1.02313 11.6304L1.02269 11.6308L1.02225 11.6313L1.02181 11.6317L1.02137 11.6321L1.02093 11.6326L1.02049 11.633L1.02005 11.6334L1.01961 11.6339L1.01917 11.6343L1.01873 11.6347L1.01829 11.6352L1.01785 11.6356L1.01741 11.636L1.01697 11.6365L1.01653 11.6369L1.01609 11.6373L1.01565 11.6378L1.01521 11.6382L1.01477 11.6386L1.01433 11.6391L1.01389 11.6395L1.01345 11.6399L1.013 11.6404L1.01256 11.6408L1.01213 11.6412L1.01169 11.6417L1.01125 11.6421L1.0108 11.6425L1.01036 11.643L1.00992 11.6434L1.00948 11.6438L1.00904 11.6443L1.0086 11.6447L1.00816 11.6451L1.00772 11.6456L1.00728 11.646L1.00684 11.6464L1.0064 11.6469L1.00596 11.6473L1.00552 11.6477L1.00508 11.6482L1.00464 11.6486L1.0042 11.649L1.00376 11.6495L1.00332 11.6499L1.00288 11.6503L1.00244 11.6508L1.002 11.6512L1.00156 11.6516L1.00112 11.652L1.00068 11.6525L1.00024 11.6529L0.999803 11.6533L0.999363 11.6538L0.998923 11.6542L0.998483 11.6546L0.998042 11.6551L0.997602 11.6555L0.997162 11.6559L0.996723 11.6564L0.996282 11.6568L0.995842 11.6572L0.995402 11.6577L0.994962 11.6581L0.994522 11.6585L0.994082 11.659L0.993642 11.6594L0.993202 11.6598L0.992761 11.6603L0.992321 11.6607L0.991881 11.6611L0.991441 11.6616L0.991002 11.662L0.990561 11.6624L0.990121 11.6629L0.989681 11.6633L0.989241 11.6637L0.902154 11.7494L0.864368 11.8655C0.862745 11.8705 0.861066 11.8757 0.859339 11.881C0.801721 12.0573 0.691238 12.3954 0.83785 12.7671L0.838026 12.7676C0.926834 12.9921 1.07529 13.1878 1.29677 13.3206C1.51056 13.4488 1.75268 13.4947 1.9933 13.4967C3.06268 13.5056 4.13201 13.5146 5.20133 13.5235C7.236 13.5405 9.27063 13.5574 11.3055 13.5746C11.2794 16.6668 11.2539 19.759 11.2286 22.8514L11.7286 22.8555M11.3255 11.3051L11.8068 13.422C11.7803 16.5664 11.7543 19.7108 11.7286 22.8555M11.7286 22.8555C11.7286 22.8602 11.7285 22.8649 11.7284 22.8696C11.7275 22.9437 11.7266 23.0189 11.7373 23.0919L11.2425 23.1639M11.7286 22.8555L11.2286 22.8496C11.2286 22.8551 11.2285 22.861 11.2284 22.8673C11.2274 22.9363 11.2258 23.0495 11.2425 23.1639M11.2425 23.1639C11.3563 23.9471 12.1969 24.3693 12.8934 23.9998M11.2425 23.1639L12.8934 23.9998M11.3182 13.0747C9.2831 13.0575 7.24817 13.0405 5.21324 13.0236C4.14133 13.0146 3.06942 13.0057 1.99748 12.9967C1.63231 12.9936 1.41134 12.8576 1.30298 12.5837C1.22562 12.3875 1.27978 12.2048 1.33984 12.0202L11.3182 13.0747ZM11.3182 13.0747C11.3176 13.0853 11.3169 13.0966 11.3161 13.1084C11.3126 13.1638 11.3084 13.2301 11.3079 13.2886L11.3182 13.0747ZM12.8934 23.9998C12.8933 23.9999 12.8931 23.9999 12.893 24L12.6591 23.5581L12.8934 23.9998ZM12.8934 23.9998C13.1207 23.8794 13.2837 23.7044 13.3823 23.4908C13.4755 23.289 13.4988 23.0798 13.5003 22.9016L13.5003 22.9013C13.5238 19.7985 13.5496 16.6954 13.5755 13.5922M12.8934 23.9998L13.0757 13.5645C13.078 13.565 13.0804 13.5656 13.0829 13.5661C13.1244 13.5749 13.1948 13.5888 13.2771 13.5895C13.3766 13.5904 13.476 13.5913 13.5755 13.5922M13.5755 13.5922C16.3093 13.6166 19.043 13.6395 21.7764 13.6623C22.1311 13.6653 22.4857 13.6683 22.8403 13.6712C22.8476 13.6713 22.8562 13.6714 22.8658 13.6716C22.9161 13.6723 22.9959 13.6736 23.0719 13.6678L13.5755 13.5922ZM13.099 1.56393L13.5956 1.50584L13.5757 1.33556L13.4555 1.21333L13.455 1.21289L13.4546 1.21245L13.4542 1.21201L13.4537 1.21157L13.4533 1.21113L13.4529 1.21069L13.4524 1.21024L13.452 1.2098L13.4516 1.20936L13.4511 1.20892L13.4507 1.20848L13.4503 1.20804L13.4498 1.2076L13.4494 1.20716L13.449 1.20672L13.4485 1.20628L13.4481 1.20584L13.4477 1.2054L13.4472 1.20496L13.4468 1.20452L13.4464 1.20408L13.4459 1.20364L13.4455 1.2032L13.4451 1.20276L13.4446 1.20232L13.4442 1.20188L13.4438 1.20144L13.4434 1.201L13.4429 1.20056L13.4425 1.20012L13.4421 1.19968L13.4416 1.19924L13.4412 1.1988L13.4408 1.19836L13.4403 1.19792L13.4399 1.19748L13.4395 1.19704L13.439 1.1966L13.4386 1.19616L13.4382 1.19572L13.4377 1.19528L13.4373 1.19484L13.4369 1.1944L13.4364 1.19396L13.436 1.19352L13.4356 1.19308L13.4351 1.19264L13.4347 1.1922L13.4343 1.19176L13.4338 1.19132L13.4334 1.19088L13.433 1.19044L13.4325 1.19L13.4321 1.18956L13.4317 1.18912L13.4312 1.18868L13.4308 1.18824L13.4304 1.1878L13.4299 1.18736L13.4295 1.18692L13.4291 1.18648L13.4286 1.18604L13.4282 1.1856L13.4278 1.18516L13.4273 1.18472L13.4269 1.18428L13.4265 1.18384L13.426 1.1834L13.4256 1.18296L13.4252 1.18252L13.4247 1.18208L13.4243 1.18164L13.4239 1.1812L13.4234 1.18076L13.423 1.18032L13.4226 1.17988L13.4221 1.17944L13.4217 1.179L13.4213 1.17856L13.4208 1.17812L13.4204 1.17768L13.42 1.17724L13.4195 1.1768L13.4191 1.17635L13.4187 1.17591L13.4182 1.17547L13.4178 1.17503L13.4174 1.17459L13.4169 1.17415L13.4165 1.17371L13.4161 1.17327L13.4156 1.17283L13.4152 1.17239L13.4148 1.17195L13.4143 1.17151L13.4139 1.17107L13.4135 1.17063L13.413 1.17019L13.4126 1.16975L13.4122 1.16931L13.4118 1.16887L13.4113 1.16843L13.4109 1.16799L13.4105 1.16755L13.41 1.16711L13.4096 1.16667L13.4092 1.16623L13.4087 1.16579L13.4083 1.16535L13.4079 1.16491L13.4074 1.16447L13.407 1.16403L13.4066 1.16359L13.4061 1.16315L13.4057 1.16271L13.4053 1.16227L13.4048 1.16183L13.4044 1.16139L13.404 1.16095L13.4035 1.16051L13.4031 1.16007L13.4027 1.15963L13.4022 1.15919L13.4018 1.15875L13.4014 1.15831L13.4009 1.15787L13.4005 1.15743L13.4001 1.15699L13.3996 1.15655L13.3992 1.15611L13.3988 1.15567L13.3983 1.15523L13.3979 1.15479L13.3975 1.15435L13.397 1.15391L13.3966 1.15347L13.3962 1.15303L13.3957 1.15259L13.3953 1.15215L13.3949 1.15171L13.3944 1.15127L13.394 1.15083L13.3936 1.15039L13.3931 1.14995L13.3927 1.14951L13.3923 1.14907L13.3918 1.14863L13.3914 1.14819L13.391 1.14775L13.3905 1.14731L13.3901 1.14687L13.3897 1.14643L13.3892 1.14599L13.3888 1.14555L13.3884 1.14511L13.3879 1.14467L13.3875 1.14423L13.3871 1.14379L13.3866 1.14335L13.3862 1.14291L13.3858 1.14246L13.3853 1.14202L13.3849 1.14158L13.3845 1.14114L13.384 1.1407L13.3836 1.14026L13.3832 1.13982L13.3827 1.13938L13.3823 1.13894L13.3819 1.1385L13.3815 1.13806L13.381 1.13762L13.3806 1.13718L13.3802 1.13674L13.3797 1.1363L13.3793 1.13586L13.3789 1.13542L13.3784 1.13498L13.378 1.13454L13.3776 1.1341L13.3771 1.13366L13.3767 1.13322L13.3763 1.13278L13.3758 1.13234L13.3754 1.1319L13.375 1.13146L13.3745 1.13102L13.3741 1.13058L13.3737 1.13014L13.3732 1.1297L13.3728 1.12926L13.3724 1.12882L13.3719 1.12838L13.3715 1.12794L13.3711 1.1275L13.3706 1.12706L13.3702 1.12662L13.3698 1.12618L13.3693 1.12574L13.3689 1.1253L13.3685 1.12486L13.368 1.12442L13.3676 1.12398L13.3672 1.12354L13.3667 1.1231L13.3663 1.12266L13.3659 1.12222L13.3654 1.12178L13.365 1.12134L13.3646 1.1209L13.3641 1.12046L13.3637 1.12002L13.3633 1.11958L13.3628 1.11914L13.3624 1.1187L13.362 1.11826L13.3615 1.11782L13.3611 1.11738L13.3607 1.11694L13.3602 1.1165L13.3598 1.11606L13.3594 1.11562L13.3589 1.11518L13.3585 1.11474L13.3581 1.1143L13.3576 1.11386L13.3572 1.11342L13.3568 1.11298L13.3563 1.11254L13.3559 1.1121L13.3555 1.11166L13.355 1.11122L13.3546 1.11078L13.3542 1.11034L13.3537 1.1099L13.3533 1.10946L13.3529 1.10902L13.3524 1.10857L13.352 1.10813L13.3516 1.10769L13.3511 1.10725L13.3507 1.10681L13.3503 1.10637L13.3499 1.10593L13.3494 1.10549L13.349 1.10505L13.3486 1.10461L13.3481 1.10417L13.3477 1.10373L13.099 1.56393ZM12.8774 1.33858L13.2338 0.987979L13.1641 0.917087L13.0726 0.878264C12.7275 0.73192 12.3664 0.728889 12.0189 0.869447L11.9267 0.906742L11.8558 0.97648L11.8553 0.976912L11.8549 0.977345L11.8545 0.977778L11.854 0.978211L11.8536 0.978644L11.8531 0.979077L11.8527 0.979509L11.8523 0.979942L11.8518 0.980375L11.8514 0.980808L11.8509 0.981241L11.8505 0.981673L11.8501 0.982106L11.8496 0.982539L11.8492 0.982972L11.8487 0.983405L11.8483 0.983838L11.8479 0.98427L11.8474 0.984703L11.847 0.985136L11.8465 0.985569L11.8461 0.986002L11.8457 0.986434L11.8452 0.986867L11.8448 0.9873L11.8443 0.987733L11.8439 0.988166L11.8435 0.988599L11.843 0.989031L11.8426 0.989464L11.8421 0.989897L11.8417 0.99033L11.8413 0.990763L11.8408 0.991196L11.8404 0.991628L11.8399 0.992061L11.8395 0.992494L11.8391 0.992927L11.8386 0.99336L11.8382 0.993792L11.8377 0.994225L11.8373 0.994658L11.8369 0.995091L11.8364 0.995524L11.836 0.995957L11.8355 0.996389L11.8351 0.996822L11.8347 0.997255L11.8342 0.997688L11.8338 0.998121L11.8333 0.998553L11.8329 0.998986L11.8325 0.999419L11.832 0.999852L11.8316 1.00028L11.8311 1.00072L11.8307 1.00115L11.8302 1.00158L11.8298 1.00202L11.8294 1.00245L11.8289 1.00288L11.8285 1.00331L11.828 1.00375L11.8276 1.00418L11.8272 1.00461L11.8267 1.00505L11.8263 1.00548L11.8258 1.00591L11.8254 1.00634L11.825 1.00678L11.8245 1.00721L11.8241 1.00764L11.8236 1.00808L11.8232 1.00851L11.8228 1.00894L11.8223 1.00937L11.8219 1.00981L11.8214 1.01024L11.821 1.01067L11.8206 1.01111L11.8201 1.01154L11.8197 1.01197L11.8192 1.0124L11.8188 1.01284L11.8184 1.01327L11.8179 1.0137L11.8175 1.01413L11.817 1.01457L11.8166 1.015L11.8162 1.01543L11.8157 1.01587L11.8153 1.0163L11.8148 1.01673L11.8144 1.01716L11.814 1.0176L11.8135 1.01803L11.8131 1.01846L11.8126 1.0189L11.8122 1.01933L11.8118 1.01976L11.8113 1.02019L11.8109 1.02063L11.8104 1.02106L11.81 1.02149L11.8096 1.02193L11.8091 1.02236L11.8087 1.02279L11.8082 1.02322L11.8078 1.02366L11.8074 1.02409L11.8069 1.02452L11.8065 1.02496L11.806 1.02539L11.8056 1.02582L11.8052 1.02625L11.8047 1.02669L11.8043 1.02712L11.8038 1.02755L11.8034 1.02799L11.803 1.02842L11.8025 1.02885L11.8021 1.02928L11.8016 1.02972L11.8012 1.03015L11.8008 1.03058L11.8003 1.03101L11.7999 1.03145L11.7994 1.03188L11.799 1.03231L11.7986 1.03275L11.7981 1.03318L11.7977 1.03361L11.7972 1.03404L11.7968 1.03448L11.7964 1.03491L11.7959 1.03534L11.7955 1.03578L11.795 1.03621L11.7946 1.03664L11.7942 1.03707L11.7937 1.03751L11.7933 1.03794L11.7928 1.03837L11.7924 1.03881L11.792 1.03924L11.7915 1.03967L11.7911 1.0401L11.7906 1.04054L11.7902 1.04097L11.7898 1.0414L11.7893 1.04184L11.7889 1.04227L11.7884 1.0427L11.788 1.04313L11.7876 1.04357L11.7871 1.044L11.7867 1.04443L11.7862 1.04487L11.7858 1.0453L11.7854 1.04573L11.7849 1.04616L11.7845 1.0466L11.784 1.04703L11.7836 1.04746L11.7832 1.04789L11.7827 1.04833L11.7823 1.04876L11.7818 1.04919L11.7814 1.04963L11.781 1.05006L11.7805 1.05049L11.7801 1.05092L11.7796 1.05136L11.7792 1.05179L11.7788 1.05222L11.7783 1.05266L11.7779 1.05309L11.7774 1.05352L11.777 1.05395L11.7766 1.05439L11.7761 1.05482L11.7757 1.05525L11.7752 1.05569L11.7748 1.05612L11.7744 1.05655L11.7739 1.05698L11.7735 1.05742L11.773 1.05785L11.7726 1.05828L11.7722 1.05872L11.7717 1.05915L11.7713 1.05958L11.7708 1.06001L11.7704 1.06045L11.77 1.06088L11.7695 1.06131L11.7691 1.06175L11.7686 1.06218L11.7682 1.06261L11.7678 1.06304L11.7673 1.06348L11.7669 1.06391L11.7664 1.06434L11.766 1.06477L11.7656 1.06521L11.7651 1.06564L11.7647 1.06607L11.7642 1.06651L11.7638 1.06694L11.7634 1.06737L11.7629 1.0678L11.7625 1.06824L11.762 1.06867L11.7616 1.0691L11.7612 1.06954L11.7607 1.06997L11.7603 1.0704L11.7598 1.07083L11.7594 1.07127L11.759 1.0717L11.7585 1.07213L11.7581 1.07257L11.7576 1.073L11.7572 1.07343L11.7568 1.07386L11.7563 1.0743L11.7559 1.07473L11.7554 1.07516L11.755 1.0756L11.7546 1.07603L11.7541 1.07646L11.7537 1.07689L11.7532 1.07733L11.7528 1.07776L11.7524 1.07819L11.7519 1.07863L11.7515 1.07906L11.751 1.07949L11.7506 1.07992L11.7502 1.08036L11.7497 1.08079L11.7493 1.08122L11.7488 1.08165L11.7484 1.08209L11.748 1.08252L11.7475 1.08295L11.7471 1.08339L11.7466 1.08382L11.7462 1.08425L11.7458 1.08468L11.7453 1.08512L11.7449 1.08555L11.7444 1.08598L11.744 1.08642L11.7436 1.08685L11.7431 1.08728L11.7427 1.08771L11.7422 1.08815L11.7418 1.08858L11.7414 1.08901L11.7409 1.08945L11.7405 1.08988L11.74 1.09031L11.7396 1.09074L11.7392 1.09118L11.7387 1.09161L11.7383 1.09204L11.7378 1.09248L11.7374 1.09291L11.737 1.09334L11.7365 1.09377L11.7361 1.09421L11.7356 1.09464L11.7352 1.09507L11.7348 1.09551L11.7343 1.09594L11.7339 1.09637L11.7334 1.0968L11.733 1.09724L11.7326 1.09767L11.7321 1.0981L11.7317 1.09853L11.7312 1.09897L11.7308 1.0994L11.7304 1.09983L11.7299 1.10027L11.7295 1.1007L11.729 1.10113L11.7286 1.10156L11.7282 1.102L11.7277 1.10243L11.7273 1.10286L11.7268 1.1033L11.7264 1.10373L11.726 1.10416L11.7255 1.10459L11.7251 1.10503L11.7246 1.10546L11.7242 1.10589L11.7238 1.10633L11.7233 1.10676L11.7229 1.10719L11.7224 1.10762L11.722 1.10806L11.7215 1.10849L11.7211 1.10892L11.7207 1.10936L11.7202 1.10979L11.7198 1.11022L11.7193 1.11065L11.7189 1.11109L11.7185 1.11152L11.718 1.11195L11.7176 1.11239L11.7171 1.11282L11.7167 1.11325L11.7163 1.11368L11.7158 1.11412L11.7154 1.11455L11.7149 1.11498L11.7145 1.11541L11.7141 1.11585L11.7136 1.11628L11.7132 1.11671L11.7127 1.11715L11.7123 1.11758L11.7119 1.11801L11.7114 1.11844L11.711 1.11888L11.7105 1.11931L11.7101 1.11974L11.7097 1.12018L11.7092 1.12061L11.7088 1.12104L11.7083 1.12147L11.7079 1.12191L11.7075 1.12234L11.707 1.12277L11.7066 1.12321L11.7061 1.12364L11.7057 1.12407L11.7053 1.1245L11.7048 1.12494L11.7044 1.12537L11.7039 1.1258L11.7035 1.12624L11.7031 1.12667L11.7026 1.1271L11.7022 1.12753L11.7017 1.12797L11.7013 1.1284L11.7009 1.12883L11.7004 1.12927L11.7 1.1297L11.6995 1.13013L11.6991 1.13056L11.6987 1.131L11.6982 1.13143L11.6978 1.13186L11.6973 1.13229L11.6969 1.13273L11.6965 1.13316L11.696 1.13359L11.6956 1.13403L11.6951 1.13446L11.6947 1.13489L11.6943 1.13532L11.6938 1.13576L11.6934 1.13619L11.6929 1.13662L11.6925 1.13706L11.6921 1.13749L11.6916 1.13792L11.6912 1.13835L11.6907 1.13879L11.6903 1.13922L11.6899 1.13965L11.6894 1.14009L11.689 1.14052L11.6885 1.14095L11.6881 1.14138L11.6877 1.14182L11.6872 1.14225L11.6868 1.14268L11.6863 1.14312L11.6859 1.14355L11.6855 1.14398L11.685 1.14441L11.6846 1.14485L11.6841 1.14528L11.6837 1.14571L11.6833 1.14615L11.6828 1.14658L11.6824 1.14701L11.6819 1.14744L11.6815 1.14788L11.6811 1.14831L11.6806 1.14874L11.6802 1.14917L11.6797 1.14961L11.6793 1.15004L11.6789 1.15047L11.6784 1.15091L11.678 1.15134L11.6775 1.15177L11.6771 1.1522L11.6767 1.15264L11.6762 1.15307L11.6758 1.1535L11.6753 1.15394L11.6749 1.15437L11.6745 1.1548L11.674 1.15523L11.6736 1.15567L11.6731 1.1561L11.6727 1.15653L11.6723 1.15697L11.6718 1.1574L11.6714 1.15783L11.6709 1.15826L11.6705 1.1587L11.6701 1.15913L11.6696 1.15956L11.6692 1.16L11.6687 1.16043L11.6683 1.16086L11.6679 1.16129L11.6674 1.16173L11.667 1.16216L11.6665 1.16259L11.6661 1.16303L11.6657 1.16346L11.6652 1.16389L11.6648 1.16432L11.6643 1.16476L11.6639 1.16519L11.6635 1.16562L11.663 1.16605L11.6626 1.16649L11.6621 1.16692L11.6617 1.16735L11.6613 1.16779L11.6608 1.16822L11.6604 1.16865L11.6599 1.16908L11.6595 1.16952L11.6591 1.16995L11.6586 1.17038L11.6582 1.17082L11.6577 1.17125L11.6573 1.17168L11.6569 1.17211L11.6564 1.17255L11.656 1.17298L11.6555 1.17341L11.6551 1.17385L11.6547 1.17428L11.6542 1.17471L11.6538 1.17514L11.6533 1.17558L11.6529 1.17601L11.6525 1.17644L11.652 1.17688L11.6516 1.17731L11.6511 1.17774L11.6507 1.17817L11.6503 1.17861L11.6498 1.17904L11.6494 1.17947L11.6489 1.17991L11.6485 1.18034L11.6481 1.18077L11.6476 1.1812L11.6472 1.18164L11.6467 1.18207L11.6463 1.1825L11.6459 1.18293L11.6454 1.18337L11.645 1.1838L11.6445 1.18423L11.6441 1.18467L11.6437 1.1851L11.6432 1.18553L11.6428 1.18596L11.6423 1.1864L11.6419 1.18683L11.6415 1.18726L11.641 1.1877L11.6406 1.18813L11.6401 1.18856L11.6397 1.18899L11.6393 1.18943L11.6388 1.18986L11.6384 1.19029L11.6379 1.19073L11.6375 1.19116L11.6371 1.19159L11.6366 1.19202L11.6362 1.19246L11.6357 1.19289L11.6353 1.19332L11.6349 1.19376L11.6344 1.19419L11.634 1.19462L11.6335 1.19505L11.6331 1.19549L11.6327 1.19592L11.6322 1.19635L11.6318 1.19679L11.6313 1.19722L11.6309 1.19765L11.6305 1.19808L11.5082 1.31832L11.4855 1.48828C11.4809 1.52213 11.4736 1.56647 11.465 1.61777C11.4398 1.76972 11.4044 1.98276 11.4026 2.16516L12.8774 1.33858Z" stroke="#F12724"/>
<path d="M24.0133 11.9482L24.0477 12.0737C24.0514 12.0871 24.0545 12.0995 24.0569 12.1088L24.0626 12.1312C24.064 12.1365 24.0648 12.1394 24.0651 12.1406C24.3229 12.8672 23.8443 13.6092 23.072 13.6678L24.0133 11.9482ZM24.0133 11.9482L23.922 11.8554M24.0133 11.9482L23.922 11.8554M23.922 11.8554L23.5655 12.206M23.922 11.8554L23.5655 12.206M23.5655 12.206C23.4917 12.1309 23.4178 12.0558 23.3442 11.9804M23.5655 12.206L22.7287 11.9019C22.8686 11.9033 23.0085 11.9266 23.1483 11.95C23.2136 11.9609 23.2789 11.9718 23.3442 11.9804M23.3442 11.9804L23.702 11.6312L23.5813 11.5075L23.4099 11.4848L23.3442 11.9804ZM11.3255 11.3051C11.3488 8.25893 11.3728 5.21185 11.4026 2.16524L11.3255 11.3051ZM11.3255 11.3051C8.27938 11.2777 5.23258 11.2513 2.18537 11.2304C2.00393 11.2291 1.78965 11.2611 1.63762 11.2837C1.58585 11.2914 1.5413 11.298 1.50772 11.3019L1.33705 11.3217L1.21456 11.4421L1.21412 11.4426L1.21368 11.443L1.21324 11.4434L1.2128 11.4439L1.21236 11.4443L1.21192 11.4447L1.21148 11.4452L1.21104 11.4456L1.2106 11.446L1.21016 11.4465L1.20972 11.4469L1.20928 11.4473L1.20884 11.4478L1.2084 11.4482L1.20796 11.4486L1.20752 11.4491L1.20708 11.4495L1.20664 11.4499L1.2062 11.4504L1.20576 11.4508L1.20532 11.4512L1.20488 11.4517L1.20444 11.4521L1.204 11.4525L1.20356 11.453L1.20312 11.4534L1.20268 11.4538L1.20224 11.4543L1.2018 11.4547L1.20136 11.4551L1.20092 11.4555L1.20048 11.456L1.20004 11.4564L1.1996 11.4568L1.19916 11.4573L1.19872 11.4577L1.19828 11.4581L1.19784 11.4586L1.1974 11.459L1.19696 11.4594L1.19652 11.4599L1.19608 11.4603L1.19564 11.4607L1.1952 11.4612L1.19476 11.4616L1.19432 11.462L1.19388 11.4625L1.19344 11.4629L1.193 11.4633L1.19256 11.4638L1.19212 11.4642L1.19168 11.4646L1.19124 11.4651L1.1908 11.4655L1.19036 11.4659L1.18992 11.4664L1.18948 11.4668L1.18904 11.4672L1.1886 11.4677L1.18816 11.4681L1.18772 11.4685L1.18728 11.469L1.18684 11.4694L1.1864 11.4698L1.18596 11.4703L1.18552 11.4707L1.18508 11.4711L1.18464 11.4716L1.1842 11.472L1.18376 11.4724L1.18332 11.4729L1.18288 11.4733L1.18244 11.4737L1.182 11.4742L1.18156 11.4746L1.18112 11.475L1.18068 11.4755L1.18024 11.4759L1.1798 11.4763L1.17936 11.4768L1.17892 11.4772L1.17848 11.4776L1.17804 11.4781L1.17759 11.4785L1.17715 11.4789L1.17671 11.4794L1.17627 11.4798L1.17583 11.4802L1.17539 11.4807L1.17495 11.4811L1.17451 11.4815L1.17407 11.482L1.17363 11.4824L1.17319 11.4828L1.17275 11.4833L1.17231 11.4837L1.17187 11.4841L1.17143 11.4845L1.17099 11.485L1.17055 11.4854L1.17011 11.4858L1.16967 11.4863L1.16923 11.4867L1.16879 11.4871L1.16835 11.4876L1.16791 11.488L1.16747 11.4884L1.16703 11.4889L1.16659 11.4893L1.16615 11.4897L1.16571 11.4902L1.16527 11.4906L1.16483 11.491L1.16439 11.4915L1.16395 11.4919L1.16351 11.4923L1.16307 11.4928L1.16263 11.4932L1.16219 11.4936L1.16175 11.4941L1.16131 11.4945L1.16087 11.4949L1.16043 11.4954L1.15999 11.4958L1.15955 11.4962L1.15911 11.4967L1.15867 11.4971L1.15823 11.4975L1.15779 11.498L1.15735 11.4984L1.15691 11.4988L1.15647 11.4993L1.15603 11.4997L1.15559 11.5001L1.15515 11.5006L1.15471 11.501L1.15427 11.5014L1.15383 11.5019L1.15339 11.5023L1.15295 11.5027L1.15251 11.5032L1.15207 11.5036L1.15163 11.504L1.15119 11.5045L1.15075 11.5049L1.15031 11.5053L1.14987 11.5058L1.14943 11.5062L1.14899 11.5066L1.14855 11.5071L1.14811 11.5075L1.14767 11.5079L1.14723 11.5084L1.14679 11.5088L1.14635 11.5092L1.14591 11.5097L1.14547 11.5101L1.14503 11.5105L1.14459 11.511L1.14415 11.5114L1.14371 11.5118L1.14327 11.5122L1.14283 11.5127L1.14239 11.5131L1.14195 11.5135L1.14151 11.514L1.14107 11.5144L1.14063 11.5148L1.14019 11.5153L1.13975 11.5157L1.13931 11.5161L1.13887 11.5166L1.13843 11.517L1.13799 11.5174L1.13755 11.5179L1.13711 11.5183L1.13667 11.5187L1.13623 11.5192L1.13579 11.5196L1.13535 11.52L1.13491 11.5205L1.13447 11.5209L1.13403 11.5213L1.13359 11.5218L1.13315 11.5222L1.13271 11.5226L1.13227 11.5231L1.13183 11.5235L1.13139 11.5239L1.13095 11.5244L1.13051 11.5248L1.13007 11.5252L1.12963 11.5257L1.12919 11.5261L1.12875 11.5265L1.12831 11.527L1.12787 11.5274L1.12743 11.5278L1.12699 11.5283L1.12655 11.5287L1.12611 11.5291L1.12567 11.5296L1.12523 11.53L1.12479 11.5304L1.12435 11.5309L1.12391 11.5313L1.12347 11.5317L1.12303 11.5322L1.12259 11.5326L1.12214 11.533L1.1217 11.5335L1.12126 11.5339L1.12082 11.5343L1.12038 11.5348L1.11994 11.5352L1.1195 11.5356L1.11906 11.5361L1.11862 11.5365L1.11818 11.5369L1.11774 11.5374L1.1173 11.5378L1.11686 11.5382L1.11642 11.5387L1.11598 11.5391L1.11554 11.5395L1.1151 11.5399L1.11466 11.5404L1.11422 11.5408L1.11378 11.5412L1.11334 11.5417L1.1129 11.5421L1.11246 11.5425L1.11202 11.543L1.11158 11.5434L1.11114 11.5438L1.1107 11.5443L1.11026 11.5447L1.10982 11.5451L1.10938 11.5456L1.10894 11.546L1.1085 11.5464L1.10806 11.5469L1.10762 11.5473L1.10718 11.5477L1.10674 11.5482L1.1063 11.5486L1.10586 11.549L1.10542 11.5495L1.10498 11.5499L1.10454 11.5503L1.1041 11.5508L1.10366 11.5512L1.10322 11.5516L1.10278 11.5521L1.10234 11.5525L1.1019 11.5529L1.10146 11.5534L1.10102 11.5538L1.10058 11.5542L1.10014 11.5547L1.0997 11.5551L1.09926 11.5555L1.09882 11.556L1.09838 11.5564L1.09794 11.5568L1.0975 11.5573L1.09706 11.5577L1.09662 11.5581L1.09618 11.5586L1.09574 11.559L1.0953 11.5594L1.09486 11.5599L1.09442 11.5603L1.09398 11.5607L1.09354 11.5612L1.0931 11.5616L1.09266 11.562L1.09222 11.5625L1.09178 11.5629L1.09134 11.5633L1.0909 11.5638L1.09046 11.5642L1.09002 11.5646L1.08958 11.5651L1.08914 11.5655L1.0887 11.5659L1.08826 11.5664L1.08782 11.5668L1.08738 11.5672L1.08694 11.5677L1.0865 11.5681L1.08606 11.5685L1.08562 11.5689L1.08518 11.5694L1.08474 11.5698L1.0843 11.5702L1.08386 11.5707L1.08342 11.5711L1.08298 11.5715L1.08254 11.572L1.0821 11.5724L1.08166 11.5728L1.08122 11.5733L1.08078 11.5737L1.08034 11.5741L1.0799 11.5746L1.07946 11.575L1.07902 11.5754L1.07858 11.5759L1.07814 11.5763L1.0777 11.5767L1.07726 11.5772L1.07682 11.5776L1.07638 11.578L1.07594 11.5785L1.0755 11.5789L1.07506 11.5793L1.07462 11.5798L1.07418 11.5802L1.07374 11.5806L1.0733 11.5811L1.07286 11.5815L1.07242 11.5819L1.07198 11.5824L1.07154 11.5828L1.0711 11.5832L1.07066 11.5837L1.07022 11.5841L1.06978 11.5845L1.06934 11.585L1.0689 11.5854L1.06845 11.5858L1.06802 11.5863L1.06758 11.5867L1.06714 11.5871L1.0667 11.5876L1.06625 11.588L1.06581 11.5884L1.06537 11.5889L1.06493 11.5893L1.06449 11.5897L1.06405 11.5902L1.06361 11.5906L1.06317 11.591L1.06273 11.5915L1.06229 11.5919L1.06185 11.5923L1.06141 11.5928L1.06097 11.5932L1.06053 11.5936L1.06009 11.5941L1.05965 11.5945L1.05921 11.5949L1.05877 11.5954L1.05833 11.5958L1.05789 11.5962L1.05745 11.5966L1.05701 11.5971L1.05657 11.5975L1.05613 11.5979L1.05569 11.5984L1.05525 11.5988L1.05481 11.5992L1.05437 11.5997L1.05393 11.6001L1.05349 11.6005L1.05305 11.601L1.05261 11.6014L1.05217 11.6018L1.05173 11.6023L1.05129 11.6027L1.05085 11.6031L1.05041 11.6036L1.04997 11.604L1.04953 11.6044L1.04909 11.6049L1.04865 11.6053L1.04821 11.6057L1.04777 11.6062L1.04733 11.6066L1.04689 11.607L1.04645 11.6075L1.04601 11.6079L1.04557 11.6083L1.04513 11.6088L1.04469 11.6092L1.04425 11.6096L1.04381 11.6101L1.04337 11.6105L1.04293 11.6109L1.04249 11.6114L1.04205 11.6118L1.04161 11.6122L1.04117 11.6127L1.04073 11.6131L1.04029 11.6135L1.03985 11.614L1.03941 11.6144L1.03897 11.6148L1.03853 11.6153L1.03809 11.6157L1.03765 11.6161L1.03721 11.6166L1.03677 11.617L1.03633 11.6174L1.03589 11.6179L1.03545 11.6183L1.03501 11.6187L1.03457 11.6192L1.03413 11.6196L1.03369 11.62L1.03325 11.6205L1.03281 11.6209L1.03237 11.6213L1.03193 11.6218L1.03149 11.6222L1.03105 11.6226L1.03061 11.6231L1.03017 11.6235L1.02973 11.6239L1.02929 11.6243L1.02885 11.6248L1.02841 11.6252L1.02797 11.6256L1.02753 11.6261L1.02709 11.6265L1.02665 11.6269L1.02621 11.6274L1.02577 11.6278L1.02533 11.6282L1.02489 11.6287L1.02445 11.6291L1.02401 11.6295L1.02357 11.63L1.02313 11.6304L1.02269 11.6308L1.02225 11.6313L1.02181 11.6317L1.02137 11.6321L1.02093 11.6326L1.02049 11.633L1.02005 11.6334L1.01961 11.6339L1.01917 11.6343L1.01873 11.6347L1.01829 11.6352L1.01785 11.6356L1.01741 11.636L1.01697 11.6365L1.01653 11.6369L1.01609 11.6373L1.01565 11.6378L1.01521 11.6382L1.01477 11.6386L1.01433 11.6391L1.01389 11.6395L1.01345 11.6399L1.013 11.6404L1.01256 11.6408L1.01213 11.6412L1.01169 11.6417L1.01125 11.6421L1.0108 11.6425L1.01036 11.643L1.00992 11.6434L1.00948 11.6438L1.00904 11.6443L1.0086 11.6447L1.00816 11.6451L1.00772 11.6456L1.00728 11.646L1.00684 11.6464L1.0064 11.6469L1.00596 11.6473L1.00552 11.6477L1.00508 11.6482L1.00464 11.6486L1.0042 11.649L1.00376 11.6495L1.00332 11.6499L1.00288 11.6503L1.00244 11.6508L1.002 11.6512L1.00156 11.6516L1.00112 11.652L1.00068 11.6525L1.00024 11.6529L0.999803 11.6533L0.999363 11.6538L0.998923 11.6542L0.998483 11.6546L0.998042 11.6551L0.997602 11.6555L0.997162 11.6559L0.996723 11.6564L0.996282 11.6568L0.995842 11.6572L0.995402 11.6577L0.994962 11.6581L0.994522 11.6585L0.994082 11.659L0.993642 11.6594L0.993202 11.6598L0.992761 11.6603L0.992321 11.6607L0.991881 11.6611L0.991441 11.6616L0.991002 11.662L0.990561 11.6624L0.990121 11.6629L0.989681 11.6633L0.989241 11.6637L0.902154 11.7494L0.864368 11.8655C0.862745 11.8705 0.861066 11.8757 0.859339 11.881C0.801721 12.0573 0.691238 12.3954 0.83785 12.7671L0.838026 12.7676C0.926834 12.9921 1.07529 13.1878 1.29677 13.3206C1.51056 13.4488 1.75268 13.4947 1.9933 13.4967C3.06268 13.5056 4.13201 13.5146 5.20133 13.5235C7.236 13.5405 9.27063 13.5574 11.3055 13.5746C11.2794 16.6668 11.2539 19.759 11.2286 22.8514L11.7286 22.8555M11.3255 11.3051L11.8068 13.422C11.7803 16.5664 11.7543 19.7108 11.7286 22.8555M11.7286 22.8555C11.7286 22.8602 11.7285 22.8649 11.7284 22.8696C11.7275 22.9437 11.7266 23.0189 11.7373 23.0919L11.2425 23.1639M11.7286 22.8555L11.2286 22.8496C11.2286 22.8551 11.2285 22.861 11.2284 22.8673C11.2274 22.9363 11.2258 23.0495 11.2425 23.1639M11.2425 23.1639C11.3563 23.9471 12.1969 24.3693 12.8934 23.9998M11.2425 23.1639L12.8934 23.9998M11.3182 13.0747C9.2831 13.0575 7.24817 13.0405 5.21324 13.0236C4.14133 13.0146 3.06942 13.0057 1.99748 12.9967C1.63231 12.9936 1.41134 12.8576 1.30298 12.5837C1.22562 12.3875 1.27978 12.2048 1.33984 12.0202L11.3182 13.0747ZM11.3182 13.0747C11.3176 13.0853 11.3169 13.0966 11.3161 13.1084C11.3126 13.1638 11.3084 13.2301 11.3079 13.2886L11.3182 13.0747ZM12.8934 23.9998C12.8933 23.9999 12.8931 23.9999 12.893 24L12.6591 23.5581L12.8934 23.9998ZM12.8934 23.9998C13.1207 23.8794 13.2837 23.7044 13.3823 23.4908C13.4755 23.289 13.4988 23.0798 13.5003 22.9016L13.5003 22.9013C13.5238 19.7985 13.5496 16.6954 13.5755 13.5922M12.8934 23.9998L13.0757 13.5645C13.078 13.565 13.0804 13.5656 13.0829 13.5661C13.1244 13.5749 13.1948 13.5888 13.2771 13.5895C13.3766 13.5904 13.476 13.5913 13.5755 13.5922M13.5755 13.5922C16.3093 13.6166 19.043 13.6395 21.7764 13.6623C22.1311 13.6653 22.4857 13.6683 22.8403 13.6712C22.8476 13.6713 22.8562 13.6714 22.8658 13.6716C22.9161 13.6723 22.9959 13.6736 23.0719 13.6678L13.5755 13.5922ZM13.099 1.56393L13.5956 1.50584L13.5757 1.33556L13.4555 1.21333L13.455 1.21289L13.4546 1.21245L13.4542 1.21201L13.4537 1.21157L13.4533 1.21113L13.4529 1.21069L13.4524 1.21024L13.452 1.2098L13.4516 1.20936L13.4511 1.20892L13.4507 1.20848L13.4503 1.20804L13.4498 1.2076L13.4494 1.20716L13.449 1.20672L13.4485 1.20628L13.4481 1.20584L13.4477 1.2054L13.4472 1.20496L13.4468 1.20452L13.4464 1.20408L13.4459 1.20364L13.4455 1.2032L13.4451 1.20276L13.4446 1.20232L13.4442 1.20188L13.4438 1.20144L13.4434 1.201L13.4429 1.20056L13.4425 1.20012L13.4421 1.19968L13.4416 1.19924L13.4412 1.1988L13.4408 1.19836L13.4403 1.19792L13.4399 1.19748L13.4395 1.19704L13.439 1.1966L13.4386 1.19616L13.4382 1.19572L13.4377 1.19528L13.4373 1.19484L13.4369 1.1944L13.4364 1.19396L13.436 1.19352L13.4356 1.19308L13.4351 1.19264L13.4347 1.1922L13.4343 1.19176L13.4338 1.19132L13.4334 1.19088L13.433 1.19044L13.4325 1.19L13.4321 1.18956L13.4317 1.18912L13.4312 1.18868L13.4308 1.18824L13.4304 1.1878L13.4299 1.18736L13.4295 1.18692L13.4291 1.18648L13.4286 1.18604L13.4282 1.1856L13.4278 1.18516L13.4273 1.18472L13.4269 1.18428L13.4265 1.18384L13.426 1.1834L13.4256 1.18296L13.4252 1.18252L13.4247 1.18208L13.4243 1.18164L13.4239 1.1812L13.4234 1.18076L13.423 1.18032L13.4226 1.17988L13.4221 1.17944L13.4217 1.179L13.4213 1.17856L13.4208 1.17812L13.4204 1.17768L13.42 1.17724L13.4195 1.1768L13.4191 1.17635L13.4187 1.17591L13.4182 1.17547L13.4178 1.17503L13.4174 1.17459L13.4169 1.17415L13.4165 1.17371L13.4161 1.17327L13.4156 1.17283L13.4152 1.17239L13.4148 1.17195L13.4143 1.17151L13.4139 1.17107L13.4135 1.17063L13.413 1.17019L13.4126 1.16975L13.4122 1.16931L13.4118 1.16887L13.4113 1.16843L13.4109 1.16799L13.4105 1.16755L13.41 1.16711L13.4096 1.16667L13.4092 1.16623L13.4087 1.16579L13.4083 1.16535L13.4079 1.16491L13.4074 1.16447L13.407 1.16403L13.4066 1.16359L13.4061 1.16315L13.4057 1.16271L13.4053 1.16227L13.4048 1.16183L13.4044 1.16139L13.404 1.16095L13.4035 1.16051L13.4031 1.16007L13.4027 1.15963L13.4022 1.15919L13.4018 1.15875L13.4014 1.15831L13.4009 1.15787L13.4005 1.15743L13.4001 1.15699L13.3996 1.15655L13.3992 1.15611L13.3988 1.15567L13.3983 1.15523L13.3979 1.15479L13.3975 1.15435L13.397 1.15391L13.3966 1.15347L13.3962 1.15303L13.3957 1.15259L13.3953 1.15215L13.3949 1.15171L13.3944 1.15127L13.394 1.15083L13.3936 1.15039L13.3931 1.14995L13.3927 1.14951L13.3923 1.14907L13.3918 1.14863L13.3914 1.14819L13.391 1.14775L13.3905 1.14731L13.3901 1.14687L13.3897 1.14643L13.3892 1.14599L13.3888 1.14555L13.3884 1.14511L13.3879 1.14467L13.3875 1.14423L13.3871 1.14379L13.3866 1.14335L13.3862 1.14291L13.3858 1.14246L13.3853 1.14202L13.3849 1.14158L13.3845 1.14114L13.384 1.1407L13.3836 1.14026L13.3832 1.13982L13.3827 1.13938L13.3823 1.13894L13.3819 1.1385L13.3815 1.13806L13.381 1.13762L13.3806 1.13718L13.3802 1.13674L13.3797 1.1363L13.3793 1.13586L13.3789 1.13542L13.3784 1.13498L13.378 1.13454L13.3776 1.1341L13.3771 1.13366L13.3767 1.13322L13.3763 1.13278L13.3758 1.13234L13.3754 1.1319L13.375 1.13146L13.3745 1.13102L13.3741 1.13058L13.3737 1.13014L13.3732 1.1297L13.3728 1.12926L13.3724 1.12882L13.3719 1.12838L13.3715 1.12794L13.3711 1.1275L13.3706 1.12706L13.3702 1.12662L13.3698 1.12618L13.3693 1.12574L13.3689 1.1253L13.3685 1.12486L13.368 1.12442L13.3676 1.12398L13.3672 1.12354L13.3667 1.1231L13.3663 1.12266L13.3659 1.12222L13.3654 1.12178L13.365 1.12134L13.3646 1.1209L13.3641 1.12046L13.3637 1.12002L13.3633 1.11958L13.3628 1.11914L13.3624 1.1187L13.362 1.11826L13.3615 1.11782L13.3611 1.11738L13.3607 1.11694L13.3602 1.1165L13.3598 1.11606L13.3594 1.11562L13.3589 1.11518L13.3585 1.11474L13.3581 1.1143L13.3576 1.11386L13.3572 1.11342L13.3568 1.11298L13.3563 1.11254L13.3559 1.1121L13.3555 1.11166L13.355 1.11122L13.3546 1.11078L13.3542 1.11034L13.3537 1.1099L13.3533 1.10946L13.3529 1.10902L13.3524 1.10857L13.352 1.10813L13.3516 1.10769L13.3511 1.10725L13.3507 1.10681L13.3503 1.10637L13.3499 1.10593L13.3494 1.10549L13.349 1.10505L13.3486 1.10461L13.3481 1.10417L13.3477 1.10373L13.099 1.56393ZM12.8774 1.33858L13.2338 0.987979L13.1641 0.917087L13.0726 0.878264C12.7275 0.73192 12.3664 0.728889 12.0189 0.869447L11.9267 0.906742L11.8558 0.97648L11.8553 0.976912L11.8549 0.977345L11.8545 0.977778L11.854 0.978211L11.8536 0.978644L11.8531 0.979077L11.8527 0.979509L11.8523 0.979942L11.8518 0.980375L11.8514 0.980808L11.8509 0.981241L11.8505 0.981673L11.8501 0.982106L11.8496 0.982539L11.8492 0.982972L11.8487 0.983405L11.8483 0.983838L11.8479 0.98427L11.8474 0.984703L11.847 0.985136L11.8465 0.985569L11.8461 0.986002L11.8457 0.986434L11.8452 0.986867L11.8448 0.9873L11.8443 0.987733L11.8439 0.988166L11.8435 0.988599L11.843 0.989031L11.8426 0.989464L11.8421 0.989897L11.8417 0.99033L11.8413 0.990763L11.8408 0.991196L11.8404 0.991628L11.8399 0.992061L11.8395 0.992494L11.8391 0.992927L11.8386 0.99336L11.8382 0.993792L11.8377 0.994225L11.8373 0.994658L11.8369 0.995091L11.8364 0.995524L11.836 0.995957L11.8355 0.996389L11.8351 0.996822L11.8347 0.997255L11.8342 0.997688L11.8338 0.998121L11.8333 0.998553L11.8329 0.998986L11.8325 0.999419L11.832 0.999852L11.8316 1.00028L11.8311 1.00072L11.8307 1.00115L11.8302 1.00158L11.8298 1.00202L11.8294 1.00245L11.8289 1.00288L11.8285 1.00331L11.828 1.00375L11.8276 1.00418L11.8272 1.00461L11.8267 1.00505L11.8263 1.00548L11.8258 1.00591L11.8254 1.00634L11.825 1.00678L11.8245 1.00721L11.8241 1.00764L11.8236 1.00808L11.8232 1.00851L11.8228 1.00894L11.8223 1.00937L11.8219 1.00981L11.8214 1.01024L11.821 1.01067L11.8206 1.01111L11.8201 1.01154L11.8197 1.01197L11.8192 1.0124L11.8188 1.01284L11.8184 1.01327L11.8179 1.0137L11.8175 1.01413L11.817 1.01457L11.8166 1.015L11.8162 1.01543L11.8157 1.01587L11.8153 1.0163L11.8148 1.01673L11.8144 1.01716L11.814 1.0176L11.8135 1.01803L11.8131 1.01846L11.8126 1.0189L11.8122 1.01933L11.8118 1.01976L11.8113 1.02019L11.8109 1.02063L11.8104 1.02106L11.81 1.02149L11.8096 1.02193L11.8091 1.02236L11.8087 1.02279L11.8082 1.02322L11.8078 1.02366L11.8074 1.02409L11.8069 1.02452L11.8065 1.02496L11.806 1.02539L11.8056 1.02582L11.8052 1.02625L11.8047 1.02669L11.8043 1.02712L11.8038 1.02755L11.8034 1.02799L11.803 1.02842L11.8025 1.02885L11.8021 1.02928L11.8016 1.02972L11.8012 1.03015L11.8008 1.03058L11.8003 1.03101L11.7999 1.03145L11.7994 1.03188L11.799 1.03231L11.7986 1.03275L11.7981 1.03318L11.7977 1.03361L11.7972 1.03404L11.7968 1.03448L11.7964 1.03491L11.7959 1.03534L11.7955 1.03578L11.795 1.03621L11.7946 1.03664L11.7942 1.03707L11.7937 1.03751L11.7933 1.03794L11.7928 1.03837L11.7924 1.03881L11.792 1.03924L11.7915 1.03967L11.7911 1.0401L11.7906 1.04054L11.7902 1.04097L11.7898 1.0414L11.7893 1.04184L11.7889 1.04227L11.7884 1.0427L11.788 1.04313L11.7876 1.04357L11.7871 1.044L11.7867 1.04443L11.7862 1.04487L11.7858 1.0453L11.7854 1.04573L11.7849 1.04616L11.7845 1.0466L11.784 1.04703L11.7836 1.04746L11.7832 1.04789L11.7827 1.04833L11.7823 1.04876L11.7818 1.04919L11.7814 1.04963L11.781 1.05006L11.7805 1.05049L11.7801 1.05092L11.7796 1.05136L11.7792 1.05179L11.7788 1.05222L11.7783 1.05266L11.7779 1.05309L11.7774 1.05352L11.777 1.05395L11.7766 1.05439L11.7761 1.05482L11.7757 1.05525L11.7752 1.05569L11.7748 1.05612L11.7744 1.05655L11.7739 1.05698L11.7735 1.05742L11.773 1.05785L11.7726 1.05828L11.7722 1.05872L11.7717 1.05915L11.7713 1.05958L11.7708 1.06001L11.7704 1.06045L11.77 1.06088L11.7695 1.06131L11.7691 1.06175L11.7686 1.06218L11.7682 1.06261L11.7678 1.06304L11.7673 1.06348L11.7669 1.06391L11.7664 1.06434L11.766 1.06477L11.7656 1.06521L11.7651 1.06564L11.7647 1.06607L11.7642 1.06651L11.7638 1.06694L11.7634 1.06737L11.7629 1.0678L11.7625 1.06824L11.762 1.06867L11.7616 1.0691L11.7612 1.06954L11.7607 1.06997L11.7603 1.0704L11.7598 1.07083L11.7594 1.07127L11.759 1.0717L11.7585 1.07213L11.7581 1.07257L11.7576 1.073L11.7572 1.07343L11.7568 1.07386L11.7563 1.0743L11.7559 1.07473L11.7554 1.07516L11.755 1.0756L11.7546 1.07603L11.7541 1.07646L11.7537 1.07689L11.7532 1.07733L11.7528 1.07776L11.7524 1.07819L11.7519 1.07863L11.7515 1.07906L11.751 1.07949L11.7506 1.07992L11.7502 1.08036L11.7497 1.08079L11.7493 1.08122L11.7488 1.08165L11.7484 1.08209L11.748 1.08252L11.7475 1.08295L11.7471 1.08339L11.7466 1.08382L11.7462 1.08425L11.7458 1.08468L11.7453 1.08512L11.7449 1.08555L11.7444 1.08598L11.744 1.08642L11.7436 1.08685L11.7431 1.08728L11.7427 1.08771L11.7422 1.08815L11.7418 1.08858L11.7414 1.08901L11.7409 1.08945L11.7405 1.08988L11.74 1.09031L11.7396 1.09074L11.7392 1.09118L11.7387 1.09161L11.7383 1.09204L11.7378 1.09248L11.7374 1.09291L11.737 1.09334L11.7365 1.09377L11.7361 1.09421L11.7356 1.09464L11.7352 1.09507L11.7348 1.09551L11.7343 1.09594L11.7339 1.09637L11.7334 1.0968L11.733 1.09724L11.7326 1.09767L11.7321 1.0981L11.7317 1.09853L11.7312 1.09897L11.7308 1.0994L11.7304 1.09983L11.7299 1.10027L11.7295 1.1007L11.729 1.10113L11.7286 1.10156L11.7282 1.102L11.7277 1.10243L11.7273 1.10286L11.7268 1.1033L11.7264 1.10373L11.726 1.10416L11.7255 1.10459L11.7251 1.10503L11.7246 1.10546L11.7242 1.10589L11.7238 1.10633L11.7233 1.10676L11.7229 1.10719L11.7224 1.10762L11.722 1.10806L11.7215 1.10849L11.7211 1.10892L11.7207 1.10936L11.7202 1.10979L11.7198 1.11022L11.7193 1.11065L11.7189 1.11109L11.7185 1.11152L11.718 1.11195L11.7176 1.11239L11.7171 1.11282L11.7167 1.11325L11.7163 1.11368L11.7158 1.11412L11.7154 1.11455L11.7149 1.11498L11.7145 1.11541L11.7141 1.11585L11.7136 1.11628L11.7132 1.11671L11.7127 1.11715L11.7123 1.11758L11.7119 1.11801L11.7114 1.11844L11.711 1.11888L11.7105 1.11931L11.7101 1.11974L11.7097 1.12018L11.7092 1.12061L11.7088 1.12104L11.7083 1.12147L11.7079 1.12191L11.7075 1.12234L11.707 1.12277L11.7066 1.12321L11.7061 1.12364L11.7057 1.12407L11.7053 1.1245L11.7048 1.12494L11.7044 1.12537L11.7039 1.1258L11.7035 1.12624L11.7031 1.12667L11.7026 1.1271L11.7022 1.12753L11.7017 1.12797L11.7013 1.1284L11.7009 1.12883L11.7004 1.12927L11.7 1.1297L11.6995 1.13013L11.6991 1.13056L11.6987 1.131L11.6982 1.13143L11.6978 1.13186L11.6973 1.13229L11.6969 1.13273L11.6965 1.13316L11.696 1.13359L11.6956 1.13403L11.6951 1.13446L11.6947 1.13489L11.6943 1.13532L11.6938 1.13576L11.6934 1.13619L11.6929 1.13662L11.6925 1.13706L11.6921 1.13749L11.6916 1.13792L11.6912 1.13835L11.6907 1.13879L11.6903 1.13922L11.6899 1.13965L11.6894 1.14009L11.689 1.14052L11.6885 1.14095L11.6881 1.14138L11.6877 1.14182L11.6872 1.14225L11.6868 1.14268L11.6863 1.14312L11.6859 1.14355L11.6855 1.14398L11.685 1.14441L11.6846 1.14485L11.6841 1.14528L11.6837 1.14571L11.6833 1.14615L11.6828 1.14658L11.6824 1.14701L11.6819 1.14744L11.6815 1.14788L11.6811 1.14831L11.6806 1.14874L11.6802 1.14917L11.6797 1.14961L11.6793 1.15004L11.6789 1.15047L11.6784 1.15091L11.678 1.15134L11.6775 1.15177L11.6771 1.1522L11.6767 1.15264L11.6762 1.15307L11.6758 1.1535L11.6753 1.15394L11.6749 1.15437L11.6745 1.1548L11.674 1.15523L11.6736 1.15567L11.6731 1.1561L11.6727 1.15653L11.6723 1.15697L11.6718 1.1574L11.6714 1.15783L11.6709 1.15826L11.6705 1.1587L11.6701 1.15913L11.6696 1.15956L11.6692 1.16L11.6687 1.16043L11.6683 1.16086L11.6679 1.16129L11.6674 1.16173L11.667 1.16216L11.6665 1.16259L11.6661 1.16303L11.6657 1.16346L11.6652 1.16389L11.6648 1.16432L11.6643 1.16476L11.6639 1.16519L11.6635 1.16562L11.663 1.16605L11.6626 1.16649L11.6621 1.16692L11.6617 1.16735L11.6613 1.16779L11.6608 1.16822L11.6604 1.16865L11.6599 1.16908L11.6595 1.16952L11.6591 1.16995L11.6586 1.17038L11.6582 1.17082L11.6577 1.17125L11.6573 1.17168L11.6569 1.17211L11.6564 1.17255L11.656 1.17298L11.6555 1.17341L11.6551 1.17385L11.6547 1.17428L11.6542 1.17471L11.6538 1.17514L11.6533 1.17558L11.6529 1.17601L11.6525 1.17644L11.652 1.17688L11.6516 1.17731L11.6511 1.17774L11.6507 1.17817L11.6503 1.17861L11.6498 1.17904L11.6494 1.17947L11.6489 1.17991L11.6485 1.18034L11.6481 1.18077L11.6476 1.1812L11.6472 1.18164L11.6467 1.18207L11.6463 1.1825L11.6459 1.18293L11.6454 1.18337L11.645 1.1838L11.6445 1.18423L11.6441 1.18467L11.6437 1.1851L11.6432 1.18553L11.6428 1.18596L11.6423 1.1864L11.6419 1.18683L11.6415 1.18726L11.641 1.1877L11.6406 1.18813L11.6401 1.18856L11.6397 1.18899L11.6393 1.18943L11.6388 1.18986L11.6384 1.19029L11.6379 1.19073L11.6375 1.19116L11.6371 1.19159L11.6366 1.19202L11.6362 1.19246L11.6357 1.19289L11.6353 1.19332L11.6349 1.19376L11.6344 1.19419L11.634 1.19462L11.6335 1.19505L11.6331 1.19549L11.6327 1.19592L11.6322 1.19635L11.6318 1.19679L11.6313 1.19722L11.6309 1.19765L11.6305 1.19808L11.5082 1.31832L11.4855 1.48828C11.4809 1.52213 11.4736 1.56647 11.465 1.61777C11.4398 1.76972 11.4044 1.98276 11.4026 2.16516L12.8774 1.33858Z" stroke="black" stroke-opacity="0.2"/>
</svg>
