<svg width="31" height="31" viewBox="0 0 31 31" fill="none" xmlns="http://www.w3.org/2000/svg">
<path d="M12.7744 30.9997C12.3878 30.8218 12.2511 30.5153 12.2592 30.0972C12.2762 29.2804 12.2576 28.4628 12.2689 27.6452C12.2721 27.4317 12.2107 27.3379 11.9988 27.2603C11.1228 26.9392 10.2582 26.5883 9.33933 26.2292C8.75455 26.8147 8.11396 27.4576 7.47256 28.0989C6.98079 28.5898 6.65969 28.589 6.16468 28.0949C5.06549 26.9967 3.96629 25.8976 2.86871 24.7986C2.419 24.3482 2.41981 24.0077 2.87033 23.5565C3.51901 22.9071 4.1685 22.2601 4.78887 21.6406C4.47019 20.878 4.14666 20.1551 3.86519 19.4151C3.60879 18.7414 3.62982 18.7342 2.90996 18.7342C2.21356 18.7342 1.51716 18.739 0.821567 18.7326C0.242446 18.7269 0.000606621 18.4746 0.000606621 17.8931C-0.000202207 16.2992 -0.000202207 14.7044 0.000606621 13.1105C0.000606621 12.5136 0.242446 12.2694 0.847449 12.2662C1.6951 12.2621 2.54275 12.2597 3.3904 12.2686C3.58371 12.271 3.65732 12.2063 3.72607 12.0195C4.05041 11.1437 4.40063 10.2784 4.76622 9.34838C4.7549 9.33625 4.68372 9.25619 4.60769 9.18017C4.00916 8.58012 3.40739 7.98329 2.81047 7.38081C2.44408 7.01124 2.4376 6.636 2.80239 6.26885C3.95497 5.10998 5.10997 3.95435 6.26983 2.80195C6.63623 2.43803 7.01395 2.4445 7.38197 2.81003C8.05491 3.47721 8.723 4.14924 9.35308 4.78003C10.1789 4.44442 10.9635 4.10962 11.7602 3.80797C12.2552 3.62035 12.2632 3.64219 12.2632 3.11734C12.2632 2.3604 12.26 1.60345 12.2649 0.847317C12.2697 0.242408 12.5148 0.000606526 13.1109 0.000606526C14.7051 -0.000202175 16.2993 -0.000202175 17.8935 0.000606526C18.475 0.000606526 18.7274 0.242408 18.7322 0.823056C18.7387 1.67057 18.7395 2.51809 18.7306 3.36561C18.7282 3.56374 18.7784 3.6527 18.9846 3.72791C19.8614 4.04896 20.726 4.40318 21.6505 4.76709C21.6659 4.75253 21.7459 4.67975 21.8228 4.60373C22.4229 4.00529 23.0198 3.40281 23.6216 2.8068C23.9807 2.45097 24.3601 2.43641 24.7119 2.78496C25.8871 3.9503 27.0575 5.11968 28.2222 6.29554C28.5587 6.63519 28.5458 7.01932 28.2052 7.36464C27.6099 7.96874 27.009 8.56637 26.4064 9.16238C26.3279 9.24002 26.2244 9.29177 26.133 9.35566C26.1735 9.36698 26.2131 9.3775 26.2535 9.38882C26.6046 10.2962 26.9499 11.2068 27.3155 12.1085C27.3479 12.1885 27.5121 12.2573 27.6164 12.2589C28.4438 12.271 29.2713 12.2775 30.0987 12.2613C30.5161 12.2532 30.8242 12.3859 31.0005 12.7757C31.0005 14.592 31.0005 16.4083 31.0005 18.2247C30.8234 18.6121 30.5161 18.7471 30.0987 18.739C29.2721 18.7228 28.4447 18.7293 27.618 18.7406C27.5137 18.7423 27.3479 18.8094 27.3155 18.8886C26.9499 19.7903 26.6054 20.7001 26.2349 21.6584C26.8213 22.2456 27.47 22.8933 28.1171 23.5427C28.5805 24.0069 28.583 24.3466 28.1227 24.8075C27.0324 25.8993 25.9413 26.9902 24.8502 28.0803C24.3326 28.5971 24.0236 28.5955 23.5003 28.0714C22.867 27.4374 22.2337 26.8034 21.6586 26.2276C20.7373 26.5907 19.8743 26.9457 18.9975 27.2652C18.7808 27.3444 18.7282 27.4398 18.7306 27.6485C18.7403 28.4653 18.7234 29.2821 18.7387 30.0988C18.7468 30.5153 18.6133 30.8234 18.2243 30.9997C16.4077 30.9997 14.5911 30.9997 12.7744 30.9997ZM30.0777 13.1921C29.1597 13.1921 28.2635 13.1929 27.3681 13.1921C26.8157 13.1913 26.6434 13.0183 26.4525 12.5072C26.1257 11.633 25.7739 10.7668 25.384 9.91933C25.1228 9.35162 25.1131 9.15996 25.5547 8.7184C26.1824 8.09166 26.81 7.46654 27.4126 6.86648C26.3118 5.76503 25.2312 4.6846 24.1344 3.5872C23.506 4.21798 22.8605 4.8698 22.2102 5.51595C21.8632 5.86126 21.6004 5.89927 21.1814 5.65909C20.3119 5.16093 19.3963 4.77922 18.4265 4.52286C17.9938 4.40803 17.8126 4.16057 17.8094 3.71093C17.8061 3.25725 17.8086 2.80276 17.8086 2.34907C17.8086 1.87841 17.8086 1.40775 17.8086 0.927378C16.2548 0.927378 14.7366 0.927378 13.1926 0.927378C13.1926 1.05354 13.1926 1.16271 13.1926 1.27188C13.1926 2.06926 13.1934 2.86583 13.1918 3.66321C13.191 4.1735 13.013 4.36112 12.535 4.54066C11.6623 4.8698 10.792 5.21107 9.94514 5.60086C9.33529 5.88148 9.16948 5.89523 8.69712 5.42214C8.07837 4.80187 7.46042 4.18078 6.87241 3.59124C5.76997 4.69269 4.68857 5.77231 3.5918 6.86729C4.22916 7.50293 4.88835 8.15474 5.54108 8.81302C5.85167 9.12599 5.89777 9.40014 5.68828 9.76729C5.1763 10.6641 4.78078 11.6063 4.51387 12.6042C4.40386 13.0158 4.15232 13.1889 3.70989 13.1913C2.94312 13.1946 2.17635 13.1921 1.40958 13.1921C1.25105 13.1921 1.09333 13.1921 0.928332 13.1921C0.928332 14.7465 0.928332 16.2636 0.928332 17.8066C1.84231 17.8066 2.73849 17.8058 3.63467 17.8066C4.1871 17.8074 4.35938 17.9805 4.54865 18.4932C4.8649 19.3496 5.20137 20.202 5.58799 21.0285C5.88806 21.6706 5.90424 21.8242 5.40358 22.3256C4.79129 22.9386 4.1782 23.5508 3.59827 24.1306C4.69585 25.2297 5.77645 26.3109 6.87241 27.4091C7.50653 26.7727 8.15844 26.1128 8.81602 25.4593C9.13551 25.1415 9.40485 25.1035 9.79632 25.3251C10.6666 25.82 11.5798 26.2074 12.548 26.4678C13.0227 26.5956 13.191 26.8285 13.1926 27.3193C13.1942 28.1264 13.1934 28.9335 13.1934 29.7406C13.1934 29.8481 13.1934 29.9549 13.1934 30.0689C14.7496 30.0689 16.2669 30.0689 17.8094 30.0689C17.8094 29.1543 17.8086 28.2582 17.8094 27.3622C17.8102 26.809 17.9825 26.6392 18.4977 26.45C19.3453 26.1394 20.1898 25.8087 21.0051 25.4237C21.6804 25.1051 21.8179 25.0857 22.3501 25.6186C22.9551 26.2244 23.5601 26.8309 24.1304 27.4026C25.2312 26.3028 26.3118 25.2232 27.4094 24.1258C26.7736 23.4926 26.1144 22.8408 25.4609 22.1833C25.1495 21.8703 25.1034 21.5994 25.3137 21.2306C25.824 20.3338 26.2204 19.3916 26.4881 18.3937C26.5989 17.9813 26.8488 17.809 27.2921 17.8074C28.0386 17.8042 28.7852 17.8066 29.5317 17.8066C29.7105 17.8066 29.8884 17.8066 30.0785 17.8066C30.0777 16.2604 30.0777 14.7505 30.0777 13.1921Z" fill="white"/>
<path d="M13.5943 16.1908C12.2517 14.7958 12.5922 13.0118 13.5838 12.0907C14.6709 11.0798 16.3007 11.0733 17.3974 12.0737C18.3866 12.9762 18.7684 14.7707 17.4419 16.156C17.7865 16.4722 18.161 16.7617 18.4691 17.1111C19.0725 17.7936 19.35 18.6177 19.3661 19.5242C19.3791 20.2294 19.3686 20.9346 19.3686 21.7223C19.6937 21.4789 19.9736 21.2759 20.2453 21.0632C20.5349 20.836 20.8123 20.8214 20.9919 21.0357C21.1787 21.2589 21.1245 21.5161 20.8382 21.766C16.1899 25.82 8.68961 23.2742 7.45048 17.2186C6.98541 14.9454 7.39629 12.8363 8.67505 10.8986C8.73005 10.8145 8.78747 10.7288 8.85865 10.6593C9.02284 10.4983 9.21777 10.4813 9.41189 10.5954C9.62542 10.7207 9.66829 10.9205 9.60115 11.1461C9.58498 11.2019 9.54535 11.2528 9.51137 11.303C8.47607 12.8072 8.03041 14.4707 8.23666 16.2846C8.49953 18.5975 9.65211 20.371 11.6313 21.7118C11.6313 21.3325 11.6224 21.0163 11.6329 20.7009C11.6556 20.0572 11.6208 19.4021 11.7332 18.7738C11.9298 17.6642 12.4871 16.955 13.5943 16.1908ZM18.4457 20.6249C18.4457 20.3022 18.4505 19.9795 18.4449 19.6569C18.4198 18.3557 17.8366 17.4079 16.6444 16.8628C16.5215 16.8062 16.3532 16.7989 16.2182 16.828C15.7264 16.9315 15.2411 16.934 14.7518 16.8191C14.6523 16.7957 14.5293 16.7925 14.4379 16.8305C13.3727 17.2696 12.7046 18.0581 12.6003 19.2064C12.5162 20.1364 12.559 21.0794 12.5615 22.0159C12.5615 22.1016 12.665 22.2318 12.7507 22.2666C14.5819 22.9968 16.4188 22.9936 18.25 22.2666C18.3389 22.231 18.4336 22.0846 18.4384 21.9851C18.457 21.5331 18.4457 21.0786 18.4457 20.6249ZM15.4902 15.9894C16.5288 15.9918 17.3805 15.1451 17.3772 14.1148C17.374 13.0983 16.5296 12.2532 15.508 12.2443C14.484 12.2362 13.6178 13.1007 13.6218 14.1278C13.6259 15.1476 14.4679 15.987 15.4902 15.9894Z" fill="white"/>
<path d="M23.7637 15.4987C23.72 17.0813 23.31 18.545 22.4664 19.8826C22.2722 20.1916 21.9608 20.2643 21.7311 20.0654C21.5313 19.8923 21.5127 19.6764 21.6939 19.3869C22.2641 18.4763 22.6119 17.4864 22.7559 16.4254C23.1773 13.333 21.4788 10.1936 18.6123 8.89642C15.9553 7.69388 13.4188 7.98744 11.0489 9.69218C10.96 9.75607 10.8702 9.83208 10.7683 9.86282C10.5386 9.93236 10.3469 9.85877 10.2312 9.64285C10.1058 9.40913 10.1689 9.18836 10.3776 9.05897C11.0263 8.65704 11.6556 8.20013 12.352 7.90333C17.1944 5.84033 22.7802 8.94979 23.6108 14.1473C23.6836 14.5953 23.7144 15.0482 23.7637 15.4987Z" fill="white"/>
</svg>
