<svg width="30" height="21" viewBox="0 0 30 21" fill="none" xmlns="http://www.w3.org/2000/svg">
<path d="M10.9001 9.34183C10.9323 9.34364 10.9646 9.34557 10.9968 9.34762L10.9968 9.34762C12.5353 9.4462 13.9499 9.98828 15.1993 10.9561L15.1993 10.9561C15.2847 11.0222 15.3682 11.0897 15.4499 11.1579C15.575 11.1098 15.7014 11.0648 15.829 11.0231C15.829 11.0231 15.829 11.0231 15.8291 11.0231L15.8756 11.1657C16.7851 10.868 17.7088 10.7128 18.6284 10.7032L10.9001 9.34183ZM10.9001 9.34183C12.6691 8.77649 13.9534 7.13366 13.9534 5.19952V5.19619V5.19608C13.9517 2.79963 11.9755 0.851723 9.55169 0.85H9.55158H9.54877C8.36624 0.85 7.25502 1.30269 6.42126 2.1252C5.59031 2.94494 5.13226 4.03713 5.13284 5.19849C5.13343 6.36116 5.59504 7.45549 6.43094 8.27839L6.43098 8.27843C6.92626 8.76567 7.51729 9.12305 8.16155 9.33312C7.49634 9.38521 6.8314 9.51979 6.17547 9.73452L6.17541 9.73454C4.67484 10.2265 3.31942 11.2173 2.35713 12.5242L2.35712 12.5242C1.39368 13.8327 0.858088 15.4118 0.850038 16.974L0.850038 16.974C0.848898 17.2068 0.870338 17.5247 1.10486 17.7574L1.10501 17.7576C1.33884 17.989 1.65758 18.0114 1.89149 18.0114H10.019C9.97367 18.3459 9.95009 18.6821 9.94861 19.0176C9.94692 19.2752 9.97124 19.6205 10.2253 19.8732L10.2256 19.8735C10.4791 20.1242 10.826 20.1494 11.0846 20.1494L23.5532 20.15L25.8055 20.1497L28.0577 20.1494C28.3936 20.1494 28.6776 20.0543 28.879 19.8469C29.0775 19.6428 29.1622 19.3664 29.1486 19.0447C29.1486 19.0446 29.1486 19.0444 29.1486 19.0442L29.1447 18.9442L29.1446 18.9438L29.144 18.9285C29.1285 18.5599 29.1121 18.1686 29.0447 17.7776C28.6635 15.566 27.5703 13.745 25.7983 12.3724C24.4183 11.303 22.8563 10.7048 21.1574 10.5957L21.1573 10.5957C21.0921 10.5916 21.0268 10.5879 20.9615 10.5846C22.956 9.98723 24.4134 8.15447 24.4134 5.99067V5.98679V5.98669C24.4116 3.34427 22.2328 1.19649 19.5597 1.19477H19.5596H19.5562C18.2522 1.19477 17.0267 1.69351 16.1074 2.60045C15.1909 3.5046 14.6861 4.70893 14.6867 5.98963C14.6873 7.27172 15.1968 8.47818 16.1182 9.38544L16.1182 9.38548C16.6846 9.9428 17.3649 10.3461 18.1063 10.5739" fill="white" stroke="white" stroke-width="0.3"/>
</svg>
