<svg width="33" height="23" viewBox="0 0 33 23" fill="none" xmlns="http://www.w3.org/2000/svg">
<path d="M32.0021 20.8052C31.9276 19.9195 31.5963 17.6301 30.1139 15.5997C28.5239 13.4106 26.1388 12.1572 23.0249 11.8564C22.528 11.8063 22.0145 11.7812 21.4845 11.7812C20.9545 11.7812 20.441 11.8063 19.9441 11.8564C18.3955 12.0068 17.0373 12.3912 15.8613 13.0095C15.5052 13.1933 15.1657 13.4022 14.8427 13.6278C14.0808 14.1709 13.4183 14.8226 12.8551 15.5997C12.441 16.1679 12.1098 16.7611 11.8613 17.3376C11.6791 17.7471 11.5383 18.1481 11.4224 18.5241C11.116 19.5101 11.0083 20.3456 10.9752 20.8135C10.9504 21.1227 11.058 21.4235 11.2651 21.6491C11.4721 21.8747 11.762 22.0084 12.0684 22.0084H30.9172C31.2236 22.0084 31.5135 21.8747 31.7205 21.6491C31.9193 21.4151 32.027 21.1143 32.0021 20.8052ZM12.3996 20.5796C12.4824 19.8192 12.6398 19.1341 12.8551 18.5158C13.0042 18.0896 13.1781 17.6886 13.3686 17.3293C13.9566 16.2347 14.7516 15.4326 15.6212 14.8394C15.9524 14.6138 16.292 14.4216 16.6398 14.2461C18.528 13.327 20.5321 13.1933 21.4845 13.1933C28.9131 13.1933 30.3044 18.4573 30.5611 20.5712H12.3996V20.5796Z" fill="white"/>
<path d="M15.9855 13.1766C15.9441 13.1181 15.9027 13.0596 15.853 13.0095C14.3126 11.0125 11.9441 10.0015 8.81367 9.99316H8.74742C5.52588 10.0015 3.11595 11.071 1.57557 13.1766C0.333338 14.8728 0.0600462 16.7862 0.00207521 17.5215C-0.0144879 17.7805 0.0683278 18.0311 0.242241 18.2233C0.416154 18.4155 0.656319 18.5241 0.913048 18.5241H12.8551C13.0041 18.098 13.1781 17.6969 13.3685 17.3376H1.2029C1.84058 11.6308 7.14907 11.1796 8.78054 11.1796C11.9027 11.1796 13.7495 12.2993 14.8427 13.6278C15.1656 14.0205 15.4224 14.4383 15.6294 14.8477C15.9607 14.6221 16.3002 14.4299 16.648 14.2545C16.4658 13.8952 16.2422 13.5275 15.9855 13.1766Z" fill="white"/>
<path d="M21.4844 1.03613C18.4699 1.03613 16.0103 3.50936 16.0103 6.55911C16.0103 9.06576 17.6749 11.1797 19.944 11.8565C20.4326 11.9985 20.9461 12.0821 21.4844 12.0821C22.0227 12.0821 22.5361 12.0069 23.0247 11.8565C25.2939 11.1797 26.9585 9.06576 26.9585 6.55911C26.9585 3.51771 24.4989 1.03613 21.4844 1.03613ZM21.4844 10.6533C19.2401 10.6533 17.4181 8.81509 17.4181 6.55076C17.4181 4.28642 19.2401 2.44821 21.4844 2.44821C23.7287 2.44821 25.5506 4.28642 25.5506 6.55076C25.5506 8.81509 23.7287 10.6533 21.4844 10.6533Z" fill="white"/>
<path d="M7.95238 0C5.21946 0 3 2.23927 3 4.99658C3 7.73718 5.2029 9.97645 7.91925 9.99316C7.92754 9.99316 7.9441 9.99316 7.95238 9.99316C7.96066 9.99316 7.97723 9.99316 7.98551 9.99316C10.7019 9.97645 12.9048 7.73718 12.9048 4.99658C12.9048 2.23927 10.6853 0 7.95238 0ZM7.95238 8.70642C5.9234 8.70642 4.27536 7.04368 4.27536 4.99658C4.27536 2.94949 5.9234 1.28675 7.95238 1.28675C9.98137 1.28675 11.6294 2.94949 11.6294 4.99658C11.6294 7.04368 9.98137 8.70642 7.95238 8.70642Z" fill="white"/>
</svg>
