<svg width="18" height="17" viewBox="0 0 18 17" fill="none" xmlns="http://www.w3.org/2000/svg">
<path d="M17.0389 3.67513C16.8819 4.20289 16.5727 4.67257 16.1498 5.02522C15.7819 5.37495 15.4458 5.75761 15.1279 6.09598L11.031 1.99575C11.5114 1.49727 12.003 0.911359 12.5719 0.412882C12.8978 0.135561 13.3148 -0.0112752 13.7425 0.000676168C14.1702 0.0126275 14.5784 0.182519 14.8883 0.477603C15.4776 1.0215 16.0487 1.58811 16.5835 2.18083C16.7717 2.4537 16.9243 2.74942 17.0377 3.06083C17.0389 3.26862 17.0389 3.47074 17.0389 3.67513Z" fill="#F12724"/>
<path d="M17.0389 3.67513C16.8819 4.20289 16.5727 4.67257 16.1498 5.02522C15.7819 5.37495 15.4458 5.75761 15.1279 6.09598L11.031 1.99575C11.5114 1.49727 12.003 0.911359 12.5719 0.412882C12.8978 0.135561 13.3148 -0.0112752 13.7425 0.000676168C14.1702 0.0126275 14.5784 0.182519 14.8883 0.477603C15.4776 1.0215 16.0487 1.58811 16.5835 2.18083C16.7717 2.4537 16.9243 2.74942 17.0377 3.06083C17.0389 3.26862 17.0389 3.47074 17.0389 3.67513Z" fill="black" fill-opacity="0.2"/>
<path d="M9.5812 3.31289L13.6882 7.42221C13.644 7.47217 13.5883 7.54143 13.527 7.60275C11.3658 9.73822 9.20232 11.871 7.03657 14.0012C6.75411 14.2743 6.42982 14.5005 6.07596 14.6711C4.5317 15.4137 2.9776 16.1367 1.41366 16.8399C1.16655 16.9481 0.891675 16.9759 0.627901 16.9194C0.500446 16.8814 0.383274 16.815 0.285208 16.7252C0.187142 16.6354 0.110748 16.5244 0.0617704 16.4008C0.0127932 16.2771 -0.00748699 16.144 0.00246315 16.0114C0.0124133 15.8787 0.0523277 15.7501 0.119206 15.6352C0.661968 14.4554 1.26264 13.2995 1.75204 12.0981C2.25089 10.9107 2.99901 9.84424 3.94578 8.97101C5.78527 7.20533 7.56345 5.37607 9.36546 3.57065C9.44167 3.48842 9.51367 3.40239 9.5812 3.31289Z" fill="#F12724"/>
<path d="M9.5812 3.31289L13.6882 7.42221C13.644 7.47217 13.5883 7.54143 13.527 7.60275C11.3658 9.73822 9.20232 11.871 7.03657 14.0012C6.75411 14.2743 6.42982 14.5005 6.07596 14.6711C4.5317 15.4137 2.9776 16.1367 1.41366 16.8399C1.16655 16.9481 0.891675 16.9759 0.627901 16.9194C0.500446 16.8814 0.383274 16.815 0.285208 16.7252C0.187142 16.6354 0.110748 16.5244 0.0617704 16.4008C0.0127932 16.2771 -0.00748699 16.144 0.00246315 16.0114C0.0124133 15.8787 0.0523277 15.7501 0.119206 15.6352C0.661968 14.4554 1.26264 13.2995 1.75204 12.0981C2.25089 10.9107 2.99901 9.84424 3.94578 8.97101C5.78527 7.20533 7.56345 5.37607 9.36546 3.57065C9.44167 3.48842 9.51367 3.40239 9.5812 3.31289Z" fill="black" fill-opacity="0.2"/>
</svg>
