<svg width="21" height="11" viewBox="0 0 21 11" fill="none" xmlns="http://www.w3.org/2000/svg">
<path d="M21.0001 5.62237C20.8927 5.7751 20.8049 5.94769 20.6749 6.07854C18.9026 7.86147 16.8817 9.287 14.5249 10.2075C12.9134 10.8373 11.2424 11.1234 9.50709 10.9503C8.14784 10.8149 6.85845 10.4218 5.62661 9.85008C3.59955 8.90923 1.82575 7.61047 0.265646 6.02101C-0.0882919 5.66055 -0.0888056 5.33777 0.265646 4.97833C2.05178 3.16893 4.09116 1.72405 6.47421 0.792367C8.08568 0.162079 9.75674 -0.123536 11.492 0.0490549C12.8513 0.18448 14.1406 0.578028 15.3725 1.14926C17.3749 2.07789 19.1292 3.3573 20.6744 4.92131C20.8038 5.05266 20.8922 5.22424 20.9996 5.37748C21.0001 5.45945 21.0001 5.54091 21.0001 5.62237ZM14.8059 5.4956C14.8018 3.14347 12.8615 1.22003 10.4954 1.2241C8.12678 1.22817 6.19013 3.15518 6.19373 5.50425C6.19732 7.85637 8.13808 9.77982 10.5042 9.77575C12.8728 9.77218 14.8095 7.84517 14.8059 5.4956Z" fill="#212121"/>
<path d="M13.5048 6.04134C13.3687 7.20773 12.2832 8.29113 11.0488 8.50751C9.68133 8.74679 8.32774 8.05694 7.72619 6.81316C7.12619 5.57295 7.43339 4.12655 8.49623 3.18825C9.4101 2.38129 10.907 2.20514 11.8517 2.79317C11.0714 3.66733 10.9173 4.35769 11.3293 5.13308C11.7289 5.88606 12.3962 6.16709 13.5048 6.04134Z" fill="#212121"/>
</svg>
