<svg width="25" height="25" viewBox="0 0 25 25" fill="none" xmlns="http://www.w3.org/2000/svg">
<path d="M13.3321 25C12.7788 25 12.2255 25 11.6722 25C11.3836 24.9639 11.0945 24.9328 10.8071 24.89C7.51062 24.3972 4.79187 22.8707 2.72055 20.2602C0.519631 17.4866 -0.3479 14.3057 0.125299 10.8033C0.578933 7.44521 2.18561 4.7021 4.86217 2.62535C7.61516 0.489312 10.7551 -0.329892 14.2045 0.118836C16.6775 0.440404 18.8613 1.45096 20.7308 3.10404C22.9996 5.11047 24.3819 7.61455 24.8551 10.6126C24.9107 10.9641 24.9523 11.3181 25 11.6708C25 12.2241 25 12.7774 25 13.3306C24.9627 13.6271 24.9303 13.9242 24.8869 14.2201C24.5286 16.6771 23.5504 18.8566 21.9077 20.7194C19.9006 22.9954 17.3928 24.3825 14.3885 24.8551C14.037 24.9107 13.6842 24.9523 13.3321 25ZM12.5012 1.94859C6.68038 1.94921 1.95879 6.66757 1.95084 12.49C1.9435 18.3186 6.67426 23.0541 12.503 23.0535C18.3239 23.0529 23.0455 18.3345 23.0528 12.512C23.0607 6.68347 18.33 1.94737 12.5012 1.94859Z" fill="white"/>
<path d="M11.5285 13.6846C11.5285 13.5953 11.5285 13.5067 11.5285 13.3801C11.1923 13.3801 10.8854 13.3801 10.5778 13.3801C9.63451 13.3801 8.69116 13.3814 7.74721 13.3795C7.11995 13.3783 6.69505 12.9858 6.69444 12.4142C6.69383 11.8487 7.12606 11.4391 7.7466 11.4367C8.93388 11.4312 10.1218 11.4355 11.309 11.4348C11.3726 11.4348 11.4362 11.4287 11.5279 11.4245C11.5279 11.3279 11.5279 11.241 11.5279 11.1542C11.5279 9.96639 11.5242 8.77916 11.5304 7.59132C11.5328 7.09551 11.8489 6.72137 12.327 6.61989C12.7482 6.53063 13.211 6.76539 13.381 7.18049C13.4433 7.33333 13.4702 7.51062 13.4714 7.67752C13.4788 8.83235 13.4757 9.98779 13.4757 11.1426C13.4757 11.2307 13.4757 11.3181 13.4757 11.4348C13.5833 11.4348 13.6695 11.4348 13.7563 11.4348C14.9192 11.4348 16.0826 11.4324 17.2454 11.4361C17.7993 11.4379 18.1998 11.7472 18.2976 12.2327C18.4144 12.8134 17.9681 13.3722 17.3659 13.3765C16.1786 13.3844 14.9907 13.3795 13.8034 13.3801C13.7068 13.3801 13.6096 13.3801 13.4757 13.3801C13.4757 13.478 13.4757 13.5636 13.4757 13.6491C13.4757 14.8449 13.4818 16.0407 13.4727 17.2365C13.4672 17.9463 12.7941 18.4066 12.1497 18.1584C11.7651 18.0099 11.5304 17.6541 11.5291 17.1992" fill="white"/>
</svg>
