<svg width="26" height="21" viewBox="0 0 26 21" fill="none" xmlns="http://www.w3.org/2000/svg">
<path d="M25.4964 13.5046C25.3997 14.171 25.3317 14.8438 25.2 15.5033C24.8818 17.0991 24.2372 18.5644 23.3492 19.9211C23.0603 20.3622 22.5636 20.5122 22.0819 20.292C21.373 19.9682 20.6685 19.6324 19.9734 19.2804C19.4655 19.0225 19.2839 18.4558 19.5179 17.9613C19.7488 17.4725 20.3079 17.2635 20.8264 17.4813C21.0479 17.5741 21.2613 17.6865 21.4785 17.7894C21.6869 17.8885 21.8959 17.987 22.1711 18.1176C22.4513 17.4304 22.772 16.7791 22.9861 16.0944C23.7904 13.5297 23.6644 10.9989 22.6123 8.5214C22.485 8.22144 22.4114 7.92211 22.5399 7.60207C22.6922 7.2243 23.0429 6.97266 23.4453 6.97266C23.9015 6.97266 24.2359 7.19229 24.3907 7.61525C24.6596 8.34883 24.9386 9.08304 25.1314 9.83795C25.2974 10.4881 25.3485 11.1671 25.4515 11.8335C25.4627 11.9063 25.4808 11.9785 25.4952 12.0506C25.4964 12.5357 25.4964 13.0202 25.4964 13.5046Z" fill="white"/>
<path d="M13.7385 2.05479C13.7385 2.54991 13.7404 3.00801 13.7379 3.46611C13.7341 4.10556 13.331 4.54859 12.7513 4.55424C12.1623 4.55989 11.7492 4.11183 11.7461 3.45983C11.7436 3.00236 11.7454 2.54427 11.7454 2.04287C8.20614 2.46708 5.50735 4.18086 3.55487 7.1748C3.69589 7.24634 3.81694 7.31035 3.93987 7.36996C4.26061 7.52622 4.58446 7.67557 4.9027 7.83685C5.4437 8.11108 5.65836 8.67021 5.42311 9.17348C5.17476 9.705 4.60006 9.89953 4.0316 9.63534C3.58794 9.42951 3.14989 9.21113 2.70997 8.99903C1.52188 11.0805 1.87382 15.9458 3.37266 18.0775C3.77139 17.8842 4.1695 17.6803 4.57635 17.4958C5.13358 17.2435 5.727 17.4776 5.94103 18.0191C6.12199 18.4772 5.97098 19.0006 5.53169 19.2334C4.81347 19.6143 4.08277 19.9726 3.34271 20.3084C2.88844 20.5148 2.40796 20.3397 2.12779 19.908C1.01083 18.1917 0.298227 16.3242 0.0829485 14.2778C-0.315785 10.4982 0.721921 7.15912 3.21978 4.30825C5.19223 2.05793 7.67574 0.677995 10.6223 0.183503C13.1239 -0.236314 15.5468 0.0642722 17.8768 1.08463C18.3461 1.29046 18.5957 1.6582 18.5682 2.10688C18.542 2.53297 18.2481 2.93145 17.8238 2.99734C17.5767 3.03562 17.289 2.99797 17.0557 2.90384C16.237 2.57251 15.4033 2.30581 14.5328 2.15834C14.2801 2.11566 14.0243 2.09119 13.7385 2.05479Z" fill="white"/>
<path d="M12.7576 15.8508C11.5476 15.8357 10.4694 15.1216 9.99139 13.9983C9.52464 12.902 9.73618 11.5817 10.596 10.7565C11.1208 10.2526 11.7211 9.82084 12.3177 9.39976C14.979 7.52157 17.6509 5.65906 20.3185 3.78965C20.6755 3.53927 21.0505 3.47589 21.4399 3.68862C21.7905 3.88002 21.9784 4.19504 21.9478 4.59352C21.9322 4.79119 21.8586 5.00832 21.7456 5.17085C19.639 8.20809 17.5243 11.2397 15.4071 14.27C14.9303 14.9528 14.3612 15.5263 13.5151 15.7234C13.2661 15.7811 13.0103 15.8087 12.7576 15.8508ZM17.0319 8.5457C16.9533 8.56766 16.9359 8.56829 16.9246 8.57644C15.3409 9.7198 13.756 10.8619 12.1754 12.0103C11.8291 12.2619 11.6805 12.614 11.7748 13.0407C11.8634 13.4436 12.1198 13.7084 12.5192 13.7969C12.9479 13.8916 13.3017 13.7441 13.5675 13.3877C13.8165 13.0539 14.0767 12.7282 14.3176 12.3893C15.2142 11.1261 16.1047 9.85974 17.0319 8.5457Z" fill="white"/>
</svg>
