<svg width="30" height="24" viewBox="0 0 30 24" fill="none" xmlns="http://www.w3.org/2000/svg">
<path d="M0 18.7386C0.124904 18.259 0.267412 17.7913 0.587635 17.3953C1.14509 16.705 1.86518 16.3773 2.73028 16.3585C3.05973 16.3508 3.38917 16.3577 3.74963 16.3577C3.74963 15.6878 3.7379 15.0443 3.75299 14.4026C3.76472 13.9179 3.73706 13.4152 3.85358 12.9544C4.18554 11.6428 5.20908 10.9123 6.62158 10.9106C9.11044 10.9072 11.6001 10.9098 14.089 10.9098C14.203 10.9098 14.317 10.9098 14.4444 10.9098C14.4444 9.80807 14.4444 8.74904 14.4444 7.64563C14.11 7.64563 13.7822 7.64905 13.4544 7.64478C12.1668 7.62942 11.1735 6.87163 10.808 5.61974C10.7635 5.4687 10.7283 5.30826 10.7275 5.1521C10.7199 4.26801 10.694 3.38221 10.7308 2.49983C10.7845 1.2232 11.9069 0.0720037 13.161 0.0301887C14.3799 -0.00991953 15.6021 -0.00991953 16.8201 0.0293353C18.0884 0.070297 19.2067 1.22661 19.2595 2.52031C19.293 3.33357 19.2939 4.15024 19.2671 4.96436C19.2176 6.49871 18.0817 7.61321 16.5695 7.64307C16.2383 7.6499 15.9064 7.64393 15.5518 7.64393C15.5518 8.72685 15.5518 9.79356 15.5518 10.9081C15.6733 10.9081 15.7966 10.9081 15.9198 10.9081C18.3994 10.9081 20.8791 10.9132 23.3587 10.9055C24.316 10.9021 25.1124 11.2255 25.7025 12.0123C26.0638 12.4945 26.234 13.0449 26.2382 13.6482C26.2432 14.4436 26.2399 15.238 26.2399 16.0334C26.2399 16.1307 26.2399 16.2271 26.2399 16.3329C26.7395 16.3559 27.2182 16.3474 27.6876 16.4063C28.9626 16.5676 29.9392 17.6607 29.9803 18.9766C30.0054 19.7805 30.008 20.5869 29.9795 21.3908C29.9292 22.7929 28.8168 23.9356 27.4437 23.9765C26.322 24.0106 25.1987 23.9885 24.0763 23.9885C22.6554 23.9885 21.455 22.7835 21.4357 21.3814C21.4248 20.5767 21.3988 19.7703 21.4416 18.9681C21.5229 17.4483 22.6437 16.3833 24.1375 16.3568C24.4678 16.3508 24.7989 16.3559 25.1677 16.3559C25.1677 16.216 25.1677 16.0999 25.1677 15.9839C25.1677 15.2585 25.1719 14.5332 25.1669 13.8078C25.1585 12.666 24.4971 11.9995 23.3738 11.9987C21.2655 11.997 19.1564 11.9978 17.0481 11.9978C16.5527 11.9978 16.0573 11.9978 15.5459 11.9978C15.5459 13.4545 15.5459 14.8813 15.5459 16.3551C15.8745 16.3551 16.2015 16.3483 16.5292 16.3559C17.6617 16.3833 18.526 16.8842 19.008 17.9355C19.179 18.3085 19.2411 18.7539 19.2671 19.1712C19.3081 19.8343 19.2855 20.5025 19.2771 21.1681C19.2562 22.827 18.1387 23.9714 16.5116 23.9885C15.4185 23.9996 14.3246 24.0098 13.2323 23.9748C11.8927 23.9321 10.7769 22.7886 10.7266 21.4232C10.6973 20.6296 10.6956 19.8326 10.7216 19.0389C10.7711 17.5029 11.9036 16.3875 13.415 16.3559C13.7537 16.3491 14.0923 16.3551 14.4453 16.3551C14.4453 14.8933 14.4453 13.4673 14.4453 11.9978C14.3363 11.9978 14.2332 11.9978 14.1301 11.9978C11.6312 11.9978 9.13224 11.997 6.63332 11.9978C5.49074 11.9987 4.83018 12.6626 4.82431 13.8197C4.82012 14.6526 4.82347 15.4847 4.82347 16.3551C5.18058 16.3551 5.50918 16.3508 5.83695 16.3559C7.11785 16.3739 8.12211 17.1436 8.47335 18.3929C8.53957 18.6285 8.56472 18.8828 8.5664 19.1285C8.57227 19.9136 8.58065 20.6987 8.54628 21.483C8.48844 22.7963 7.37352 23.9321 6.07754 23.9731C4.91736 24.0089 3.75382 24.0072 2.59364 23.9782C1.33622 23.9466 0.338666 23.0719 0.059518 21.8209C0.0469438 21.7654 0.0217953 21.7125 0.00251484 21.6588C0 20.6868 0 19.7131 0 18.7386ZM14.9927 6.53626C14.9927 6.53199 14.9927 6.52772 14.9927 6.5226C15.5778 6.5226 16.1637 6.54223 16.748 6.51748C17.4648 6.48676 18.1102 5.9005 18.1588 5.16916C18.215 4.32945 18.2335 3.48035 18.1815 2.64149C18.1253 1.73436 17.5721 1.16602 16.6784 1.12164C15.5593 1.06618 14.4335 1.06618 13.3144 1.12079C12.4191 1.16431 11.8709 1.7301 11.8072 2.63637C11.7519 3.42659 11.7502 4.22705 11.8089 5.01641C11.8793 5.96365 12.5072 6.51066 13.441 6.53284C13.9574 6.5465 14.4754 6.53626 14.9927 6.53626ZM14.986 22.9047C15.4931 22.9047 16.0011 22.9132 16.5083 22.903C17.4664 22.8834 18.1161 22.3218 18.1823 21.3558C18.2376 20.5468 18.2284 19.7259 18.1689 18.9169C18.106 18.0669 17.4882 17.496 16.6567 17.4781C15.5258 17.4542 14.3933 17.4576 13.2616 17.4841C12.5222 17.5012 11.8801 18.0934 11.829 18.841C11.772 19.6704 11.7527 20.5101 11.8038 21.3396C11.865 22.3184 12.5222 22.8868 13.493 22.9038C13.9909 22.9115 14.4889 22.9047 14.986 22.9047ZM4.3029 17.467V17.4662C3.77562 17.4662 3.24918 17.4653 2.7219 17.467C2.654 17.467 2.58526 17.4756 2.51736 17.4807C1.79811 17.5344 1.1518 18.1395 1.11156 18.8742C1.06713 19.6764 1.05037 20.4828 1.08809 21.285C1.13252 22.2271 1.67237 22.8296 2.58358 22.8765C3.72113 22.9354 4.86706 22.9346 6.00461 22.8723C6.91163 22.8228 7.47076 22.1537 7.4934 21.2338C7.511 20.5289 7.51184 19.8232 7.49256 19.1183C7.46657 18.1557 6.82529 17.5029 5.88222 17.4704C5.35746 17.4517 4.82934 17.467 4.3029 17.467ZM25.7176 17.4662C25.1811 17.4662 24.6438 17.4517 24.1081 17.4696C23.1651 17.5012 22.5229 18.1531 22.4953 19.1149C22.4752 19.8198 22.4777 20.5255 22.4944 21.2304C22.5162 22.1495 23.0754 22.8219 23.9807 22.8706C25.1283 22.932 26.2835 22.9303 27.4311 22.8706C28.3062 22.8245 28.8369 22.2433 28.8914 21.3456C28.9383 20.5648 28.9383 19.7754 28.8889 18.9946C28.8285 18.0533 28.2023 17.4926 27.2701 17.4679C26.7529 17.4542 26.2349 17.4653 25.7176 17.4662Z" fill="white"/>
</svg>
