<svg width="19" height="14" viewBox="0 0 19 14" fill="none" xmlns="http://www.w3.org/2000/svg">
<g clip-path="url(#clip0_158_335)">
<path d="M19 11.5245C18.9517 11.7077 18.9138 11.8942 18.8529 12.0735C18.4541 13.2499 17.4275 13.9919 16.1408 13.9941C11.7125 14.0018 7.28417 14.0029 2.85638 13.9936C1.45178 13.9908 0.359916 13.1035 0.0652791 11.7664C0.0230313 11.575 0.00327906 11.3748 0.00327906 11.1785C-0.00111032 8.81687 -1.29757e-05 6.45529 0.000535697 4.09426C0.000535697 4.05807 0.00382773 4.02242 0.0065711 3.96045C0.083934 4.00487 0.145934 4.03887 0.206837 4.07617C3.07036 5.82404 5.93608 7.56808 8.79576 9.32308C9.27036 9.6143 9.70656 9.61485 10.1812 9.32418C13.0584 7.56369 15.9417 5.81252 18.8233 4.05862C18.8809 4.02352 18.9407 3.99171 19 3.95825C19 6.47997 19 9.00224 19 11.5245Z" fill="#F12724"/>
<path d="M19 11.5245C18.9517 11.7077 18.9138 11.8942 18.8529 12.0735C18.4541 13.2499 17.4275 13.9919 16.1408 13.9941C11.7125 14.0018 7.28417 14.0029 2.85638 13.9936C1.45178 13.9908 0.359916 13.1035 0.0652791 11.7664C0.0230313 11.575 0.00327906 11.3748 0.00327906 11.1785C-0.00111032 8.81687 -1.29757e-05 6.45529 0.000535697 4.09426C0.000535697 4.05807 0.00382773 4.02242 0.0065711 3.96045C0.083934 4.00487 0.145934 4.03887 0.206837 4.07617C3.07036 5.82404 5.93608 7.56808 8.79576 9.32308C9.27036 9.6143 9.70656 9.61485 10.1812 9.32418C13.0584 7.56369 15.9417 5.81252 18.8233 4.05862C18.8809 4.02352 18.9407 3.99171 19 3.95825C19 6.47997 19 9.00224 19 11.5245Z" fill="black" fill-opacity="0.2"/>
<path d="M9.51176 0.001193C11.707 0.001193 13.9022 -0.0015492 16.0975 0.00228987C17.225 0.00448363 18.0804 0.492594 18.6384 1.47759C18.7289 1.63719 18.7799 1.81872 18.8551 1.98764C18.922 2.13791 18.8831 2.22347 18.7366 2.31231C17.0247 3.34996 15.3184 4.39474 13.6103 5.43842C12.2979 6.24023 10.9838 7.04041 9.67416 7.84606C9.56059 7.91571 9.48103 7.92613 9.36087 7.85319C6.32397 5.99728 3.28542 4.14575 0.244674 2.29805C0.121771 2.22347 0.0948859 2.15711 0.134939 2.0178C0.484992 0.802462 1.57301 0.00338675 2.90738 0.00174144C5.10866 -0.00100076 7.31048 0.001193 9.51176 0.001193Z" fill="#F12724"/>
<path d="M9.51176 0.001193C11.707 0.001193 13.9022 -0.0015492 16.0975 0.00228987C17.225 0.00448363 18.0804 0.492594 18.6384 1.47759C18.7289 1.63719 18.7799 1.81872 18.8551 1.98764C18.922 2.13791 18.8831 2.22347 18.7366 2.31231C17.0247 3.34996 15.3184 4.39474 13.6103 5.43842C12.2979 6.24023 10.9838 7.04041 9.67416 7.84606C9.56059 7.91571 9.48103 7.92613 9.36087 7.85319C6.32397 5.99728 3.28542 4.14575 0.244674 2.29805C0.121771 2.22347 0.0948859 2.15711 0.134939 2.0178C0.484992 0.802462 1.57301 0.00338675 2.90738 0.00174144C5.10866 -0.00100076 7.31048 0.001193 9.51176 0.001193Z" fill="black" fill-opacity="0.2"/>
</g>
<defs>
<clipPath id="clip0_158_335">
<rect width="19" height="14" fill="white"/>
</clipPath>
</defs>
</svg>
