<svg width="22" height="20" viewBox="0 0 22 20" fill="none" xmlns="http://www.w3.org/2000/svg">
<path d="M16.8559 19.9913H13.0649C12.9049 19.9399 12.7685 19.8377 12.6789 19.7019C12.5894 19.5661 12.5521 19.4051 12.5734 19.2463C12.5839 17.7583 12.5734 16.2683 12.5734 14.7803C12.5863 14.6367 12.5659 14.4923 12.5137 14.357C12.4614 14.2218 12.3785 14.099 12.2708 13.9974C12.1631 13.8958 12.0333 13.8178 11.8904 13.7689C11.7475 13.72 11.595 13.7013 11.4437 13.7143C10.8614 13.7143 10.2834 13.7143 9.69374 13.7143C9.53623 13.6964 9.3765 13.7125 9.22643 13.7612C9.07637 13.81 8.93984 13.8902 8.82701 13.9959C8.71418 14.1016 8.62796 14.2301 8.57476 14.3718C8.52156 14.5135 8.50275 14.6647 8.51974 14.8143C8.51974 16.2903 8.51341 17.7663 8.51974 19.2403C8.54346 19.3988 8.50851 19.5603 8.42082 19.6973C8.33313 19.8342 8.19811 19.9381 8.03874 19.9913H4.24879C4.23344 19.9786 4.21548 19.969 4.19605 19.9633C3.63885 19.878 3.13397 19.6021 2.77704 19.1876C2.42012 18.7731 2.23594 18.2489 2.25941 17.7143C2.28684 15.8343 2.26574 13.9523 2.26574 12.0733V11.8563C2.24501 11.8468 2.22301 11.8401 2.20034 11.8363C2.09486 11.8363 1.99465 11.8363 1.89128 11.8303C1.54262 11.8252 1.20215 11.7292 0.907237 11.5528C0.61232 11.3764 0.374342 11.1264 0.219401 10.8303C0.130195 10.65 0.0568126 10.463 0 10.2713L0 9.72426C0.158025 9.17655 0.489353 8.68793 0.949333 8.32426C3.66091 5.76892 6.36827 3.20859 9.0714 0.643256C9.25415 0.441637 9.48065 0.279791 9.73543 0.168776C9.99021 0.0577597 10.2673 0.00019035 10.5477 4.71235e-07C10.8281 -0.000189407 11.1052 0.0570047 11.3601 0.167675C11.6151 0.278346 11.8418 0.439885 12.0249 0.641256C14.8244 3.28992 17.6224 5.93992 20.4191 8.59126C20.4908 8.65926 20.5657 8.73026 20.6301 8.80426C20.8514 9.049 21.0009 9.3447 21.0635 9.6616C21.1261 9.9785 21.0995 10.3054 20.9865 10.6095C20.8735 10.9136 20.678 11.1841 20.4197 11.3938C20.1614 11.6036 19.8494 11.7451 19.5151 11.8043C19.2968 11.8423 19.07 11.8423 18.8327 11.8603V12.0993C18.8327 14.0393 18.839 15.9773 18.8263 17.9173C18.8135 18.3695 18.6497 18.8063 18.3583 19.1646C18.067 19.523 17.6632 19.7844 17.2051 19.9113C17.088 19.9393 16.972 19.9653 16.8559 19.9913Z" fill="#CE2028"/>
</svg>
