<svg width="175" height="58" viewBox="0 0 175 58" fill="none" xmlns="http://www.w3.org/2000/svg">
<g clip-path="url(#clip0_158_514)">
<path d="M3.41873 23.0054C3.41873 15.3142 3.41873 7.68112 3.41873 0.0505371C2.23532 0.0505371 1.1303 0.0505371 0 0.0505371C0 14.4678 0 28.8446 0 43.2366C1.15053 43.2366 2.26314 43.2366 3.42379 43.2366V23.0054C3.42126 23.0054 3.41873 23.0054 3.41873 23.0054Z" fill="white"/>
<path d="M25.3523 23.0054C25.2916 23.0054 25.2309 23.0054 25.1677 23.0054V26.6388C25.2385 26.6388 25.3093 26.6388 25.3801 26.6388C25.3801 32.195 25.3801 37.7133 25.3801 43.2265C26.5787 43.2265 27.6989 43.2265 28.7963 43.2265C28.7963 28.7915 28.7963 14.4173 28.7963 0.0505371C27.6332 0.0505371 26.5256 0.0505371 25.3523 0.0505371C25.3523 7.73418 25.3523 15.3698 25.3523 23.0054Z" fill="white"/>
<path d="M3.42383 23.0054V43.2365C3.43647 43.2365 3.44911 43.2365 3.46429 43.2365C3.46429 37.6829 3.46429 32.1823 3.46429 26.6387C10.7392 26.6387 17.918 26.6387 25.1702 26.6387V23.0054C17.9003 23.0054 10.6987 23.0054 3.42383 23.0054Z" fill="white"/>
<path d="M146.591 0.222253C146.591 1.26577 146.591 2.27392 146.591 3.36039C154.786 3.36039 163.411 3.36039 171.584 3.36039C171.584 10.185 171.584 16.9337 171.584 23.7659C163.993 23.7659 154.096 23.7659 146.575 23.7659C146.575 24.7437 146.575 25.6407 146.575 26.6109C154.149 26.6109 164.028 26.6109 171.584 26.6109C171.584 31.1135 171.584 35.5377 171.584 40.0504C163.227 40.0504 154.917 40.0504 146.591 40.0504C146.591 41.0812 146.591 42.0237 146.591 42.9965C156.078 42.9965 165.528 42.9965 175 42.9965C175 28.7232 175 14.5056 175 0.219727C165.649 0.222253 155.906 0.222253 146.591 0.222253Z" fill="white"/>
<path d="M111.096 57.113L109.594 50.7913H108.919V57.9393H109.339V51.6099L110.851 57.9291H111.321L112.813 51.5897V57.9393H113.261V50.7913H112.588L111.096 57.113Z" fill="white"/>
<path d="M119.628 50.7812L118.065 57.9393H118.495L118.851 56.3576H121.079L121.436 57.9393H121.906L120.313 50.7812H119.628ZM118.922 55.9483L119.954 51.322L121.006 55.9483H118.922Z" fill="white"/>
<path d="M129.735 57.0827V55.971C129.735 55.5819 129.654 55.2635 129.494 55.0108C129.335 54.7582 129.07 54.5914 128.703 54.5105C129.391 54.3539 129.735 53.8612 129.735 53.0299V52.4058C129.735 51.903 129.616 51.5063 129.378 51.2208C129.14 50.9353 128.749 50.7913 128.202 50.7913H126.71V57.9393H127.181V54.743H127.927C128.132 54.743 128.316 54.7607 128.478 54.7986C128.642 54.8365 128.784 54.8996 128.903 54.9931C129.022 55.0841 129.113 55.2104 129.173 55.3671C129.234 55.5237 129.264 55.7208 129.264 55.9583V57.0827C129.264 57.2798 129.275 57.444 129.295 57.5779C129.315 57.7119 129.355 57.8306 129.416 57.9393H129.907C129.831 57.823 129.785 57.6891 129.763 57.535C129.745 57.3834 129.735 57.2318 129.735 57.0827ZM127.934 54.3135H127.178V51.2208H128.19C128.579 51.2208 128.855 51.3269 129.017 51.5417C129.181 51.7565 129.262 52.0571 129.262 52.4462V53.1209C129.262 53.3584 129.232 53.5555 129.171 53.7121C129.11 53.8688 129.022 53.9926 128.91 54.081C128.799 54.1694 128.66 54.2301 128.496 54.2655C128.334 54.2983 128.147 54.3135 127.934 54.3135Z" fill="white"/>
<path d="M138.031 50.7913H137.541L135.212 54.5712V50.7913H134.741V57.9393H135.212V55.357L135.702 54.5813L137.675 57.9393H138.163L135.988 54.1214L138.031 50.7913Z" fill="white"/>
<path d="M142.957 51.2208H145.306V54.1012H143.354V54.5282H145.306V57.5097H142.957V57.9393H145.776V50.7913H142.957V51.2208Z" fill="white"/>
<path d="M150.406 51.2208H151.865V57.9393H152.336V51.2208H153.787V50.7913H150.406V51.2208Z" fill="white"/>
<path d="M158.958 50.7913H158.488V57.9393H158.958V50.7913Z" fill="white"/>
<path d="M166.623 56.8275L164.476 50.7913H163.864V57.9393H164.291V51.567L166.529 57.9393H167.05V50.7913H166.623V56.8275Z" fill="white"/>
<path d="M174.638 51.246C174.512 51.0868 174.353 50.9605 174.158 50.867C173.963 50.776 173.731 50.728 173.458 50.728C173.184 50.728 172.952 50.7735 172.757 50.867C172.562 50.958 172.403 51.0843 172.277 51.246C172.15 51.4052 172.059 51.5972 172.001 51.817C171.943 52.0394 171.915 52.2794 171.915 52.5371V56.1932C171.915 56.451 171.943 56.691 172.001 56.9134C172.059 57.1357 172.15 57.3252 172.277 57.4844C172.403 57.6436 172.562 57.7699 172.757 57.8634C172.952 57.9543 173.184 58.0024 173.458 58.0024C173.731 58.0024 173.963 57.9569 174.158 57.8634C174.353 57.7724 174.512 57.6461 174.638 57.4844C174.765 57.3252 174.856 57.1332 174.914 56.9134C174.972 56.691 175 56.451 175 56.1932V54.2528H173.599V54.6823H174.55V56.2236C174.55 56.4131 174.532 56.5899 174.494 56.7542C174.456 56.9184 174.393 57.0599 174.305 57.1787C174.216 57.2974 174.102 57.3909 173.968 57.4591C173.832 57.5273 173.665 57.5602 173.468 57.5602C173.27 57.5602 173.104 57.5273 172.967 57.4591C172.83 57.3909 172.719 57.2974 172.631 57.1787C172.542 57.0599 172.479 56.9184 172.441 56.7542C172.403 56.5899 172.385 56.4131 172.385 56.2236V52.5068C172.385 52.3173 172.403 52.1404 172.441 51.9762C172.479 51.812 172.542 51.6705 172.631 51.5467C172.719 51.4254 172.83 51.3294 172.967 51.2612C173.104 51.1929 173.27 51.1601 173.468 51.1601C173.665 51.1601 173.832 51.1929 173.968 51.2612C174.105 51.3294 174.216 51.4254 174.305 51.5467C174.393 51.6705 174.456 51.812 174.494 51.9762C174.532 52.1404 174.55 52.3173 174.55 52.5068V53.0677H175V52.5371C175 52.2794 174.972 52.0394 174.914 51.817C174.856 51.5972 174.765 51.4052 174.638 51.246Z" fill="white"/>
<path d="M120.965 0.260074C120.007 0.10342 119.026 0.0200392 118.055 0.0175125C112.145 -0.0052276 106.238 0.00740581 100.329 0.00740581C100.056 0.00740581 99.7828 0.00740581 99.4414 0.00740581C99.4414 14.3665 99.4414 43.6786 99.4414 58.0024H102.926C102.926 57.5956 102.928 57.6486 102.931 58.0024H102.969C102.969 54.273 102.969 35.5326 102.969 31.7602C103.242 31.7602 103.51 31.7602 103.778 31.7602C108.502 31.7602 113.223 31.7602 117.946 31.7602C126.015 31.7602 132.478 26.3582 133.884 18.4396C135.373 10.0181 129.431 1.63964 120.965 0.260074ZM120.571 28.0207C119.731 28.1749 118.866 28.2582 118.012 28.2633C113.293 28.286 108.572 28.2734 103.854 28.2734C103.578 28.2734 103.303 28.2734 102.949 28.2734C102.949 19.9808 102.949 11.7868 102.949 3.4917C103.222 3.4917 103.467 3.4917 103.715 3.4917C108.575 3.4917 113.432 3.48665 118.292 3.4917C124.66 3.49928 129.947 8.42379 130.556 14.9047C131.128 21.0471 126.688 26.8964 120.571 28.0207Z" fill="white"/>
<path d="M64.1188 28.0208L45.0781 0.0352113C43.8542 -0.0229024 42.6253 0.00741775 41.2649 0.00741775L62.2274 31.1791V43.2314H64.1213L64.1188 28.0208Z" fill="white"/>
<path d="M83.1596 0.0352113L64.1189 28.0208V43.2314H66.0129V31.1791L86.9753 0.00741775C85.6124 0.00741775 84.3835 -0.0229024 83.1596 0.0352113Z" fill="white"/>
</g>
<defs>
<clipPath id="clip0_158_514">
<rect width="175" height="58" fill="white"/>
</clipPath>
</defs>
</svg>
