<svg width="18" height="18" viewBox="0 0 18 18" fill="none" xmlns="http://www.w3.org/2000/svg">
<path d="M0 1.26531C0.0327414 1.16597 0.0616101 1.06487 0.0985761 0.967299C0.319668 0.382904 0.871342 0.000352257 1.49378 0.000352257C4.29827 0 7.10276 -0.000352257 9.9069 0.000704515C11.0405 0.00105677 11.9481 0.83485 11.983 1.97229C12.0182 3.12523 11.9971 4.27993 11.9914 5.43392C11.9897 5.7654 11.7327 6.00916 11.4257 6.00599C11.113 6.00282 10.8641 5.74426 10.8634 5.4068C10.8606 4.32326 10.8469 3.23901 10.8684 2.15582C10.88 1.57917 10.467 1.11666 9.84142 1.12088C8.35433 1.1311 6.86723 1.12405 5.38014 1.12405C5.33438 1.12405 5.28861 1.12405 5.24284 1.12405C5.24038 1.13462 5.23756 1.14519 5.2351 1.15611C5.62975 1.28785 6.02547 1.41748 6.41907 1.55169C6.97074 1.7398 7.32984 2.11178 7.45975 2.6842C7.49531 2.84201 7.49671 3.00969 7.49671 3.17278C7.49847 6.90425 7.49812 10.6357 7.49812 14.3675C7.49812 14.4482 7.49812 14.5289 7.49812 14.6257C7.64 14.6257 7.76146 14.6257 7.88292 14.6257C8.5388 14.6257 9.19434 14.6268 9.85022 14.6254C10.4727 14.624 10.861 14.2386 10.8617 13.6207C10.8627 12.5368 10.8613 11.4533 10.8624 10.3694C10.8627 10.0531 11.0176 9.84137 11.2958 9.76669C11.6014 9.68461 11.927 9.89104 11.9812 10.2021C11.9872 10.2366 11.9928 10.2718 11.9928 10.3067C11.9897 11.5016 12.0094 12.6971 11.9745 13.8909C11.946 14.8681 11.0166 15.7336 10.0389 15.7463C9.26616 15.7561 8.49339 15.7487 7.72062 15.7491C7.65655 15.7491 7.59247 15.7491 7.49812 15.7491C7.49812 15.854 7.50094 15.9506 7.49777 16.0467C7.48932 16.2982 7.51326 16.5568 7.46186 16.7992C7.33301 17.4072 6.9475 17.7932 6.34725 17.9613C6.31521 17.9701 6.28528 17.9866 6.2543 17.9996C6.07863 17.9996 5.90295 17.9996 5.72727 17.9996C5.65721 17.9757 5.58715 17.951 5.51709 17.9278C4.02472 17.4304 2.53059 16.9383 1.04103 16.4339C0.504851 16.2521 0.164411 15.8734 0.0327414 15.3162C0.0278125 15.2954 0.0112658 15.2771 0.000352058 15.2577C0 10.5938 0 5.92955 0 1.26531ZM6.36485 9.75683C6.36485 7.54183 6.36485 5.32719 6.36485 3.11219C6.36485 2.79516 6.29725 2.70217 5.99519 2.60177C4.57112 2.12763 3.14704 1.6535 1.72297 1.18006C1.33782 1.05219 1.12377 1.20824 1.12377 1.61686C1.12342 6.04086 1.12342 10.4649 1.12377 14.8885C1.12377 15.1886 1.20157 15.2982 1.48392 15.3922C2.91257 15.8681 4.34474 16.3342 5.76811 16.8259C6.09024 16.9372 6.374 16.7738 6.37154 16.3835C6.3571 14.1748 6.36485 11.9658 6.36485 9.75683Z" fill="white"/>
<path d="M16.057 8.43656C15.9609 8.43656 15.8993 8.43656 15.8377 8.43656C13.9999 8.43656 12.1622 8.43692 10.3241 8.43621C10.0164 8.43621 9.78298 8.23261 9.74214 7.93671C9.70658 7.67921 9.88542 7.40903 10.1498 7.33541C10.2269 7.31392 10.3114 7.31392 10.3924 7.31392C12.2069 7.31286 14.021 7.31321 15.8355 7.31321C15.8975 7.31321 15.9598 7.31321 16.0573 7.31321C15.9908 7.24135 15.9507 7.19486 15.9074 7.15153C15.349 6.59214 14.7875 6.03593 14.2326 5.47302C13.9189 5.15458 14.0337 4.65508 14.4467 4.52545C14.6812 4.45218 14.8797 4.52334 15.0519 4.69665C15.7535 5.40257 16.458 6.10532 17.1621 6.80913C17.3776 7.02436 17.5948 7.23748 17.8099 7.45306C18.062 7.70598 18.0644 8.04168 17.8124 8.2939C16.8893 9.21716 15.9665 10.1404 15.0399 11.0605C14.7118 11.3864 14.2133 11.2789 14.0809 10.8566C14.007 10.6216 14.0798 10.4236 14.2534 10.2517C14.8104 9.69905 15.3634 9.14284 15.9179 8.58768C15.957 8.54788 15.9936 8.50525 16.057 8.43656Z" fill="white"/>
</svg>
