<svg width="27" height="28" viewBox="0 0 27 28" fill="none" xmlns="http://www.w3.org/2000/svg">
<path d="M9.87887 19.3923C9.95794 19.5088 10.0117 19.5901 10.0676 19.6708C11.1732 21.2751 12.2818 22.8765 13.383 24.4837C13.95 25.3119 13.9574 26.2954 13.421 27.0569C12.666 28.1292 11.1464 28.3204 10.1124 27.4586C9.89528 27.2775 9.69907 27.0599 9.53867 26.829C8.29429 25.0422 7.06035 23.2473 5.82342 21.4561C5.76672 21.3733 5.7048 21.2941 5.63617 21.2003C4.98413 21.6078 4.28286 21.7991 3.51519 21.772C1.60311 21.7038 0.381848 20.227 0.0864186 18.8902C-0.231392 17.4523 0.340816 16.0671 1.58147 15.2301C2.31706 14.7332 3.06459 14.2532 3.79421 13.7482C3.95983 13.6339 4.11575 13.4682 4.20453 13.2916C5.61826 10.4956 7.01932 7.69517 8.4241 4.8955C8.85829 4.02994 9.73115 3.57921 10.7167 3.67961C11.9163 3.80201 12.9473 4.3209 13.8701 5.03035C16.9416 7.39249 19.0163 10.4172 19.9779 14.1462C20.2219 15.0923 20.2987 16.0627 20.0063 17.0177C19.7332 17.9096 19.1864 18.5597 18.2039 18.7202C17.71 18.8008 17.2042 18.8052 16.7036 18.8455C15.1653 18.9686 13.6269 19.094 12.0886 19.2156C11.5142 19.2611 10.9382 19.2999 10.3638 19.3432C10.2161 19.3556 10.0698 19.3732 9.87887 19.3923ZM19.0834 15.5914C18.9865 15.0132 18.9559 14.4855 18.8074 13.9923C17.8062 10.6634 15.8844 7.94583 13.0861 5.83141C12.4564 5.35576 11.7559 4.99517 10.9696 4.82367C10.0393 4.62066 9.34023 5.06553 9.17237 5.98605C8.99929 6.93662 9.16044 7.86374 9.45064 8.76741C10.3765 11.6536 12.0349 14.0758 14.3342 16.0744C15.1317 16.7677 16.012 17.3489 17.0662 17.6157C17.8152 17.8048 18.4836 17.5153 18.7746 16.8117C18.9387 16.4138 18.9909 15.9718 19.0834 15.5914ZM14.9086 17.8971C11.4164 15.3972 9.15074 12.119 8.08838 8.03597C8.07495 8.0521 8.06078 8.06456 8.05332 8.07995C7.10809 9.97083 6.16063 11.861 5.22436 13.757C5.18556 13.8361 5.21541 13.9871 5.26987 14.067C6.2233 15.4617 7.18792 16.8498 8.1421 18.2438C8.24057 18.3875 8.34204 18.4182 8.50915 18.4043C10.093 18.2746 11.6776 18.1551 13.2621 18.0313C13.8038 17.9888 14.3446 17.9433 14.9086 17.8971ZM7.22298 18.8477C6.24941 17.4398 5.30642 16.0766 4.35299 14.698C3.58756 15.2133 2.84376 15.697 2.11936 16.2056C1.47479 16.6585 1.15325 17.2925 1.12191 18.073C1.0585 19.6502 2.80348 21.4019 4.75734 20.4293C5.6205 20.0006 6.38966 19.3901 7.22298 18.8477ZM6.57393 20.5898C6.63585 20.6873 6.68062 20.765 6.73209 20.839C7.17002 21.4737 7.60943 22.1077 8.0481 22.7423C8.87769 23.9436 9.70802 25.1448 10.5361 26.3467C10.8286 26.7711 11.2262 26.9946 11.7469 26.8972C12.6235 26.7337 12.9712 25.8235 12.4527 25.0686C11.2202 23.2759 9.98182 21.4862 8.74564 19.6957C8.60837 19.4971 8.35994 19.4113 8.15254 19.5418C7.62211 19.876 7.10809 20.2329 6.57393 20.5898Z" fill="white"/>
<path d="M20.4629 7.04069C20.5666 6.9007 20.6404 6.71821 20.7777 6.62807C22.0347 5.80062 23.3015 4.98637 24.5698 4.17505C24.8525 3.99403 25.1823 4.06365 25.3583 4.31577C25.5307 4.56276 25.4717 4.90429 25.1957 5.08385C23.9349 5.90543 22.6719 6.72408 21.4006 7.52953C20.9985 7.78531 20.5158 7.5244 20.4629 7.04069Z" fill="white"/>
<path d="M22.0982 10.1269C22.7353 10.2383 23.438 10.36 24.1408 10.4846C24.907 10.6202 25.6724 10.7616 26.4401 10.8943C26.8161 10.9595 27.0414 11.2021 26.9937 11.5136C26.9437 11.8375 26.6303 12.0398 26.2603 11.9753C25.4292 11.8309 24.5996 11.6807 23.7685 11.5334C23.1665 11.4264 22.5637 11.3223 21.9616 11.2153C21.6013 11.1515 21.3872 10.9045 21.423 10.5982C21.4573 10.3006 21.6983 10.113 22.0982 10.1269Z" fill="white"/>
<path d="M19.2849 0.532541C19.1804 1.53441 19.0834 2.46886 18.9849 3.40404C18.9409 3.82179 18.8984 4.23955 18.8454 4.65583C18.8037 4.98491 18.5448 5.18279 18.227 5.14541C17.9293 5.1095 17.7174 4.85372 17.7503 4.54077C17.889 3.19736 18.0323 1.85396 18.1785 0.511287C18.2128 0.193941 18.4627 -0.0178668 18.7582 0.00118858C19.0685 0.0209769 19.2938 0.278225 19.2849 0.532541Z" fill="white"/>
<path d="M13.0697 8.97188C14.4073 8.97408 15.5435 9.77587 15.9441 10.9998C16.338 12.2054 15.9038 13.5313 14.8721 14.2678C14.6102 14.4547 14.3372 14.4716 14.1268 14.3081C13.9194 14.1469 13.8537 13.9256 13.9515 13.6969C14.0082 13.5642 14.1372 13.4514 14.2558 13.3554C15.0869 12.6818 15.2093 11.5187 14.5282 10.714C13.9716 10.0573 13.0018 9.86749 12.2259 10.2647C12.1438 10.3065 12.0662 10.3593 11.9834 10.3996C11.7081 10.533 11.4045 10.4545 11.2493 10.212C11.086 9.95543 11.1479 9.64615 11.4172 9.46806C11.9155 9.13752 12.4654 8.96309 13.0697 8.97188Z" fill="white"/>
</svg>
