<svg width="17" height="20" viewBox="0 0 17 20" fill="none" xmlns="http://www.w3.org/2000/svg">
<path d="M8.10407 20C7.73148 19.8742 7.3376 19.7887 6.99056 19.6144C6.16927 19.2011 5.66149 18.5212 5.41079 17.6539C5.40387 17.6289 5.39961 17.6033 5.39695 17.5772C5.39535 17.5579 5.39801 17.5386 5.39961 17.5099C7.46854 17.5099 9.53641 17.5099 11.6218 17.5099C11.5058 18.063 11.2594 18.5374 10.8862 18.9465C10.3779 19.5038 9.74719 19.8482 8.98977 19.9635C8.9589 19.9682 8.93015 19.9875 8.90088 19.9995C8.63528 20 8.36967 20 8.10407 20Z" fill="black"/>
<path d="M8.50699 16.6745C6.19002 16.6745 3.87305 16.6755 1.55555 16.674C0.799729 16.6735 0.199329 16.232 0.041777 15.5364C-0.0907581 14.953 0.095004 14.4584 0.557014 14.067C1.04351 13.6548 1.45016 13.1784 1.77378 12.6336C2.31084 11.7298 2.55302 10.7519 2.55036 9.70934C2.54823 8.86348 2.52375 8.01553 2.57059 7.17176C2.67279 5.33132 3.52335 3.87129 5.02542 2.77757C5.75995 2.24219 6.58922 1.90718 7.49408 1.7616C7.60692 1.74333 7.6527 1.70263 7.65057 1.58627C7.64631 1.30657 7.64046 1.02584 7.66121 0.74719C7.68996 0.361048 8.00985 0.0469167 8.3867 0.00569346C8.80879 -0.0402261 9.19309 0.195112 9.31072 0.585428C9.34425 0.695531 9.34957 0.81607 9.35277 0.931912C9.35916 1.15316 9.35916 1.37441 9.35277 1.59566C9.34957 1.70315 9.39588 1.7402 9.49861 1.76055C12.0136 2.26619 13.6168 3.73822 14.2837 6.16257C14.4131 6.63272 14.4312 7.13888 14.4482 7.62991C14.4775 8.48151 14.4327 9.33624 14.4791 10.1868C14.561 11.6917 15.2013 12.955 16.3388 13.9652C16.7375 14.319 17.0206 14.7088 16.9988 15.2573C16.9664 16.0734 16.318 16.6729 15.4579 16.674C13.3464 16.6766 11.2354 16.675 9.12389 16.675C8.91897 16.6745 8.71298 16.6745 8.50699 16.6745Z" fill="black"/>
</svg>
