<svg width="16" height="21" viewBox="0 0 16 21" fill="none" xmlns="http://www.w3.org/2000/svg">
<g clip-path="url(#clip0_158_295)">
<path d="M7.54278 0C7.84832 0 8.15386 0 8.4594 0C8.61579 0.0268479 8.77106 0.0558875 8.92801 0.0810917C11.2082 0.442717 13.0982 2.39823 13.2857 4.66441C13.3653 5.62217 13.3213 6.58979 13.3336 7.55303C13.3347 7.65385 13.3336 7.75412 13.3336 7.87466C13.5317 7.87466 13.7104 7.87466 13.889 7.87466C15.144 7.8763 15.9989 8.71133 15.9994 9.9425C16.0005 12.9363 16.0005 15.9301 15.9994 18.9239C15.9989 20.1573 15.1462 20.9973 13.8957 20.9984C12.6457 20.9995 11.3963 20.9984 10.1463 20.9984C7.44538 20.9984 4.74449 21.0005 2.0436 20.9973C0.912149 20.9962 0.010553 20.154 0.00665722 19.0675C-0.00336051 15.9778 -0.00169089 12.8881 0.00665722 9.79894C0.00943993 8.86036 0.71736 8.05931 1.65791 7.91411C1.98293 7.8637 2.31797 7.87466 2.66804 7.85658C2.66804 7.78206 2.66804 7.70864 2.66804 7.63467C2.66859 6.80786 2.6608 5.98051 2.67082 5.1537C2.69698 2.9593 4.17515 0.965429 6.29112 0.286013C6.69739 0.155608 7.12537 0.0936938 7.54278 0ZM11.5527 7.8637C11.5527 7.78644 11.5527 7.7196 11.5527 7.6533C11.5527 6.88129 11.5565 6.10927 11.5504 5.33726C11.5488 5.10604 11.5343 4.87208 11.4987 4.64414C11.2121 2.81903 9.3404 1.4865 7.49547 1.78785C5.68449 2.08208 4.4601 3.48968 4.45064 5.29123C4.44618 6.08407 4.44952 6.87635 4.45008 7.66919C4.45008 7.73439 4.45731 7.79905 4.46177 7.8637C6.83263 7.8637 9.18235 7.8637 11.5527 7.8637ZM7.11591 15.7186C7.11591 15.8825 7.11591 16.0463 7.11591 16.2107C7.11591 16.3405 7.11424 16.4704 7.11647 16.6002C7.12648 17.1164 7.49992 17.4977 7.99636 17.501C8.49057 17.5043 8.87792 17.1218 8.88404 16.609C8.89072 16.0282 8.89072 15.4474 8.88293 14.8672C8.8807 14.7105 8.92244 14.6118 9.05879 14.5132C9.75781 14.0086 9.97208 13.1166 9.59363 12.3561C9.21741 11.5999 8.35922 11.2115 7.53332 11.4421C6.84599 11.6339 6.40855 12.0881 6.2644 12.7725C6.11581 13.4771 6.35623 14.0683 6.93559 14.5077C7.07361 14.6124 7.12704 14.7127 7.11869 14.8792C7.10589 15.1581 7.11591 15.4386 7.11591 15.7186Z" fill="#F12724"/>
<path d="M7.54278 0C7.84832 0 8.15386 0 8.4594 0C8.61579 0.0268479 8.77106 0.0558875 8.92801 0.0810917C11.2082 0.442717 13.0982 2.39823 13.2857 4.66441C13.3653 5.62217 13.3213 6.58979 13.3336 7.55303C13.3347 7.65385 13.3336 7.75412 13.3336 7.87466C13.5317 7.87466 13.7104 7.87466 13.889 7.87466C15.144 7.8763 15.9989 8.71133 15.9994 9.9425C16.0005 12.9363 16.0005 15.9301 15.9994 18.9239C15.9989 20.1573 15.1462 20.9973 13.8957 20.9984C12.6457 20.9995 11.3963 20.9984 10.1463 20.9984C7.44538 20.9984 4.74449 21.0005 2.0436 20.9973C0.912149 20.9962 0.010553 20.154 0.00665722 19.0675C-0.00336051 15.9778 -0.00169089 12.8881 0.00665722 9.79894C0.00943993 8.86036 0.71736 8.05931 1.65791 7.91411C1.98293 7.8637 2.31797 7.87466 2.66804 7.85658C2.66804 7.78206 2.66804 7.70864 2.66804 7.63467C2.66859 6.80786 2.6608 5.98051 2.67082 5.1537C2.69698 2.9593 4.17515 0.965429 6.29112 0.286013C6.69739 0.155608 7.12537 0.0936938 7.54278 0ZM11.5527 7.8637C11.5527 7.78644 11.5527 7.7196 11.5527 7.6533C11.5527 6.88129 11.5565 6.10927 11.5504 5.33726C11.5488 5.10604 11.5343 4.87208 11.4987 4.64414C11.2121 2.81903 9.3404 1.4865 7.49547 1.78785C5.68449 2.08208 4.4601 3.48968 4.45064 5.29123C4.44618 6.08407 4.44952 6.87635 4.45008 7.66919C4.45008 7.73439 4.45731 7.79905 4.46177 7.8637C6.83263 7.8637 9.18235 7.8637 11.5527 7.8637ZM7.11591 15.7186C7.11591 15.8825 7.11591 16.0463 7.11591 16.2107C7.11591 16.3405 7.11424 16.4704 7.11647 16.6002C7.12648 17.1164 7.49992 17.4977 7.99636 17.501C8.49057 17.5043 8.87792 17.1218 8.88404 16.609C8.89072 16.0282 8.89072 15.4474 8.88293 14.8672C8.8807 14.7105 8.92244 14.6118 9.05879 14.5132C9.75781 14.0086 9.97208 13.1166 9.59363 12.3561C9.21741 11.5999 8.35922 11.2115 7.53332 11.4421C6.84599 11.6339 6.40855 12.0881 6.2644 12.7725C6.11581 13.4771 6.35623 14.0683 6.93559 14.5077C7.07361 14.6124 7.12704 14.7127 7.11869 14.8792C7.10589 15.1581 7.11591 15.4386 7.11591 15.7186Z" fill="black" fill-opacity="0.2"/>
</g>
<defs>
<clipPath id="clip0_158_295">
<rect width="16" height="21" fill="white"/>
</clipPath>
</defs>
</svg>
