<svg width="21" height="21" viewBox="0 0 21 21" fill="none" xmlns="http://www.w3.org/2000/svg">
<path d="M21 1.27102C21 1.73611 21 2.20066 21 2.66575C20.9852 2.70355 20.9677 2.74025 20.9567 2.7786C20.7815 3.38175 20.3937 3.76522 19.7786 3.90217C19.6154 3.93832 19.4434 3.93723 19.266 3.95421C19.266 7.44543 19.266 10.9334 19.266 14.4257C19.3985 14.4366 19.524 14.4306 19.6406 14.4591C19.9462 14.5347 20.1642 14.8557 20.1292 15.1537C20.087 15.5076 19.812 15.7481 19.4402 15.7481C16.9268 15.7492 14.414 15.7487 11.9006 15.7487C11.8294 15.7487 11.7576 15.7487 11.6481 15.7487C11.9543 16.1633 12.2325 16.5413 12.5113 16.9188C13.2457 17.9125 13.9813 18.9052 14.7136 19.9011C15.0186 20.3158 14.9096 20.7332 14.4446 20.9622C14.4277 20.9704 14.4145 20.9874 14.3992 21C14.2759 21 14.1533 21 14.03 21C13.8663 20.8433 13.6784 20.7047 13.5431 20.5261C12.9368 19.7269 12.3459 18.9161 11.7494 18.1097C11.5654 17.861 11.3819 17.6123 11.1985 17.3631C11.1853 17.368 11.1722 17.3729 11.159 17.3779C11.159 17.4436 11.159 17.5088 11.159 17.5745C11.159 18.4417 11.1459 19.3094 11.165 20.1766C11.1738 20.576 11.0341 20.8466 10.6677 21C10.5582 21 10.4492 21 10.3397 21C9.9749 20.8455 9.83305 20.5765 9.84236 20.1766C9.86208 19.31 9.84838 18.4423 9.84838 17.5751C9.84838 17.5071 9.84838 17.4398 9.84838 17.3718C9.02575 18.4231 8.2513 19.4798 7.46427 20.5267C7.33008 20.7053 7.14113 20.8433 6.97737 21C6.85414 21 6.73145 21 6.60822 21C6.01014 20.7097 6.04136 20.2155 6.35957 19.7965C7.3257 18.5239 8.26609 17.231 9.2158 15.9453C9.25687 15.8894 9.29466 15.8308 9.35162 15.7487C9.23387 15.7487 9.15938 15.7487 9.08435 15.7487C6.57645 15.7487 4.06911 15.7492 1.56121 15.7481C1.16961 15.7481 0.870022 15.455 0.874951 15.0858C0.87988 14.7204 1.16852 14.4454 1.55354 14.4372C1.61324 14.4361 1.67294 14.4312 1.73812 14.4279C1.73812 10.9268 1.73812 7.43721 1.73812 3.93559C1.66911 3.93559 1.61543 3.93613 1.56121 3.93559C0.780747 3.92737 0.153637 3.42995 0.0347868 2.66466C-0.0232688 2.2905 0.00849749 1.901 0.0101406 1.51863C0.0128791 0.680473 0.683258 0.00173109 1.5174 0.00118328C7.50973 -0.000460164 13.5021 8.76503e-05 19.4949 8.76503e-05C19.8203 8.76503e-05 20.1094 0.105268 20.3729 0.292621C20.7136 0.535302 20.8883 0.882617 21 1.27102ZM3.09257 3.94271C3.09257 7.45036 3.09257 10.9383 3.09257 14.4257C8.04373 14.4257 12.9796 14.4257 17.9159 14.4257C17.9159 10.9246 17.9159 7.43721 17.9159 3.94271C12.9697 3.94271 8.0388 3.94271 3.09257 3.94271ZM10.5067 1.31101C7.94569 1.31101 5.38412 1.31101 2.8231 1.31101C2.42712 1.31101 2.03059 1.30991 1.6346 1.31156C1.39307 1.31265 1.32132 1.38715 1.31968 1.63203C1.31804 1.82321 1.31913 2.0144 1.31913 2.20614C1.31913 2.58741 1.35692 2.62521 1.74195 2.62521C7.58147 2.62521 13.421 2.62521 19.2605 2.62521C19.3153 2.62521 19.3701 2.62631 19.4243 2.62467C19.599 2.62028 19.6872 2.52935 19.6883 2.35514C19.6894 2.13656 19.6888 1.91799 19.6888 1.69941C19.6888 1.36195 19.6373 1.31156 19.2967 1.31156C16.3665 1.31101 13.4369 1.31101 10.5067 1.31101Z" fill="white"/>
</svg>
