<svg width="19" height="20" viewBox="0 0 19 20" fill="none" xmlns="http://www.w3.org/2000/svg">
<path d="M10.1144 0C10.5399 0.0680166 10.9615 0.156226 11.3777 0.264295C12.6784 0.667777 13.7758 1.51303 14.4588 2.63743C15.1417 3.76183 15.362 5.08595 15.0771 6.35502C14.7922 7.62409 14.0224 8.74847 12.9157 9.51182C11.809 10.2752 10.4437 10.6236 9.08233 10.49C7.721 10.3564 6.45985 9.75031 5.54153 8.78826C4.62322 7.82621 4.11261 6.57619 4.10794 5.27871C4.10328 3.98123 4.60489 2.72794 5.51627 1.75998C6.42765 0.792014 7.6844 0.177757 9.04475 0.0353868C9.10014 0.0279796 9.15477 0.0161418 9.20806 0L10.1144 0Z" fill="#211F1F"/>
<path d="M9.66304 19.9858H1.14327C0.623034 19.9858 0.389743 19.7647 0.400241 19.2692C0.433402 17.4657 1.13322 15.7304 2.37769 14.3659C3.62216 13.0014 5.33232 12.0942 7.20999 11.8026C7.562 11.7502 7.91751 11.7218 8.2738 11.7175C9.16497 11.7042 10.0573 11.7042 10.9485 11.7175C12.7004 11.7389 14.3975 12.2997 15.7839 13.3154C17.1702 14.3311 18.1706 15.7466 18.6342 17.3484C18.8169 17.9827 18.9153 18.6361 18.927 19.2936C18.9439 19.3877 18.9371 19.4843 18.9071 19.5755C18.877 19.6666 18.8246 19.7498 18.7542 19.818C18.6838 19.8863 18.5973 19.9378 18.5018 19.9683C18.4064 19.9988 18.3046 20.0075 18.205 19.9936L9.66304 19.9858Z" fill="#211F1F"/>
</svg>
