<svg width="30" height="16" viewBox="0 0 30 16" fill="none" xmlns="http://www.w3.org/2000/svg">
<path d="M0 1.14286C0 0.511675 0.511675 0 1.14286 0H28.5714C29.2026 0 29.7143 0.511675 29.7143 1.14286C29.7143 1.77404 29.2026 2.28571 28.5714 2.28571H1.14286C0.511675 2.28571 0 1.77404 0 1.14286Z" fill="#CE2028"/>
<path d="M0 8C0 7.36882 0.511675 6.85714 1.14286 6.85714H21.7143C22.3455 6.85714 22.8571 7.36882 22.8571 8C22.8571 8.63118 22.3455 9.14286 21.7143 9.14286H1.14286C0.511675 9.14286 0 8.63118 0 8Z" fill="#CE2028"/>
<path d="M0 14.8571C0 14.226 0.511675 13.7143 1.14286 13.7143H10.2857C10.9169 13.7143 11.4286 14.226 11.4286 14.8571C11.4286 15.4883 10.9169 16 10.2857 16H1.14286C0.511675 16 0 15.4883 0 14.8571Z" fill="#CE2028"/>
</svg>
