<svg width="26" height="24" viewBox="0 0 26 24" fill="none" xmlns="http://www.w3.org/2000/svg">
<path d="M26 6C26 5.44772 25.5523 5 25 5H1C0.447716 5 0 5.44772 0 6C0 6.55228 0.447716 7 1 7H25C25.5523 7 26 6.55228 26 6Z" fill="#F12724"/>
<path d="M26 6C26 5.44772 25.5523 5 25 5H1C0.447716 5 0 5.44772 0 6C0 6.55228 0.447716 7 1 7H25C25.5523 7 26 6.55228 26 6Z" fill="black" fill-opacity="0.2"/>
<path d="M26 12C26 11.4477 25.5523 11 25 11H7C6.44772 11 6 11.4477 6 12C6 12.5523 6.44772 13 7 13H25C25.5523 13 26 12.5523 26 12Z" fill="#F12724"/>
<path d="M26 12C26 11.4477 25.5523 11 25 11H7C6.44772 11 6 11.4477 6 12C6 12.5523 6.44772 13 7 13H25C25.5523 13 26 12.5523 26 12Z" fill="black" fill-opacity="0.2"/>
<path d="M26 18C26 17.4477 25.5523 17 25 17H17C16.4477 17 16 17.4477 16 18C16 18.5523 16.4477 19 17 19H25C25.5523 19 26 18.5523 26 18Z" fill="#F12724"/>
<path d="M26 18C26 17.4477 25.5523 17 25 17H17C16.4477 17 16 17.4477 16 18C16 18.5523 16.4477 19 17 19H25C25.5523 19 26 18.5523 26 18Z" fill="black" fill-opacity="0.2"/>
</svg>
