<svg width="24" height="24" viewBox="0 0 24 24" fill="none" xmlns="http://www.w3.org/2000/svg">
<path d="M12.8538 24.0001C12.292 24.0001 11.7295 24.0001 11.1677 24.0001C10.8987 23.965 10.6297 23.935 10.3613 23.8943C7.19131 23.4113 4.56997 21.9427 2.59991 19.4135C0.203795 16.338 -0.550699 12.8539 0.39711 9.07328C1.30551 5.45155 3.51956 2.82535 6.86286 1.18031C9.11946 0.070261 11.5168 -0.23447 13.9918 0.172255C16.2196 0.538308 18.1928 1.48003 19.8876 2.97303C21.9896 4.82519 23.3103 7.13163 23.8121 9.89486C23.8884 10.3147 23.9378 10.7396 23.9997 11.1626C23.9997 11.7245 23.9997 12.287 23.9997 12.8489C23.9647 13.118 23.9334 13.3871 23.894 13.6549C23.5468 16.0208 22.6021 18.117 21.0174 19.9091C19.1694 21.9996 16.869 23.3105 14.1188 23.8117C13.6996 23.8893 13.2754 23.9381 12.8538 24.0001ZM12.0236 1.51132C6.26789 1.49255 1.55325 6.19116 1.51947 11.9804C1.48568 17.7359 6.21034 22.4802 11.9967 22.5008C17.7511 22.5215 22.4657 17.8229 22.5014 12.0311C22.5377 6.27501 17.8118 1.53072 12.0236 1.51132Z" fill="white"/>
<path d="M17.0334 15.942C16.6618 16.3143 16.3208 16.6553 15.9661 17.0101C15.9298 16.9782 15.8767 16.9363 15.8297 16.8893C14.3558 15.4157 12.8812 13.9434 11.4129 12.4642C11.3353 12.3859 11.269 12.2552 11.2684 12.1482C11.2602 9.66526 11.2621 7.18299 11.2621 4.70009C11.2621 4.6469 11.2621 4.59372 11.2621 4.52551C11.7589 4.52551 12.2393 4.52551 12.7592 4.52551C12.7592 4.60686 12.7592 4.69634 12.7592 4.78582C12.7592 7.00278 12.7611 9.22037 12.7561 11.4373C12.7555 11.6138 12.8024 11.7396 12.93 11.866C14.2425 13.1694 15.5488 14.4796 16.857 15.7874C16.9114 15.8431 16.974 15.8907 17.0334 15.942Z" fill="white"/>
</svg>
