<svg width="21" height="11" viewBox="0 0 21 11" fill="none" xmlns="http://www.w3.org/2000/svg">
<g clip-path="url(#clip0_158_556)">
<path d="M20.9999 5.62212C20.8926 5.77486 20.8047 5.94745 20.6748 6.07829C18.9025 7.86122 16.8816 9.28675 14.5248 10.2072C12.9133 10.837 11.2422 11.1231 9.50696 10.95C8.14772 10.8146 6.85833 10.4216 5.62648 9.84984C3.59943 8.90899 1.82563 7.61023 0.265524 6.02076C-0.088414 5.66031 -0.0889277 5.33752 0.265524 4.97809C2.05165 3.16868 4.09104 1.72381 6.47409 0.792123C8.08556 0.161835 9.75662 -0.12378 11.4919 0.0488108C12.8511 0.184236 14.1405 0.577784 15.3724 1.14901C17.3748 2.07764 19.1291 3.35706 20.6743 4.92107C20.8037 5.05242 20.8921 5.22399 20.9994 5.37724C20.9999 5.4592 20.9999 5.54066 20.9999 5.62212ZM14.8058 5.49535C14.8017 3.14323 12.8614 1.21978 10.4953 1.22385C8.12665 1.22793 6.19001 3.15494 6.19361 5.50401C6.1972 7.85613 8.13796 9.77958 10.5041 9.7755C12.8727 9.77194 14.8094 7.84493 14.8058 5.49535Z" fill="#CE2028"/>
<path d="M13.5046 6.0411C13.3684 7.20749 12.283 8.29089 11.0486 8.50727C9.68109 8.74655 8.32749 8.0567 7.72595 6.81292C7.12595 5.57271 7.43314 4.12631 8.49599 3.188C9.40986 2.38105 10.9068 2.20489 11.8515 2.79293C11.0712 3.66708 10.917 4.35745 11.329 5.13283C11.7287 5.88582 12.396 6.16685 13.5046 6.0411Z" fill="#CE2028"/>
</g>
<defs>
<clipPath id="clip0_158_556">
<rect width="21" height="11" fill="white"/>
</clipPath>
</defs>
</svg>
